<?xml version="1.0" encoding="UTF-8" standalone="no"?>
<svg width="92px" height="92px" viewBox="0 0 92 92" version="1.1" xmlns="http://www.w3.org/2000/svg" xmlns:xlink="http://www.w3.org/1999/xlink">
    <!-- Generator: Sketch 3.8.3 (29802) - http://www.bohemiancoding.com/sketch -->
    <title>blue/b-subscribe-blue-lg-blue</title>
    <desc>Created with Sketch.</desc>
    <defs></defs>
    <g id="blue,-base" stroke="none" stroke-width="1" fill="none" fill-rule="evenodd">
        <g id="icons,-branding-&amp;-other-(blue)" transform="translate(-80.000000, -814.000000)">
            <g id="blue/b-subscribe-blue-lg-blue" transform="translate(80.000000, 814.000000)">
                <circle id="disc" fill="#1055FF" cx="46" cy="46" r="46"></circle>
                <path d="M11.0520814,53.0198788 C11.3122848,53.2429102 11.6003627,53.4250498 11.9163239,53.566303 C12.232285,53.7075563 12.5426658,53.7781818 12.8474754,53.7781818 C13.1894569,53.7781818 13.4440806,53.7149905 13.6113542,53.5886061 C13.7786277,53.4622216 13.8622633,53.2912334 13.8622633,53.0756364 C13.8622633,52.9641207 13.8381019,52.8674752 13.7897784,52.785697 C13.7414549,52.7039188 13.6708294,52.6314347 13.5778996,52.5682424 C13.4849699,52.5050502 13.3734558,52.445576 13.2433542,52.3898182 C13.1132525,52.3340603 12.9701428,52.2727276 12.8140208,52.2058182 L11.866142,51.8043636 C11.6802825,51.7300198 11.5000015,51.6333743 11.3252936,51.5144242 C11.1505856,51.3954742 10.994466,51.2560816 10.8569299,51.0962424 C10.7193939,50.9364032 10.6097384,50.7505465 10.5279602,50.5386667 C10.446182,50.3267868 10.4052936,50.0870316 10.4052936,49.8193939 C10.4052936,49.5220187 10.4684848,49.2413751 10.5948693,48.9774545 C10.7212538,48.713534 10.8996762,48.4830717 11.130142,48.2860606 C11.3606078,48.0890495 11.6338172,47.9347884 11.9497784,47.8232727 C12.2657396,47.711757 12.6132917,47.656 12.9924451,47.656 C13.4162048,47.656 13.8343824,47.737777 14.2469905,47.9013333 C14.6595986,48.0648897 15.0220193,48.3027863 15.3342633,48.6150303 L14.4978996,49.6521212 C14.2599994,49.4662617 14.0221028,49.323152 13.7842026,49.2227879 C13.5463025,49.1224237 13.2823859,49.0722424 12.9924451,49.0722424 C12.7099386,49.0722424 12.485052,49.129858 12.3177784,49.2450909 C12.1505048,49.3603238 12.0668693,49.5220192 12.0668693,49.7301818 C12.0668693,49.8416975 12.0947478,49.9364845 12.1505057,50.0145455 C12.2062635,50.0926065 12.2843234,50.163232 12.3846875,50.2264242 C12.4850516,50.2896165 12.6021414,50.3490906 12.7359602,50.4048485 C12.8697791,50.4606063 13.0147473,50.5219391 13.1708693,50.5888485 L14.1075966,50.968 C14.5536594,51.1464251 14.9049286,51.391756 15.1614148,51.704 C15.4179009,52.016244 15.546142,52.4288459 15.546142,52.9418182 C15.546142,53.2466278 15.4848093,53.5347057 15.362142,53.8060606 C15.2394748,54.0774155 15.0610523,54.3153121 14.8268693,54.5197576 C14.5926863,54.724203 14.3046084,54.887757 13.9626269,55.0104242 C13.6206454,55.1330915 13.2340634,55.1944242 12.8028693,55.1944242 C12.327069,55.1944242 11.8531343,55.1070716 11.3810511,54.9323636 C10.908968,54.7576557 10.4870732,54.4955977 10.1153542,54.1461818 L11.0520814,53.0198788 Z M18.8023843,47.7898182 L20.4528086,47.7898182 L20.4528086,51.8601212 C20.4528086,52.5738218 20.5606055,53.0719178 20.7762025,53.3544242 C20.9917995,53.6369307 21.3040388,53.7781818 21.7129298,53.7781818 C22.1218207,53.7781818 22.4377772,53.6369307 22.6608086,53.3544242 C22.88384,53.0719178 22.995354,52.5738218 22.995354,51.8601212 L22.995354,47.7898182 L24.5788692,47.7898182 L24.5788692,51.6928485 C24.5788692,52.9120869 24.3353969,53.8004821 23.8484449,54.3580606 C23.361493,54.9156392 22.6496617,55.1944242 21.7129298,55.1944242 C20.7687634,55.1944242 20.0476393,54.9156392 19.5495358,54.3580606 C19.0514323,53.8004821 18.8023843,52.9120869 18.8023843,51.6928485 L18.8023843,47.7898182 Z M28.3257781,47.7898182 L30.812566,47.7898182 C31.1917194,47.7898182 31.5429886,47.8176967 31.8663842,47.8734545 C32.1897797,47.9292124 32.472282,48.0277165 32.7138993,48.1689697 C32.9555167,48.3102229 33.1450906,48.4960797 33.2826266,48.7265455 C33.4201627,48.9570113 33.4889296,49.2469477 33.4889296,49.5963636 C33.4889296,49.75992 33.4647683,49.9234739 33.4164448,50.0870303 C33.3681213,50.2505867 33.2956372,50.4029892 33.1989902,50.5442424 C33.1023433,50.6854957 32.9759607,50.8118782 32.8198387,50.9233939 C32.6637167,51.0349096 32.4815771,51.1166866 32.2734145,51.1687273 L32.2734145,51.2133333 C32.7938211,51.3099803 33.1859788,51.495837 33.4498993,51.7709091 C33.7138198,52.0459812 33.8457781,52.428846 33.8457781,52.9195152 C33.8457781,53.2912342 33.773294,53.6109078 33.6283236,53.8785455 C33.4833532,54.1461832 33.2826279,54.3673527 33.0261418,54.5420606 C32.7696556,54.7167686 32.4704263,54.8468683 32.1284448,54.9323636 C31.7864633,55.017859 31.418467,55.0606061 31.0244448,55.0606061 L28.3257781,55.0606061 L28.3257781,47.7898182 Z M30.7345054,50.7226667 C31.135962,50.7226667 31.427757,50.6427483 31.6098993,50.4829091 C31.7920417,50.3230699 31.8831115,50.1056175 31.8831115,49.8305455 C31.8831115,49.5554734 31.7901831,49.3584652 31.6043236,49.2395152 C31.4184641,49.1205651 31.1322447,49.0610909 30.7456569,49.0610909 L29.9650509,49.0610909 L29.9650509,50.7226667 L30.7345054,50.7226667 Z M30.8906266,53.7893333 C31.7901867,53.7893333 32.2399599,53.4585084 32.2399599,52.7968485 C32.2399599,52.4771701 32.1284459,52.2448492 31.9054145,52.0998788 C31.6823831,51.9549084 31.3441238,51.8824242 30.8906266,51.8824242 L29.9650509,51.8824242 L29.9650509,53.7893333 L30.8906266,53.7893333 Z M37.4031113,53.0198788 C37.6633146,53.2429102 37.9513926,53.4250498 38.2673537,53.566303 C38.5833149,53.7075563 38.8936957,53.7781818 39.1985053,53.7781818 C39.5404868,53.7781818 39.7951105,53.7149905 39.962384,53.5886061 C40.1296576,53.4622216 40.2132931,53.2912334 40.2132931,53.0756364 C40.2132931,52.9641207 40.1891318,52.8674752 40.1408083,52.785697 C40.0924848,52.7039188 40.0218593,52.6314347 39.9289295,52.5682424 C39.8359997,52.5050502 39.7244857,52.445576 39.594384,52.3898182 C39.4642824,52.3340603 39.3211727,52.2727276 39.1650507,52.2058182 L38.2171719,51.8043636 C38.0313124,51.7300198 37.8510314,51.6333743 37.6763234,51.5144242 C37.5016155,51.3954742 37.3454958,51.2560816 37.2079598,51.0962424 C37.0704238,50.9364032 36.9607683,50.7505465 36.8789901,50.5386667 C36.7972119,50.3267868 36.7563234,50.0870316 36.7563234,49.8193939 C36.7563234,49.5220187 36.8195147,49.2413751 36.9458992,48.9774545 C37.0722837,48.713534 37.2507061,48.4830717 37.4811719,48.2860606 C37.7116377,48.0890495 37.9848471,47.9347884 38.3008083,47.8232727 C38.6167695,47.711757 38.9643215,47.656 39.343475,47.656 C39.7672347,47.656 40.1854123,47.737777 40.5980204,47.9013333 C41.0106285,48.0648897 41.3730492,48.3027863 41.6852931,48.6150303 L40.8489295,49.6521212 C40.6110293,49.4662617 40.3731327,49.323152 40.1352325,49.2227879 C39.8973324,49.1224237 39.6334158,49.0722424 39.343475,49.0722424 C39.0609685,49.0722424 38.8360819,49.129858 38.6688083,49.2450909 C38.5015347,49.3603238 38.4178992,49.5220192 38.4178992,49.7301818 C38.4178992,49.8416975 38.4457777,49.9364845 38.5015356,50.0145455 C38.5572934,50.0926065 38.6353532,50.163232 38.7357174,50.2264242 C38.8360815,50.2896165 38.9531713,50.3490906 39.0869901,50.4048485 C39.220809,50.4606063 39.3657772,50.5219391 39.5218992,50.5888485 L40.4586265,50.968 C40.9046893,51.1464251 41.2559585,51.391756 41.5124447,51.704 C41.7689308,52.016244 41.8971719,52.4288459 41.8971719,52.9418182 C41.8971719,53.2466278 41.8358392,53.5347057 41.7131719,53.8060606 C41.5905046,54.0774155 41.4120822,54.3153121 41.1778992,54.5197576 C40.9437162,54.724203 40.6556383,54.887757 40.3136568,55.0104242 C39.9716753,55.1330915 39.5850933,55.1944242 39.1538992,55.1944242 C38.6780988,55.1944242 38.2041642,55.1070716 37.732081,54.9323636 C37.2599978,54.7576557 36.8381031,54.4955977 36.466384,54.1461818 L37.4031113,53.0198788 Z M44.8523233,51.4698182 C44.8523233,50.8676334 44.9452517,50.3305074 45.1311112,49.8584242 C45.3169707,49.3863411 45.5678773,48.9867491 45.8838385,48.6596364 C46.1997996,48.3325236 46.5677959,48.0834756 46.9878385,47.9124848 C47.407881,47.7414941 47.8520785,47.656 48.3204445,47.656 C48.7739417,47.656 49.1846851,47.7507869 49.5526869,47.9403636 C49.9206888,48.1299403 50.2273524,48.3511098 50.4726869,48.6038788 L49.5694142,49.6186667 C49.3835547,49.4476759 49.1958394,49.3138591 49.0062627,49.2172121 C48.816686,49.1205652 48.5955165,49.0722424 48.3427475,49.0722424 C48.0899786,49.0722424 47.8539406,49.1261409 47.6346263,49.2339394 C47.4153121,49.3417379 47.2238797,49.495999 47.0603233,49.6967273 C46.8967669,49.8974555 46.7685258,50.1427864 46.675596,50.4327273 C46.5826663,50.7226681 46.5362021,51.049776 46.5362021,51.4140606 C46.5362021,52.164933 46.6960389,52.7466646 47.0157172,53.1592727 C47.3353956,53.5718809 47.7628661,53.7781818 48.2981415,53.7781818 C48.5955167,53.7781818 48.8557161,53.7187077 49.0787475,53.5997576 C49.301779,53.4808075 49.5025042,53.3246878 49.6809294,53.1313939 L50.5842021,54.1238788 C50.2793925,54.4807291 49.9318404,54.7483627 49.5415354,54.9267879 C49.1512304,55.105213 48.7293357,55.1944242 48.2758385,55.1944242 C47.8074725,55.1944242 47.3651335,55.1145058 46.9488081,54.9546667 C46.5324828,54.7948275 46.1682037,54.5587894 45.8559597,54.2465455 C45.5437157,53.9343015 45.2983848,53.5458609 45.1199597,53.0812121 C44.9415345,52.6165633 44.8523233,52.0794374 44.8523233,51.4698182 L44.8523233,51.4698182 Z M55.390505,51.1352727 L56.2380201,51.1352727 C56.6692142,51.1352727 56.9981806,51.0442029 57.2249292,50.8620606 C57.4516778,50.6799183 57.5650504,50.410426 57.5650504,50.0535758 C57.5650504,49.6967255 57.4516778,49.4476775 57.2249292,49.3064242 C56.9981806,49.165171 56.6692142,49.0945455 56.2380201,49.0945455 L55.390505,49.0945455 L55.390505,51.1352727 Z M57.6877171,55.0606061 L56.2937777,52.44 L55.390505,52.44 L55.390505,55.0606061 L53.7512323,55.0606061 L53.7512323,47.7898182 L56.3718383,47.7898182 C56.7584261,47.7898182 57.1208467,47.8269895 57.459111,47.9013333 C57.7973754,47.9756771 58.0928876,48.1002011 58.3456565,48.2749091 C58.5984254,48.449617 58.7991507,48.6819379 58.9478383,48.9718788 C59.0965259,49.2618196 59.1708686,49.6223817 59.1708686,50.0535758 C59.1708686,50.5888512 59.0537789,51.0293316 58.8195959,51.3750303 C58.5854129,51.720729 58.271315,51.9790699 57.8772929,52.1500606 L59.5277171,55.0606061 L57.6877171,55.0606061 Z M62.6835957,47.7898182 L64.3228685,47.7898182 L64.3228685,55.0606061 L62.6835957,55.0606061 L62.6835957,47.7898182 Z M68.103232,47.7898182 L70.5900199,47.7898182 C70.9691733,47.7898182 71.3204425,47.8176967 71.643838,47.8734545 C71.9672336,47.9292124 72.2497358,48.0277165 72.4913532,48.1689697 C72.7329706,48.3102229 72.9225444,48.4960797 73.0600805,48.7265455 C73.1976165,48.9570113 73.2663835,49.2469477 73.2663835,49.5963636 C73.2663835,49.75992 73.2422221,49.9234739 73.1938986,50.0870303 C73.1455752,50.2505867 73.073091,50.4029892 72.9764441,50.5442424 C72.8797971,50.6854957 72.7534146,50.8118782 72.5972926,50.9233939 C72.4411706,51.0349096 72.259031,51.1166866 72.0508683,51.1687273 L72.0508683,51.2133333 C72.571275,51.3099803 72.9634327,51.495837 73.2273532,51.7709091 C73.4912737,52.0459812 73.623232,52.428846 73.623232,52.9195152 C73.623232,53.2912342 73.5507478,53.6109078 73.4057774,53.8785455 C73.260807,54.1461832 73.0600817,54.3673527 72.8035956,54.5420606 C72.5471095,54.7167686 72.2478801,54.8468683 71.9058986,54.9323636 C71.5639171,55.017859 71.1959208,55.0606061 70.8018986,55.0606061 L68.103232,55.0606061 L68.103232,47.7898182 Z M70.5119592,50.7226667 C70.9134158,50.7226667 71.2052109,50.6427483 71.3873532,50.4829091 C71.5694955,50.3230699 71.6605653,50.1056175 71.6605653,49.8305455 C71.6605653,49.5554734 71.5676369,49.3584652 71.3817774,49.2395152 C71.1959179,49.1205651 70.9096986,49.0610909 70.5231108,49.0610909 L69.7425047,49.0610909 L69.7425047,50.7226667 L70.5119592,50.7226667 Z M70.6680805,53.7893333 C71.5676405,53.7893333 72.0174138,53.4585084 72.0174138,52.7968485 C72.0174138,52.4771701 71.9058998,52.2448492 71.6828683,52.0998788 C71.4598369,51.9549084 71.1215777,51.8824242 70.6680805,51.8824242 L69.7425047,51.8824242 L69.7425047,53.7893333 L70.6680805,53.7893333 Z M76.9129288,47.7898182 L81.462747,47.7898182 L81.462747,49.1726061 L78.5522015,49.1726061 L78.5522015,50.6334545 L81.0278379,50.6334545 L81.0278379,52.0050909 L78.5522015,52.0050909 L78.5522015,53.6778182 L81.5742621,53.6778182 L81.5742621,55.0606061 L76.9129288,55.0606061 L76.9129288,47.7898182 Z M22.6817175,64.4278788 L20.186566,64.4278788 L20.186566,62.6993939 L27.2398993,62.6993939 L27.2398993,64.4278788 L24.7447478,64.4278788 L24.7447478,71.7878788 L22.6817175,71.7878788 L22.6817175,64.4278788 Z M34.7160608,71.9551515 C34.1027244,71.9551515 33.542831,71.8459607 33.0363638,71.6275758 C32.5298967,71.4091908 32.0954566,71.0955576 31.7330305,70.6866667 C31.3706044,70.2777757 31.0894961,69.780609 30.8896972,69.1951515 C30.6898982,68.609694 30.5900002,67.9452562 30.5900002,67.2018182 C30.5900002,66.4583801 30.6898982,65.7962655 30.8896972,65.2154545 C31.0894961,64.6346436 31.3706044,64.1467697 31.7330305,63.7518182 C32.0954566,63.3568667 32.5298967,63.0548495 33.0363638,62.8457576 C33.542831,62.6366656 34.1027244,62.5321212 34.7160608,62.5321212 C35.3293972,62.5321212 35.8892906,62.6366656 36.3957578,62.8457576 C36.902225,63.0548495 37.3366651,63.3591899 37.6990911,63.7587879 C38.0615172,64.1583858 38.3426255,64.648583 38.5424244,65.2293939 C38.7422234,65.8102049 38.8421214,66.4676731 38.8421214,67.2018182 C38.8421214,67.9452562 38.7422234,68.609694 38.5424244,69.1951515 C38.3426255,69.780609 38.0615172,70.2777757 37.6990911,70.6866667 C37.3366651,71.0955576 36.902225,71.4091908 36.3957578,71.6275758 C35.8892906,71.8459607 35.3293972,71.9551515 34.7160608,71.9551515 L34.7160608,71.9551515 Z M34.7160608,70.1848485 C35.3386902,70.1848485 35.8312105,69.9176794 36.1936366,69.3833333 C36.5560626,68.8489872 36.7372729,68.1218228 36.7372729,67.2018182 C36.7372729,66.2911066 36.5560626,65.5802046 36.1936366,65.0690909 C35.8312105,64.5579772 35.3386902,64.3024242 34.7160608,64.3024242 C34.0934314,64.3024242 33.6009111,64.5579772 33.238485,65.0690909 C32.876059,65.5802046 32.6948487,66.2911066 32.6948487,67.2018182 C32.6948487,68.1218228 32.876059,68.8489872 33.238485,69.3833333 C33.6009111,69.9176794 34.0934314,70.1848485 34.7160608,70.1848485 L34.7160608,70.1848485 Z M43.3073738,62.6993939 L45.8722223,62.6993939 C46.5691955,62.6993939 47.1964619,62.7876759 47.7540405,62.9642424 C48.311619,63.140809 48.7902001,63.4126244 49.189798,63.779697 C49.589396,64.1467695 49.8960596,64.6137345 50.109798,65.1806061 C50.3235365,65.7474776 50.4304041,66.4212082 50.4304041,67.2018182 C50.4304041,67.9824281 50.3235365,68.6608052 50.109798,69.2369697 C49.8960596,69.8131342 49.5940424,70.2893921 49.2037374,70.6657576 C48.8134325,71.0421231 48.3464674,71.3232314 47.8028283,71.5090909 C47.2591893,71.6949504 46.6528317,71.7878788 45.9837374,71.7878788 L43.3073738,71.7878788 L43.3073738,62.6993939 Z M45.7467677,70.1290909 C46.1370727,70.1290909 46.4902005,70.0779803 46.8061617,69.9757576 C47.1221229,69.8735348 47.3916151,69.708587 47.6146465,69.4809091 C47.8376779,69.2532312 48.0119186,68.9535372 48.1373738,68.5818182 C48.262829,68.2100992 48.3255556,67.7501038 48.3255556,67.2018182 C48.3255556,66.6628256 48.262829,66.2097998 48.1373738,65.8427273 C48.0119186,65.4756547 47.8376779,65.1829304 47.6146465,64.9645455 C47.3916151,64.7461605 47.1221229,64.5905055 46.8061617,64.4975758 C46.4902005,64.404646 46.1370727,64.3581818 45.7467677,64.3581818 L45.3564647,64.3581818 L45.3564647,70.1290909 L45.7467677,70.1290909 Z M58.6174747,68.0242424 L58.4083838,67.1878788 C58.2782821,66.732523 58.1528288,66.2492955 58.0320201,65.7381818 C57.9112115,65.2270682 57.7904046,64.7345478 57.6695959,64.2606061 L57.6138383,64.2606061 C57.5023226,64.7438408 57.3884854,65.2386843 57.2723232,65.7451515 C57.156161,66.2516187 57.0330309,66.732523 56.9029292,67.1878788 L56.6798989,68.0242424 L58.6174747,68.0242424 Z M59.0356565,69.6272727 L56.2617171,69.6272727 L55.7041413,71.7878788 L53.6132323,71.7878788 L56.4568686,62.6993939 L58.9241413,62.6993939 L61.7677777,71.7878788 L59.5932323,71.7878788 L59.0356565,69.6272727 Z M66.8184847,68.5539394 L64.072424,62.6993939 L66.2748483,62.6993939 L67.0833331,64.790303 C67.2134348,65.1341431 67.3365649,65.466362 67.4527271,65.7869697 C67.5688893,66.1075774 67.6920194,66.4444427 67.822121,66.7975758 L67.8778786,66.7975758 C68.0079803,66.4444427 68.1357568,66.1075774 68.2612119,65.7869697 C68.3866671,65.466362 68.5144436,65.1341431 68.6445453,64.790303 L69.4669695,62.6993939 L71.6136362,62.6993939 L68.8675756,68.5539394 L68.8675756,71.7878788 L66.8184847,71.7878788 L66.8184847,68.5539394 Z" id="text" fill="#FFFFFF"></path>
                <path d="M56.6151275,29.6714474 L55.7867277,32.999463 C55.5416456,33.6615174 55.0481545,34.1760789 54.3971897,34.4511032 C53.9225511,34.6507176 53.4146433,34.6961853 52.9233701,34.5974871 C54.0201403,32.7898678 54.8197069,29.8311389 55.1446348,26.370047 C55.7601125,26.5996036 56.2558216,27.0420822 56.5419356,27.6375984 C56.8424661,28.2619479 56.8735172,28.9628163 56.6151275,29.6714474 M51.6347483,32.8231369 L53.069754,26.9833068 C53.211702,26.5164309 53.6120398,26.1981568 54.0578453,26.1294008 C53.8072183,28.8940602 53.1318563,32.1832619 51.9153174,34.102887 C51.6114599,33.7724143 51.4916913,33.2955576 51.6347483,32.8231369 M37.7327145,34.5974871 C37.2414413,34.6961853 36.7335335,34.6507176 36.2588948,34.4511032 C35.6079301,34.1760789 35.1144389,33.6615174 34.8682479,32.999463 L34.0221046,30.7216409 C33.7249009,29.9187474 33.8535413,28.6567408 34.3359428,27.652015 C34.6475631,27.0032682 35.0623174,26.5607897 35.5092319,26.3755919 C35.8319418,29.8200492 36.6337263,32.785432 37.7327145,34.5974871 M37.5774588,26.9544736 L39.0290991,32.8519701 C39.1666112,33.3055384 39.0446246,33.780177 38.7429851,34.1062139 C37.5209014,32.178826 36.8433214,28.8718808 36.5960214,26.1305097 C37.0484807,26.1970479 37.4432736,26.513104 37.5774588,26.9544736 M57.5411165,27.156306 C57.1097276,26.2591501 56.3511929,25.5904419 55.4052425,25.2777127 L55.1956473,25.2100656 C54.9805074,19.9457903 50.6433301,15.7272727 45.3280423,15.7272727 C40.0249531,15.7272727 35.6966476,19.9247199 35.4626552,25.2078476 L35.2508421,25.2777127 C34.4812177,25.5338845 33.8003108,26.2059196 33.3367618,27.1718315 C32.724611,28.4460368 32.582663,30.0274264 32.9830008,31.1075621 L33.829144,33.3853841 C34.1817961,34.3368794 34.8926452,35.0787796 35.8286149,35.4724635 C36.2844011,35.6643152 36.7634757,35.7607955 37.2403323,35.7607955 C37.7415862,35.7607955 38.2428401,35.6554434 38.7174788,35.4436304 L38.818395,35.3992716 C38.8250488,35.3959447 38.8461192,35.385964 38.852773,35.3826371 C39.9118383,34.8603127 40.4330537,33.6604084 40.0970361,32.5592023 L38.6465048,26.6605969 C38.3637178,25.7268451 37.536427,25.1024956 36.5771689,25.0348485 C36.8788084,20.4647878 40.6825717,16.8362416 45.3280423,16.8362416 C49.9812757,16.8362416 53.7894748,20.4780954 54.0811336,25.0237588 C53.1385101,25.08697 52.2945848,25.7201913 52.000708,26.690539 L50.5657023,32.5292602 C50.2230309,33.6604084 50.7442463,34.8603127 51.8166192,35.3892909 L51.8310358,35.3959447 C51.8332537,35.3970537 51.9352788,35.4425214 51.9374968,35.4436304 C52.4121355,35.6554434 52.9144984,35.7607955 53.4157523,35.7607955 C53.8926089,35.7607955 54.3716835,35.6643152 54.8274697,35.4724635 C55.7634394,35.0787796 56.4731795,34.3368794 56.8446841,33.3266088 L57.6730838,29.9985932 C58.0201911,29.0648414 57.9736144,28.0556797 57.5411165,27.156306" id="headphones" fill="#FFFFFF"></path>
            </g>
        </g>
    </g>
</svg>