<svg width="92" height="92" viewBox="0 0 92 92" xmlns="http://www.w3.org/2000/svg"><title>blue/b-subscribe-blue-lg-blue</title><g fill="none" fill-rule="evenodd"><circle fill="#1055FF" cx="46" cy="46" r="46"/><path d="M11.052 53.02c.26.223.548.405.864.546.316.142.627.212.931.212.342 0 .597-.063.764-.19a.61.61 0 0 0 .251-.512.56.56 0 0 0-.072-.29.691.691 0 0 0-.212-.218 1.99 1.99 0 0 0-.335-.178l-.429-.184-.948-.402a2.823 2.823 0 0 1-.54-.29 2.389 2.389 0 0 1-.47-.418 1.89 1.89 0 0 1-.45-1.277c0-.297.062-.578.189-.842a2.09 2.09 0 0 1 .535-.69c.23-.198.504-.352.82-.464a3.114 3.114 0 0 1 1.042-.167c.424 0 .842.082 1.255.245.413.164.775.402 1.087.714l-.836 1.037a3.165 3.165 0 0 0-.714-.43c-.238-.1-.502-.15-.792-.15-.282 0-.507.058-.674.173a.556.556 0 0 0-.251.485c0 .112.028.206.084.285a.817.817 0 0 0 .234.211c.1.064.217.123.351.179l.435.184.937.379c.446.178.797.424 1.053.736.257.312.385.725.385 1.238a2.074 2.074 0 0 1-.72 1.578 2.667 2.667 0 0 1-.863.49 3.42 3.42 0 0 1-1.16.184 4.07 4.07 0 0 1-1.422-.262 3.713 3.713 0 0 1-1.266-.786l.937-1.126zm7.75-5.23h1.65v4.07c0 .714.109 1.212.324 1.494.216.283.528.424.937.424.409 0 .725-.141.948-.424.223-.282.334-.78.334-1.494v-4.07h1.584v3.903c0 1.22-.244 2.107-.73 2.665-.488.558-1.2.836-2.136.836-.944 0-1.665-.278-2.163-.836-.499-.558-.748-1.446-.748-2.665V47.79zm9.524 0h2.487c.379 0 .73.028 1.053.083.324.056.606.155.848.296s.431.327.569.558c.137.23.206.52.206.87 0 .163-.024.326-.073.49a1.53 1.53 0 0 1-.597.836 1.595 1.595 0 0 1-.546.246v.044c.52.097.913.283 1.177.558.264.275.396.658.396 1.149 0 .371-.073.69-.218.959a1.872 1.872 0 0 1-.602.663 2.775 2.775 0 0 1-.898.39c-.342.086-.71.129-1.104.129h-2.698V47.79zm2.409 2.933c.401 0 .693-.08.875-.24.182-.16.273-.377.273-.652 0-.276-.093-.473-.279-.591-.186-.12-.472-.179-.858-.179h-.78v1.662h.769zm.156 3.066c.9 0 1.349-.33 1.349-.992 0-.32-.112-.552-.335-.697-.223-.145-.56-.218-1.014-.218h-.926v1.907h.926zm6.512-.77c.26.224.548.406.864.547.316.142.627.212.932.212.341 0 .596-.063.763-.19a.61.61 0 0 0 .251-.512.56.56 0 0 0-.072-.29.691.691 0 0 0-.212-.218 1.99 1.99 0 0 0-.335-.178l-.429-.184-.948-.402a2.823 2.823 0 0 1-.54-.29 2.389 2.389 0 0 1-.469-.418 1.89 1.89 0 0 1-.452-1.277c0-.297.064-.578.19-.842a2.09 2.09 0 0 1 .535-.69c.23-.198.504-.352.82-.464a3.114 3.114 0 0 1 1.042-.167c.424 0 .842.082 1.255.245.413.164.775.402 1.087.714l-.836 1.037a3.165 3.165 0 0 0-.714-.43c-.238-.1-.502-.15-.792-.15-.282 0-.507.058-.674.173a.556.556 0 0 0-.251.485c0 .112.028.206.084.285a.817.817 0 0 0 .234.211c.1.064.217.123.351.179l.435.184.937.379c.446.178.797.424 1.053.736.257.312.385.725.385 1.238a2.074 2.074 0 0 1-.72 1.578 2.667 2.667 0 0 1-.863.49 3.42 3.42 0 0 1-1.16.184 4.07 4.07 0 0 1-1.422-.262 3.713 3.713 0 0 1-1.266-.786l.937-1.126zm7.45-1.55c0-.601.092-1.138.278-1.61.186-.473.437-.872.753-1.2a3.192 3.192 0 0 1 1.104-.747 3.5 3.5 0 0 1 1.332-.256c.454 0 .865.095 1.233.284.368.19.674.411.92.664l-.904 1.015a2.55 2.55 0 0 0-.563-.402 1.442 1.442 0 0 0-.663-.145c-.253 0-.49.054-.708.162-.22.108-.411.262-.575.463-.163.2-.291.446-.384.736-.093.29-.14.617-.14.981 0 .75.16 1.333.48 1.745.32.413.747.62 1.282.62.298 0 .558-.06.78-.18a2.27 2.27 0 0 0 .603-.468l.903.993a3.018 3.018 0 0 1-1.042.803c-.39.178-.813.267-1.266.267-.469 0-.91-.08-1.327-.24a3.098 3.098 0 0 1-1.093-.707 3.289 3.289 0 0 1-.736-1.166c-.178-.464-.268-1.002-.268-1.611zm10.538-.334h.847c.431 0 .76-.09.987-.273.227-.182.34-.452.34-.808 0-.357-.113-.606-.34-.748-.227-.14-.556-.211-.987-.211h-.847v2.04zm2.297 3.926l-1.394-2.621h-.903v2.62h-1.64v-7.27h2.62c.387 0 .75.037 1.088.111.338.075.634.2.887.374.252.175.453.407.602.697.149.29.223.65.223 1.082 0 .535-.117.975-.351 1.321a2.143 2.143 0 0 1-.943.775l1.65 2.91h-1.84zm4.996-7.271h1.639v7.27h-1.64v-7.27zm5.42 0h2.486c.38 0 .73.028 1.054.083.323.056.606.155.847.296.242.141.432.327.57.558.137.23.205.52.205.87 0 .163-.024.326-.072.49a1.53 1.53 0 0 1-.597.836 1.595 1.595 0 0 1-.546.246v.044c.52.097.912.283 1.176.558.264.275.396.658.396 1.149 0 .371-.072.69-.217.959a1.872 1.872 0 0 1-.602.663 2.775 2.775 0 0 1-.898.39c-.342.086-.71.129-1.104.129h-2.699V47.79zm2.408 2.933c.401 0 .693-.08.875-.24.182-.16.274-.377.274-.652 0-.276-.093-.473-.28-.591-.185-.12-.471-.179-.858-.179h-.78v1.662h.769zm.156 3.066c.9 0 1.35-.33 1.35-.992 0-.32-.112-.552-.335-.697-.223-.145-.561-.218-1.015-.218h-.925v1.907h.925zm6.245-6h4.55v1.384h-2.91v1.46h2.475v1.372h-2.476v1.673h3.022v1.383h-4.661V47.79zM22.682 64.429h-2.495v-1.729h7.053v1.729h-2.495v7.36h-2.063v-7.36zm12.034 7.527c-.613 0-1.173-.109-1.68-.327a3.652 3.652 0 0 1-1.303-.941 4.322 4.322 0 0 1-.843-1.492c-.2-.585-.3-1.25-.3-1.993 0-.744.1-1.406.3-1.987.2-.58.48-1.068.843-1.463a3.62 3.62 0 0 1 1.303-.906 4.361 4.361 0 0 1 1.68-.314c.613 0 1.173.105 1.68.314.506.209.94.513 1.303.913s.644.89.843 1.47c.2.581.3 1.239.3 1.973 0 .743-.1 1.408-.3 1.993-.2.586-.48 1.083-.843 1.492a3.652 3.652 0 0 1-1.303.94 4.199 4.199 0 0 1-1.68.328zm0-1.77c.623 0 1.115-.267 1.478-.802.362-.534.543-1.261.543-2.181 0-.91-.18-1.622-.543-2.133-.363-.511-.855-.767-1.478-.767s-1.115.256-1.478.767c-.362.511-.543 1.222-.543 2.133 0 .92.181 1.647.543 2.181.363.535.855.802 1.478.802zm8.591-7.486h2.565c.697 0 1.324.089 1.882.265a3.774 3.774 0 0 1 1.436.816c.4.367.706.834.92 1.4.214.567.32 1.241.32 2.022 0 .78-.106 1.459-.32 2.035-.214.576-.516 1.052-.906 1.429-.39.376-.858.657-1.401.843a5.599 5.599 0 0 1-1.82.279h-2.676v-9.089zm2.44 7.43c.39 0 .743-.051 1.06-.153.315-.102.585-.267.808-.495.223-.228.397-.527.522-.9.126-.37.189-.83.189-1.38 0-.538-.063-.991-.189-1.358-.125-.367-.3-.66-.522-.878a1.902 1.902 0 0 0-.809-.467 3.75 3.75 0 0 0-1.06-.14h-.39v5.771h.39zm12.87-2.105l-.209-.836c-.13-.455-.255-.939-.376-1.45a87.1 87.1 0 0 0-.362-1.477h-.056l-.342 1.484c-.116.507-.239.988-.37 1.443l-.222.836h1.937zm.419 1.603h-2.774l-.558 2.16h-2.09l2.843-9.088h2.467l2.844 9.089h-2.175l-.557-2.16zm7.782-1.073l-2.746-5.855h2.203l.808 2.091c.13.344.254.676.37.997.116.32.239.657.37 1.01h.055c.13-.353.258-.69.383-1.01.126-.32.253-.653.384-.997l.822-2.09h2.147l-2.746 5.854v3.234h-2.05v-3.234zM56.615 29.671L55.787 33a2.505 2.505 0 0 1-1.39 1.452c-.474.2-.982.245-1.474.146 1.097-1.807 1.897-4.766 2.222-8.227.615.23 1.11.672 1.397 1.268.3.624.332 1.325.073 2.033m-4.98 3.152l1.435-5.84a1.23 1.23 0 0 1 .988-.854c-.25 2.765-.926 6.054-2.143 7.974a1.312 1.312 0 0 1-.28-1.28m-13.902 1.774c-.492.1-1 .054-1.474-.146A2.51 2.51 0 0 1 34.869 33l-.847-2.277c-.297-.803-.168-2.065.314-3.07.312-.649.726-1.091 1.173-1.276.323 3.444 1.125 6.41 2.224 8.221m-.156-7.643l1.452 5.898c.138.454.016.928-.286 1.254-1.222-1.927-1.9-5.234-2.147-7.975.452.066.847.382.981.823m19.964.202a3.61 3.61 0 0 0-2.136-1.878l-.21-.068c-.214-5.264-4.552-9.483-9.867-9.483-5.303 0-9.631 4.198-9.865 9.48l-.212.07c-.77.257-1.45.929-1.914 1.895-.612 1.274-.754 2.855-.354 3.936l.846 2.277a3.601 3.601 0 0 0 2 2.087c.455.192.934.289 1.411.289.502 0 1.003-.106 1.477-.317l.101-.045.035-.016c1.059-.523 1.58-1.723 1.244-2.824l-1.45-5.898c-.283-.934-1.11-1.559-2.07-1.626.302-4.57 4.106-8.199 8.751-8.199 4.653 0 8.461 3.642 8.753 8.188a2.335 2.335 0 0 0-2.08 1.667l-1.435 5.838a2.4 2.4 0 0 0 1.25 2.86l.015.007.106.048c.475.211.977.317 1.479.317.477 0 .956-.097 1.411-.289.936-.393 1.646-1.135 2.018-2.145l.828-3.328c.347-.934.3-1.943-.132-2.843" fill="#FFF"/></g></svg>