<svg width="72" height="64" viewBox="0 0 72 64" xmlns="http://www.w3.org/2000/svg"><title>dark gray/icon-large-cli-prompt-dark-gray</title><path d="M0 3.555A3.55 3.55 0 0 1 3.55 0h64.01a3.547 3.547 0 0 1 3.551 3.555v56.89A3.55 3.55 0 0 1 67.561 64H3.55A3.547 3.547 0 0 1 0 60.445V3.555zm1.778 5.327a1.78 1.78 0 0 1 1.772-1.77h64.011c.979 0 1.772.778 1.772 1.77v51.569a1.78 1.78 0 0 1-1.772 1.771H3.55c-.979 0-1.772-.779-1.772-1.771V8.882zm30.637 23.972c0-2.426-20.236-14.719-20.236-14.719-.835-.513-1.512-.126-1.512.847v4.824c0 .981.68 2.21 1.494 2.727l8.445 5.37c.825.526.83 1.39 0 1.938l-8.445 5.57c-.825.544-1.494 1.79-1.494 2.762v4.824c0 .981.674 1.355 1.495.839 0 0 20.253-12.555 20.253-14.982zm1.63 18.266c-.98 0-1.774.802-1.774 1.762v2.245c0 .973.784 1.762 1.774 1.762h28.181c.98 0 1.774-.802 1.774-1.762v-2.245c0-.973-.784-1.762-1.774-1.762H34.045z" fill="#242F36" fill-rule="evenodd"/></svg>