<?xml version="1.0" encoding="UTF-8" standalone="no"?>
<svg width="33px" height="32px" viewBox="0 0 33 32" version="1.1" xmlns="http://www.w3.org/2000/svg" xmlns:xlink="http://www.w3.org/1999/xlink">
    <!-- Generator: Sketch 3.8.3 (29802) - http://www.bohemiancoding.com/sketch -->
    <title>blue/icon-ui-linkedin-blue</title>
    <desc>Created with Sketch.</desc>
    <defs></defs>
    <g id="blue,-base" stroke="none" stroke-width="1" fill="none" fill-rule="evenodd">
        <g id="icons,-utility-(blue)" transform="translate(-408.000000, -1183.000000)" fill="#1055FF">
            <g id="blue/icon-ui-linkedin-blue" transform="translate(408.800000, 1183.000000)">
                <g id="icon-linkedin">
                    <g id="Page-1">
                        <g id="Press-2016_04_29-kg-v1">
                            <g id="body">
                                <g id="Column">
                                    <path d="M0,6.018956 C0,2.694778 2.6732622,0 6.0189552,0 L25.9810448,0 C29.305222,0 32,2.673262 32,6.018956 L32,25.981044 C32,29.305222 29.3267378,32 25.9810448,32 L6.0189552,32 C2.694778,32 0,29.326738 0,25.981044 L0,6.018956 L0,6.018956 Z M26.0796874,18.928806 L26.0796874,26.204512 L21.8616932,26.204512 L21.8616932,19.41609 C21.8616932,17.710782 21.2516058,16.546976 19.7248318,16.546976 C18.5593334,16.546976 17.8657444,17.331296 17.5606092,18.089994 C17.4493348,18.361224 17.4206928,18.738744 17.4206928,19.118412 L17.4206928,26.204512 L13.20128,26.204512 C13.20128,26.204512 13.2581068,14.707152 13.20128,13.51594 L17.420281,13.51594 L17.420281,15.314494 C17.4117248,15.327946 17.4006066,15.34245 17.3925538,15.35549 L17.420281,15.35549 L17.420281,15.314494 C17.9808164,14.451156 18.981874,13.21785 21.222552,13.21785 C23.9986004,13.217804 26.0796874,15.031366 26.0796874,18.928806 L26.0796874,18.928806 Z M8.7875948,7.399418 C7.3441392,7.399418 6.4,8.346212 6.4,9.591276 C6.4,10.809208 7.316824,11.784736 8.7315916,11.784736 L8.7597762,11.784736 C10.2311876,11.784736 11.146273,10.809392 11.146273,9.591276 C11.118546,8.346212 10.2311876,7.399418 8.7875948,7.399418 L8.7875948,7.399418 Z M6.6505962,26.204512 L10.8684074,26.204512 L10.8684074,13.51594 L6.6505962,13.51594 L6.6505962,26.204512 L6.6505962,26.204512 Z" id="icon-linkedin"></path>
                                </g>
                            </g>
                        </g>
                    </g>
                </g>
            </g>
        </g>
    </g>
</svg>