<?xml version="1.0" encoding="UTF-8" standalone="no"?>
<svg width="54px" height="57px" viewBox="0 0 54 57" version="1.1" xmlns="http://www.w3.org/2000/svg" xmlns:xlink="http://www.w3.org/1999/xlink">
    <!-- Generator: Sketch 3.8.3 (29802) - http://www.bohemiancoding.com/sketch -->
    <title>dark gray/icon-branding-catalyze-dark-gray</title>
    <desc>Created with Sketch.</desc>
    <defs></defs>
    <g id="gray" stroke="none" stroke-width="1" fill="none" fill-rule="evenodd">
        <g id="icons,-branding-&amp;-other-(gray)" transform="translate(-82.000000, -665.000000)" fill="#242F36">
            <g id="dark-gray/icon-branding-catalyze-dark-gray" transform="translate(80.000000, 662.000000)">
                <g id="catalyze-icon">
                    <g id="Page-2">
                        <g id="catalyze-icon">
                            <path d="M28.7359832,2.942382 C28.9396115,2.8245512 29.2693313,2.82430415 29.4733866,2.942382 L36.8862495,7.23188088 C37.0898778,7.3497117 37.2549512,7.63577984 37.2549512,7.8719355 L37.2549512,16.4509333 C37.2549512,16.6865949 37.0903047,16.9729101 36.8862495,17.0909879 L29.4733866,21.3804868 C29.2697583,21.4983176 28.9400384,21.4985647 28.7359832,21.3804868 L21.3231203,17.0909879 C21.1194919,16.9731572 20.9544185,16.687089 20.9544185,16.4509333 L20.9544185,7.8719355 C20.9544185,7.63627394 21.1190649,7.34995875 21.3231203,7.23188088 L28.7359832,2.942382 L28.7359832,2.942382 Z" id="hexagon-7" transform="translate(29.104685, 12.161434) rotate(30.000000) translate(-29.104685, -12.161434) "></path>
                            <path d="M11.3960305,13.1671224 C11.5996589,13.0492916 11.9293787,13.0490445 12.133434,13.1671224 L19.5462969,17.4566213 C19.7499252,17.5744521 19.9149986,17.8605202 19.9149986,18.0966759 L19.9149986,26.6756737 C19.9149986,26.9113353 19.7503522,27.1976505 19.5462969,27.3157283 L12.133434,31.6052272 C11.9298056,31.723058 11.6000858,31.7233051 11.3960305,31.6052272 L3.98316766,27.3157283 C3.77953933,27.1978975 3.61446594,26.9118294 3.61446594,26.6756737 L3.61446594,18.0966759 C3.61446594,17.8610143 3.77911238,17.5746991 3.98316766,17.4566213 L11.3960305,13.1671224 L11.3960305,13.1671224 Z" id="hexagon-6" transform="translate(11.764732, 22.386175) rotate(30.000000) translate(-11.764732, -22.386175) "></path>
                            <path d="M11.3960305,32.9140702 C11.5996589,32.7962394 11.9293787,32.7959924 12.133434,32.9140702 L19.5462969,37.2035692 C19.7499252,37.3213999 19.9149986,37.607468 19.9149986,37.8436237 L19.9149986,46.4226215 C19.9149986,46.6582831 19.7503522,46.9445983 19.5462969,47.0626762 L12.133434,51.352175 C11.9298056,51.4700058 11.6000858,51.4702529 11.3960305,51.352175 L3.98316766,47.0626762 C3.77953933,46.9448454 3.61446594,46.6587772 3.61446594,46.4226215 L3.61446594,37.8436237 C3.61446594,37.6079621 3.77911238,37.321647 3.98316766,37.2035692 L11.3960305,32.9140702 L11.3960305,32.9140702 Z" id="hexagon-5" transform="translate(11.764732, 42.133123) rotate(30.000000) translate(-11.764732, -42.133123) "></path>
                            <path d="M45.9607666,13.2447075 C46.164395,13.1268767 46.4941148,13.1266296 46.6981701,13.2447075 L54.1110329,17.5342064 C54.3146613,17.6520372 54.4797347,17.9381053 54.4797347,18.174261 L54.4797347,26.7532588 C54.4797347,26.9889205 54.3150882,27.2752356 54.1110329,27.3933134 L46.6981701,31.6828124 C46.4945417,31.8006431 46.1648219,31.8008902 45.9607666,31.6828124 L38.5479037,27.3933134 C38.3442754,27.2754826 38.179202,26.9894146 38.179202,26.7532588 L38.179202,18.174261 C38.179202,17.9385994 38.3438484,17.6522843 38.5479037,17.5342064 L45.9607666,13.2447075 L45.9607666,13.2447075 Z" id="hexagon-4" transform="translate(46.329468, 22.463760) rotate(30.000000) translate(-46.329468, -22.463760) "></path>
                            <path d="M45.9815085,32.9140702 C46.1851369,32.7962394 46.5148567,32.7959924 46.718912,32.9140702 L54.1317748,37.2035692 C54.3354032,37.3213999 54.5004766,37.607468 54.5004766,37.8436237 L54.5004766,46.4226215 C54.5004766,46.6582831 54.3358302,46.9445983 54.1317748,47.0626762 L46.718912,51.352175 C46.5152836,51.4700058 46.1855638,51.4702529 45.9815085,51.352175 L38.5686457,47.0626762 C38.3650173,46.9448454 38.1999439,46.6587772 38.1999439,46.4226215 L38.1999439,37.8436237 C38.1999439,37.6079621 38.3645904,37.321647 38.5686457,37.2035692 L45.9815085,32.9140702 L45.9815085,32.9140702 Z" id="hexagon-3" transform="translate(46.350210, 42.133123) rotate(30.000000) translate(-46.350210, -42.133123) "></path>
                            <path d="M28.7359832,42.5783421 C28.9396115,42.4605113 29.2693313,42.4602642 29.4733866,42.5783421 L36.8862495,46.8678409 C37.0898778,46.9856717 37.2549512,47.2717399 37.2549512,47.5078955 L37.2549512,56.0868934 C37.2549512,56.322555 37.0903047,56.6088701 36.8862495,56.7269479 L29.4733866,61.0164469 C29.2697583,61.1342777 28.9400384,61.1345247 28.7359832,61.0164469 L21.3231203,56.7269479 C21.1194919,56.6091172 20.9544185,56.3230491 20.9544185,56.0868934 L20.9544185,47.5078955 C20.9544185,47.272234 21.1190649,46.9859188 21.3231203,46.8678409 L28.7359832,42.5783421 L28.7359832,42.5783421 Z" id="hexagon-2" transform="translate(29.104685, 51.797394) rotate(30.000000) translate(-29.104685, -51.797394) "></path>
                            <path d="M28.6651113,22.724846 C28.8687396,22.6070151 29.1984594,22.6067681 29.4025147,22.724846 L36.8153776,27.0143448 C37.0190059,27.1321756 37.1840793,27.4182438 37.1840793,27.6543994 L37.1840793,36.2333973 C37.1840793,36.4690588 37.0194328,36.755374 36.8153776,36.8734518 L29.4025147,41.1629507 C29.1988864,41.2807816 28.8691665,41.2810286 28.6651113,41.1629507 L21.2522484,36.8734518 C21.0486201,36.7556211 20.8835466,36.4695529 20.8835466,36.2333973 L20.8835466,27.6543994 C20.8835466,27.4187379 21.0481931,27.1324227 21.2522484,27.0143448 L28.6651113,22.724846 L28.6651113,22.724846 Z" id="hexagon-1" transform="translate(29.033813, 31.943898) rotate(30.000000) translate(-29.033813, -31.943898) "></path>
                        </g>
                    </g>
                </g>
            </g>
        </g>
    </g>
</svg>