<?xml version="1.0" encoding="UTF-8" standalone="no"?>
<svg width="49px" height="64px" viewBox="0 0 49 64" version="1.1" xmlns="http://www.w3.org/2000/svg" xmlns:xlink="http://www.w3.org/1999/xlink">
    <!-- Generator: Sketch 3.8.3 (29802) - http://www.bohemiancoding.com/sketch -->
    <title>white/icon-large-redpoint-globe-white</title>
    <desc>Created with Sketch.</desc>
    <defs></defs>
    <g id="white" stroke="none" stroke-width="1" fill="none" fill-rule="evenodd">
        <g id="icons,-large-detailed-white" transform="translate(-629.000000, -255.000000)" fill="#FFFFFF">
            <g id="white/icon-large-redpoint-globe-white" transform="translate(629.000000, 255.000000)">
                <g id="Fill-329">
                    <g id="PaaS">
                        <g id="redpoint_v2.3_2015-11-13_Kris">
                            <g id="Features">
                                <g id="2">
                                    <path d="M12.2899197,47.2788736 C10.9355903,47.1113769 6.86560637,43.2064968 5.66920228,41.8665242 C2.81599997,44.8 1.34315743,48.3461268 3.85790743,50.1335242 C6.11905021,52.4329213 11.3615101,49.4324009 12.2899197,47.2788736 L12.2899197,47.2788736 Z M41.6663649,18.5392504 C35.8709834,25.9569559 23.3786501,38.5330071 17.5736973,45.9267845 C24.7760499,48.0563837 35.1125548,46.3073324 39.1037588,41.6652846 C44.7999995,36.6080005 47.0475773,27.7057024 41.6663649,18.5392504 L41.6663649,18.5392504 Z M15.2835056,44.5914148 C22.0503672,36.4319388 33.5307256,24.2747812 39.9195236,15.7324559 C38.4,8.96 20.48,2.56 11.2711319,13.1265964 C1.792,22.016 7.07617349,41.4329078 15.2835056,44.5914148 L15.2835056,44.5914148 Z M36.7757089,7.45794237 C39.467618,8.65434647 40.4032061,10.1378875 41.8604262,11.9564218 C43.2817544,9.06112384 45.3204268,5.37619924 44.1048804,4.03622664 C42.8941194,2.67232596 39.467618,5.06513416 36.7757089,7.45794237 L36.7757089,7.45794237 L36.7757089,7.45794237 Z M43.997204,14.9713601 C49.92,25.6 49.8396905,34.6537969 44.3041183,42.0409408 C40.4918917,47.1283039 33.5413171,50.848139 25.6,50.7700721 L25.6,55.9123082 C34.9811026,56.678007 40.3649211,58.0179794 40.515668,60.2672192 C40.664022,62.4925309 33.4020017,64 24.8788188,64 C16.3532432,64 10.1365752,63.4017979 10.0073635,61.1525583 C9.87575908,58.9033185 17.7575779,56.4147981 23.04,55.6251712 C23.0193631,53.2084349 23.04,53.76 23.04,50.497353 C21.6099382,50.4255685 15.577821,49.714935 14.7092316,48.2792502 C11.3521218,51.724894 5.68674949,54.9140193 1.69468692,51.1817569 C-1.024,48.64 1.63253486,42.0100928 4.36990743,39.0908667 C1.26010313e-13,28.16 0.736932813,18.4018277 8.43246641,10.0969138 C16.128,1.79200001 32,2.56 34.2345464,5.78297661 C37.3093051,3.31838418 41.3507581,-1.75436919 45.7224187,0.614510925 C50.0869007,2.98339103 47.0576056,11.7171409 43.997204,14.9713601 L43.997204,14.9713601 Z" id="Fill-329"></path>
                                </g>
                            </g>
                        </g>
                    </g>
                </g>
            </g>
        </g>
    </g>
</svg>