<?xml version="1.0" encoding="UTF-8" standalone="no"?>
<svg width="77px" height="64px" viewBox="0 0 77 64" version="1.1" xmlns="http://www.w3.org/2000/svg" xmlns:xlink="http://www.w3.org/1999/xlink">
    <!-- Generator: Sketch 3.8.3 (29802) - http://www.bohemiancoding.com/sketch -->
    <title>dark gray/icon-large-baa-dark-gray</title>
    <desc>Created with Sketch.</desc>
    <defs></defs>
    <g id="gray" stroke="none" stroke-width="1" fill="none" fill-rule="evenodd">
        <g id="icons,-large-detailed-(gray)" transform="translate(-794.000000, -737.000000)" fill="#242F36">
            <g id="dark-gray/icon-large-baa-dark-gray" transform="translate(794.000000, 737.000000)">
                <path d="M0,9.6 L68.8,9.6 L68.8,17.6 L67.2,17.6 L67.2,10.8195312 L1.6,11.2 L1.6,62.4 L67.2,62.4 L67.2,56 L68.8,56 L68.8,64 L0,64 L0,9.6 L0,9.6 Z M4.8,4.8 L65.6,4.8 L65.6,6.4 L4.8,6.4 L4.8,4.8 L4.8,4.8 Z M8,0 L62.4,0 L62.4,1.6 L8,1.6 L8,0 L8,0 Z M20.5471933,42.5975886 C23.2881498,42.5975886 25.0178794,41.1517122 25.0178794,38.9074986 C25.0178794,37.2753434 23.7227997,35.9713933 22.0462925,35.8826891 L22.0462925,35.7141514 C23.4034651,35.5278728 24.4324325,34.3658493 24.4324325,32.990936 C24.4324325,31.0039642 22.9244629,29.7975886 20.3697851,29.7975886 L14.4,29.7975886 L14.4,42.5975886 L20.5471933,42.5975886 L20.5471933,42.5975886 Z M17.65544,32.0950246 L19.5004851,32.0950246 C20.6092862,32.0950246 21.2568261,32.6449899 21.2568261,33.5586421 C21.2568261,34.4634238 20.5649342,35.0133891 19.3762994,35.0133891 L17.65544,35.0133891 L17.65544,32.0950246 L17.65544,32.0950246 Z M17.65544,40.3001528 L17.65544,36.9914902 L19.6069301,36.9914902 C20.9552322,36.9914902 21.709217,37.5769373 21.709217,38.6236456 C21.709217,39.7058354 20.972973,40.3001528 19.6246709,40.3001528 L17.65544,40.3001528 L17.65544,40.3001528 Z M35.5115731,42.5975886 L39.0597366,42.5975886 L34.7575883,29.7975886 L30.7747747,29.7975886 L26.4814968,42.5975886 L29.7103256,42.5975886 L30.5352738,39.7856691 L34.7132363,39.7856691 L35.5115731,42.5975886 L35.5115731,42.5975886 Z M32.557727,32.6804715 L32.7262648,32.6804715 L34.1011781,37.4438811 L31.1562024,37.4438811 L32.557727,32.6804715 L32.557727,32.6804715 Z M49.3760221,42.5975886 L52.9241858,42.5975886 L48.6220374,29.7975886 L44.6392238,29.7975886 L40.3459459,42.5975886 L43.5747747,42.5975886 L44.3997227,39.7856691 L48.5776854,39.7856691 L49.3760221,42.5975886 L49.3760221,42.5975886 Z M46.422176,32.6804715 L46.5907138,32.6804715 L47.965627,37.4438811 L45.0206515,37.4438811 L46.422176,32.6804715 L46.422176,32.6804715 Z M73.6,33.6 L73.6,30.6317032 C73.6,27.3222656 72,25.6 68,25.6 C64,25.6 62.4,27.4291016 62.4,30.6317032 L62.4,33.6 L60.8,33.6 C59.9163445,33.6 59.2,34.3140982 59.2,35.1960714 L59.2,46.4039286 C59.2,47.2854144 59.9117392,48 60.792924,48 L75.207076,48 C76.0868237,48 76.8,47.2859018 76.8,46.4039286 L76.8,35.1960714 C76.8,34.3145856 76.0898163,33.6 75.2,33.6 L73.6,33.6 L73.6,33.6 Z M72,33.6 L64,33.6 L64,30.6317032 C64,28.9169922 64.2421875,27.2 68,27.2 C71.7578125,27.2 72,28.8996093 72,30.6317032 L72,33.6 L72,33.6 Z M60.8,35.2 L75.2,35.2 L75.2,46.4 L60.8,46.4 L60.8,35.2 L60.8,35.2 Z M68,43.2 C69.3254834,43.2 70.4,42.1254834 70.4,40.8 C70.4,39.4745166 69.3254834,38.4 68,38.4 C66.6745166,38.4 65.6,39.4745166 65.6,40.8 C65.6,42.1254834 66.6745166,43.2 68,43.2 L68,43.2 Z" id="Rectangle-1"></path>
            </g>
        </g>
    </g>
</svg>