<?xml version="1.0" encoding="UTF-8" standalone="no"?>
<svg width="32px" height="32px" viewBox="0 0 32 32" version="1.1" xmlns="http://www.w3.org/2000/svg" xmlns:xlink="http://www.w3.org/1999/xlink">
    <!-- Generator: Sketch 3.8.3 (29802) - http://www.bohemiancoding.com/sketch -->
    <title>blue/icon-ui-health-template-blue</title>
    <desc>Created with Sketch.</desc>
    <defs></defs>
    <g id="blue,-base" stroke="none" stroke-width="1" fill="none" fill-rule="evenodd">
        <g id="icons,-utility-(blue)" transform="translate(-560.000000, -237.000000)" fill="#1055FF">
            <g id="blue/icon-ui-health-template-blue" transform="translate(560.000000, 237.000000)">
                <g id="Rectangle-43">
                    <g id="PaaS">
                        <g id="products">
                            <g id="Products">
                                <g id="BaaS">
                                    <g id="Description">
                                        <g id="Backend">
                                            <g id="Models">
                                                <path d="M3.98812056,0 C1.78554239,0 0,1.78902752 0,3.98812056 L0,28.0118794 C0,30.2144576 1.78902751,32 3.98812056,32 L28.0118794,32 C30.2144576,32 32,30.2109724 32,28.0118794 L32,3.98812056 C32,1.7855424 30.2109724,0 28.0118794,0 L3.98812056,0 L3.98812056,0 Z M20.0095924,10 C17.9760192,10 16,12.4556354 16,12.4556354 C16,12.4556354 14.0239808,10 11.971223,10 C9.93764988,10 8,11.0167866 8,14.028777 C8,16.1582734 9.99520384,18.0191846 9.99520384,18.0191846 L16,24.0047962 L22.0047962,18.0191846 C22.0047962,18.0191846 24,16.1582734 24,14.028777 C24,11.0167866 22.0431654,10 20.0095924,10 L20.0095924,10 Z" id="Rectangle-43"></path>
                                            </g>
                                        </g>
                                    </g>
                                </g>
                            </g>
                        </g>
                    </g>
                </g>
            </g>
        </g>
    </g>
</svg>