<svg width="32" height="32" viewBox="0 0 32 32" xmlns="http://www.w3.org/2000/svg"><title>blue/icon-ui-hl7-gear-blue</title><path d="M29.52 12.998c-.551-.038-1.095-.507-1.263-1.033a12.305 12.305 0 0 0-.755-1.84c-.251-.493-.196-1.21.166-1.628l1.576-1.817c.248-.248.205-.607-.043-.854l-2.736-2.737c-.248-.248-.607-.29-.855-.043l-1.786 1.55c-.418.362-1.132.411-1.62.154-.605-.32-1.238-.59-1.896-.808-.525-.174-.993-.722-1.033-1.273L19.11.446c0-.35-.284-.446-.634-.446h-3.87c-.35 0-.635.096-.635.446l-.16 2.188c-.04.55-.51 1.073-1.039 1.233-.701.213-1.377.479-2.02.806-.492.25-1.21.192-1.627-.17L7.43 3.034c-.248-.248-.622-.221-.87.026L3.824 5.795c-.248.248-.275.622-.027.87l1.442 1.662c.361.417.41 1.131.151 1.62-.339.64-.624 1.314-.849 2.015-.168.526-.713.997-1.263 1.037l-2.427.163c-.35 0-.851.285-.851.634v3.871c0 .35.5.634.85.634l2.318.163c.55.04 1.14.51 1.306 1.038.227.724.543 1.42.892 2.08.259.489.221 1.202-.141 1.62l-1.419 1.643c-.248.247-.202.606.046.854l2.738 2.737c.248.247.607.29.855.043l1.674-1.452c.418-.362 1.135-.416 1.627-.165a12.39 12.39 0 0 0 2.025.816c.529.16 1 .698 1.038 1.25l.162 2.358c0 .35.284.714.635.714h3.87c.35 0 .634-.364.634-.714l.168-2.394c.038-.552.506-1.115 1.03-1.289.66-.218 1.296-.497 1.901-.817.488-.259 1.203-.214 1.62.148l1.766 1.531c.248.248.591.189.84-.06l2.736-2.736c.248-.248.306-.592.058-.84l-1.56-1.798c-.362-.417-.417-1.135-.167-1.627.309-.608.57-1.245.776-1.905.165-.527.707-.996 1.257-1.034l2.156-.164c.35 0 .309-.284.309-.634v-3.87c0-.35.041-.635-.31-.635l-2.17-.164zM16.18 24.809a8.809 8.809 0 1 0 0-17.618 8.809 8.809 0 0 0 0 17.618zm0-1.743a7.066 7.066 0 1 0 0-14.132 7.066 7.066 0 0 0 0 14.132z" fill="#1055FF" fill-rule="evenodd"/></svg>