<?xml version="1.0" encoding="UTF-8" standalone="no"?>
<svg width="22px" height="32px" viewBox="0 0 22 32" version="1.1" xmlns="http://www.w3.org/2000/svg" xmlns:xlink="http://www.w3.org/1999/xlink">
    <!-- Generator: Sketch 3.8.3 (29802) - http://www.bohemiancoding.com/sketch -->
    <title>blue/icon-ui-redpoint-ribbon-blue</title>
    <desc>Created with Sketch.</desc>
    <defs></defs>
    <g id="blue,-base" stroke="none" stroke-width="1" fill="none" fill-rule="evenodd">
        <g id="icons,-utility-(blue)" transform="translate(-426.000000, -501.000000)" fill="#1055FF">
            <g id="blue/icon-ui-redpoint-ribbon-blue" transform="translate(426.000000, 501.000000)">
                <g id="Fill-38">
                    <g id="PaaS">
                        <g id="redpoint_v2.3_2015-11-13_Kris">
                            <g id="Features">
                                <g id="3-copy">
                                    <path d="M0.762153574,11.2948717 L1.30446319,11.4995477 C2.32033423,11.8831084 2.5179018,12.808614 1.74565292,13.5668078 L1.28443945,14.0198062 C0.511856832,14.778 0.766158323,15.3467281 1.85177873,15.2898552 L2.07337478,15.2782822 C3.15899519,15.2214094 3.67861121,15.9719981 3.2340842,16.9550378 L3.11861398,17.2103041 C2.67408696,18.1933439 3.11761279,18.633116 4.10978907,18.1926825 L4.63174121,17.9605622 C4.69281362,17.9334484 4.75288484,17.9103025 4.8122886,17.8904631 C4.83598336,17.8825274 4.85901065,17.8772369 4.88203795,17.8706237 C4.91774696,17.8600428 4.95345596,17.8488005 4.98816378,17.8411954 C5.01352718,17.8352436 5.0378894,17.8322678 5.06258533,17.8279692 C5.09462332,17.822348 5.12699503,17.8157349 5.15836556,17.8124284 C5.1830615,17.8094524 5.20708998,17.8094524 5.23111848,17.8081298 C5.26082035,17.8061459 5.29052224,17.8038313 5.31922292,17.8038313 C5.39097467,17.8044927 5.45972283,17.811767 5.52680237,17.8240013 C5.54248763,17.8269773 5.55850661,17.8306144 5.57419187,17.8342516 C5.63359564,17.8474779 5.69133075,17.8650026 5.74572858,17.8878179 C5.75273688,17.8907939 5.76041266,17.8927777 5.76742097,17.8957536 C5.826491,17.9218755 5.88189001,17.9549411 5.93428545,17.9916438 C5.94730089,18.0009021 5.95964886,18.0108219 5.97233056,18.0200803 C6.02005381,18.0571136 6.06510723,18.0974537 6.10615589,18.1434148 C6.10982691,18.1473827 6.11383165,18.1506893 6.1178364,18.1549878 C6.16088744,18.2049169 6.19893254,18.2611283 6.23397409,18.3206464 C6.24231731,18.3351951 6.25066054,18.3500748 6.25833631,18.3652849 C6.29004056,18.4251336 6.31907498,18.4882889 6.34176855,18.5567346 C6.34310348,18.5600411 6.34443839,18.5626863 6.34543958,18.565993 C6.36913434,18.6374147 6.38582077,18.7144575 6.39916995,18.7944762 C6.40250726,18.8139848 6.40517709,18.8341548 6.40784691,18.8539941 C6.41852621,18.9366582 6.42620198,19.022298 6.42586829,19.1132283 C6.42486707,19.3255094 6.42419955,19.5414276 6.42319846,19.7537087 C6.42286464,19.8284369 6.42620198,19.8978746 6.43154163,19.9640058 C6.43287654,19.9854984 6.43588019,20.005007 6.43821619,20.0251771 C6.44288845,20.0688236 6.4482281,20.1111475 6.45557018,20.1508262 C6.45924122,20.1723188 6.46391334,20.1921582 6.4682519,20.2126588 C6.47626138,20.248039 6.48527206,20.2817659 6.49528384,20.3138396 C6.50095731,20.3320256 6.50663066,20.3498811 6.51297152,20.3670752 C6.52465203,20.3981568 6.53766746,20.4269238 6.5513504,20.4540376 C6.55769126,20.4672639 6.564032,20.481482 6.57104038,20.4937164 C6.59006298,20.5264512 6.61075418,20.5555489 6.63278029,20.5816708 C6.6361175,20.5856387 6.63878733,20.5905984 6.64179098,20.5942356 C6.66782182,20.6230028 6.69585498,20.6471406 6.72589056,20.66698 C6.73456755,20.6726011 6.74391194,20.6762383 6.75258893,20.6811982 C6.77461504,20.6937631 6.79730867,20.7046747 6.82100339,20.7126104 C6.8333513,20.7165783 6.84603302,20.7188929 6.85838106,20.7218688 C6.88074086,20.7268287 6.90376819,20.7301352 6.92712922,20.7314578 C6.9344713,20.7317885 6.94114586,20.734103 6.94882163,20.734103 C6.95382758,20.734103 6.95983462,20.7317885 6.96484058,20.7314578 C7.01289754,20.7298045 7.06295693,20.7225302 7.11568614,20.7056667 C7.1230281,20.7033521 7.13103757,20.6993842 7.13871334,20.6967389 C7.18777152,20.6795448 7.2384983,20.655407 7.29122752,20.6253174 C7.30157312,20.6193655 7.31191872,20.6144056 7.32259802,20.6077925 C7.37966566,20.5724124 7.43873574,20.5287658 7.49880691,20.4781755 C7.51215616,20.4669332 7.52550528,20.4550296 7.5388544,20.443126 C7.60192922,20.3875758 7.66600525,20.3264045 7.73174976,20.2539909 L7.8802592,20.0903163 C7.95034227,20.0132735 8.02242778,19.9478035 8.09484698,19.8882856 C8.10752858,19.8783658 8.11987661,19.8674542 8.13255834,19.8575346 C8.20197389,19.8039683 8.27239078,19.7589992 8.34314125,19.7209737 C8.35749171,19.7136992 8.37150822,19.7067555 8.38585856,19.6998117 C8.45794406,19.6647622 8.53002957,19.6359951 8.60178125,19.6171478 C8.60945702,19.6151638 8.6171328,19.6145025 8.62514227,19.6128493 C8.69389043,19.5963164 8.7623049,19.58805 8.82971814,19.5863968 C8.84106496,19.5860662 8.85274547,19.5847436 8.86409229,19.5847436 C8.90380595,19.5854048 8.94285235,19.5893727 8.98189862,19.5953245 C8.99257792,19.5966472 9.00359091,19.5966472 9.01427034,19.598631 C9.06299469,19.6075588 9.11105165,19.620785 9.15810752,19.6376484 C9.17312525,19.6432696 9.18714189,19.650544 9.20149222,19.6568265 C9.23419776,19.6703834 9.26656947,19.6849322 9.29793997,19.7021263 C9.31529382,19.712046 9.33198029,19.7232883 9.34900045,19.7341999 C9.37670003,19.7517247 9.40406579,19.7702414 9.43043034,19.7910728 C9.44778432,19.804299 9.46447066,19.8191785 9.48115712,19.8337274 C9.50652058,19.856212 9.53155021,19.8796884 9.55557875,19.9048183 C9.5715977,19.9213512 9.58728294,19.9385452 9.6026345,19.95607 C9.62632922,19.9838451 9.64935654,20.0139347 9.67205018,20.0446857 C9.68573299,20.0638638 9.69974963,20.0820498 9.71309875,20.1022198 C9.73645978,20.1376 9.75881971,20.1759561 9.780512,20.2153041 C9.7908576,20.2341516 9.80187072,20.2513457 9.8115488,20.2708543 C9.8425856,20.3313644 9.8712864,20.3948502 9.89765094,20.4629654 L9.99810342,20.724514 C10.0918812,20.9688687 10.2006769,21.1527133 10.3171483,21.2790239 C10.3204855,21.2826611 10.3238228,21.2876209 10.3271602,21.2909275 C10.3498537,21.3147347 10.3725473,21.3339127 10.3955745,21.3530908 C10.4032503,21.3593732 10.4109261,21.3679703 10.4189357,21.373922 C10.4386257,21.3891323 10.4586493,21.4000439 10.4786732,21.4119475 C10.4900198,21.4188913 10.5013667,21.427819 10.5127135,21.4334401 C10.5297336,21.4417065 10.5474213,21.4466664 10.5644415,21.4529489 C10.5791255,21.4579086 10.5934758,21.4655137 10.60816,21.469151 C10.6241789,21.4731188 10.6408654,21.4132701 10.6572182,21.415254 C10.6729034,21.417238 10.688255,21.3610264 10.7042739,21.3610264 L10.7049413,21.3610264 C10.7236302,21.3610264 10.7419853,21.4169073 10.7603404,21.4142621 C10.7736895,21.4122781 10.7870387,21.4426985 10.8000541,21.4393919 C10.8207453,21.4344321 10.8414365,21.4400532 10.8621277,21.4317869 C10.8731407,21.4271576 10.8844876,21.4324481 10.8955007,21.4271576 C10.9201966,21.4149234 10.944225,21.4020278 10.9685873,21.3851644 C10.9755955,21.3805352 10.9826039,21.2469503 10.9892785,21.2416598 C11.0203153,21.2185138 11.0506845,21.0303707 11.0807203,21.0303707 L11.0813876,21.0303707 C11.2021975,21.0303707 11.3159991,20.8491713 11.4151167,20.5982035 L11.6056759,20.1805852 C11.632708,20.1114781 11.6634111,20.0800659 11.695449,20.018564 C11.7057946,19.9990552 11.7171414,19.9980632 11.7281545,19.9792159 C11.750848,19.9388759 11.7745427,19.9077942 11.7995725,19.8710915 C11.8132553,19.8509215 11.8276056,19.8363726 11.841956,19.8175252 C11.866652,19.7854515 11.8916817,19.7563539 11.9177125,19.7272562 C11.9330641,19.7103927 11.949083,19.69386 11.9651021,19.6779885 C11.9924678,19.6502134 12.0208348,19.6254141 12.0495355,19.6012763 C12.0652207,19.5877194 12.0805723,19.5741626 12.0969249,19.5615976 C12.1312991,19.5358065 12.1666743,19.5133219 12.2023834,19.4921599 C12.2143976,19.4852161 12.2257444,19.4762884 12.2377586,19.4700059 C12.2861494,19.4435534 12.3358749,19.4210689 12.386268,19.4028828 C12.3986159,19.3985843 12.4116314,19.3959391 12.4243131,19.3923018 C12.4630257,19.3800676 12.5024058,19.369156 12.5421194,19.3615508 C12.5618094,19.3579136 12.5811657,19.3562604 12.6008558,19.3536151 C12.6345624,19.3493166 12.6689364,19.34601 12.7033106,19.345018 C12.721332,19.3446874 12.7393533,19.345018 12.7573746,19.3456794 C12.8287927,19.3473326 12.9012119,19.3542764 12.9742985,19.3704786 C12.9809731,19.3721318 12.9876476,19.3747771 12.994656,19.3760997 C13.0637379,19.3929631 13.1334872,19.4174317 13.2025691,19.447852 C13.216252,19.4538038 13.2299348,19.4587636 13.2436178,19.4653768 C13.3157033,19.4994342 13.387455,19.5414276 13.4585393,19.590034 C13.4728896,19.6002843 13.4872399,19.6111959 13.5015903,19.6217769 C13.5753444,19.6753432 13.6480973,19.7345306 13.7188479,19.804299 C13.8583466,19.9415212 13.9998477,20.0807272 14.1390126,20.2179493 C14.2060922,20.2840805 14.2715031,20.3396307 14.3352453,20.3902211 C14.349262,20.4014633 14.3632786,20.4130363 14.3776289,20.4232867 C14.4397025,20.4702397 14.5001074,20.5112411 14.5581763,20.5433147 C14.5655183,20.5469519 14.5715254,20.5495972 14.5785338,20.5529037 C14.631263,20.5810094 14.6819898,20.6021714 14.7313816,20.6183735 C14.7433958,20.6220108 14.7550764,20.62664 14.7667569,20.6296159 C14.8188186,20.6441647 14.8685443,20.6524311 14.9159337,20.6530924 C14.9186035,20.6530924 14.9219409,20.654415 14.9246107,20.654415 C14.9339551,20.654415 14.9419647,20.6514391 14.9509752,20.6507779 C14.9773399,20.6494552 15.0027032,20.6464792 15.0267318,20.6405275 C15.0400809,20.6375516 15.0530963,20.6332531 15.065778,20.6286239 C15.0878042,20.6210188 15.1088291,20.6110991 15.1298541,20.5995261 C15.1408671,20.5932436 15.1525476,20.5869613 15.1635607,20.5793562 C15.185253,20.5638153 15.2059442,20.5449679 15.2256343,20.5244673 C15.2329763,20.5171928 15.2403183,20.5115717 15.2473266,20.503636 C15.2723564,20.4735464 15.2953836,20.4394888 15.3157411,20.4011327 C15.320747,20.3915437 15.3247517,20.3803013 15.329424,20.3700511 C15.3444417,20.3393001 15.3581247,20.3062345 15.3698052,20.270193 C15.3748111,20.2536602 15.3794833,20.2358048 15.3841555,20.2179493 C15.3931662,20.1845531 15.4011757,20.149173 15.4081841,20.1121395 C15.411855,20.0916389 15.4151923,20.0711382 15.4178621,20.0496456 C15.4235355,20.0086442 15.4272065,19.9653284 15.4298764,19.9200285 C15.4312113,19.8995278 15.4332137,19.8803498 15.4338811,19.8588572 C15.4362172,19.7914034 15.4358835,19.7206431 15.4315451,19.6445923 L15.4201983,19.424706 C15.4151923,19.3341064 15.4181958,19.2487972 15.4248704,19.1661332 C15.4265391,19.1462939 15.4282077,19.1264545 15.4302102,19.1066152 C15.4392209,19.0269271 15.4519025,18.9498843 15.4705914,18.8787933 C15.4715926,18.8754868 15.4729275,18.8728416 15.4739286,18.8698656 C15.4929512,18.8010893 15.5176471,18.737934 15.5456804,18.6780852 C15.5530223,18.6632058 15.559697,18.6483263 15.5673728,18.634108 C15.5980758,18.57459 15.6324499,18.5180479 15.6724974,18.4677882 C15.6751672,18.4644817 15.6785044,18.4618364 15.6811743,18.4585298 C15.7195532,18.4115767 15.7622705,18.3702447 15.8079913,18.3328806 C15.8186707,18.3239529 15.8300174,18.3146945 15.8413642,18.3064282 C15.8910899,18.2687334 15.9441527,18.2353371 16.0015542,18.2088847 C16.0065601,18.2069007 16.0118998,18.2052475 16.0165719,18.2032635 C16.0703023,18.1794563 16.1280375,18.1616009 16.187775,18.1477134 C16.2017915,18.1444068 16.2158081,18.1411003 16.2301585,18.1381243 C16.2952357,18.12589 16.3629827,18.1182849 16.4344006,18.1179543 C16.457428,18.1179543 16.4817902,18.1202689 16.5051512,18.1212609 C16.5338519,18.1229142 16.5625526,18.1232448 16.5919208,18.1265514 C16.6179516,18.1295273 16.6449837,18.135479 16.6713482,18.1401083 C16.7007164,18.1450682 16.7290834,18.1487053 16.7587853,18.1553184 C16.7894883,18.1625929 16.8211926,18.1725125 16.8525631,18.1817709 C16.8792614,18.189376 16.9052923,18.1953277 16.932658,18.2045861 C16.9917281,18.2244255 17.0514656,18.2475715 17.112538,18.2746852 L17.3705105,18.3897533 C17.4365888,18.4188511 17.4996636,18.4436503 17.5604023,18.4654735 C17.5610697,18.4658043 17.5624046,18.4658043 17.5630721,18.4661349 L17.5630721,18.4658043 C18.4177521,18.7676931 18.776177,18.3239529 18.3616855,17.407375 C18.2936049,17.2579186 18.2251904,17.1068088 18.1577772,16.9570218 C17.7129164,15.9739821 18.2338674,15.1668512 19.3211564,15.1539557 C19.5250648,15.1516411 19.732978,15.1489958 19.9372201,15.1466812 C21.0245092,15.1337857 21.2504436,14.5392666 20.4421521,13.8190981 L20.2769563,13.6719564 C19.4683309,12.9514573 19.6371978,12.0563721 20.6527351,11.673142 L20.9170484,11.5736146 C21.9329194,11.1900538 21.9335869,10.5667677 20.9180497,10.1815536 L20.3864193,9.97985359 C19.3712157,9.59463958 19.1729807,8.66681938 19.9442285,7.90730299 L20.3970986,7.46157896 C21.1683464,6.70206257 20.9130437,6.13267327 19.8274232,6.18954606 L19.6051598,6.20111901 C18.5195393,6.25832247 18.000257,5.50740314 18.4447841,4.52436342 L18.5602543,4.26876648 C19.0047813,3.28572676 18.5612556,2.8462852 17.569413,3.28671873 L17.0397851,3.52214566 C16.047275,3.96290986 15.2473266,3.44675613 15.2516652,2.36947951 L15.2550024,1.72569266 C15.2600083,0.64841604 14.6746477,0.424562057 13.9474522,1.22541042 L13.7989428,1.38908504 C13.0717473,2.18993341 12.1686767,2.02328289 11.7815511,1.01676661 L11.6810986,0.754887209 C11.293973,-0.25162907 10.6662287,-0.25162907 10.2794369,0.754887209 L10.0725249,1.29253356 C9.68573299,2.29938049 8.7516256,2.49512873 7.98638502,1.72966053 L7.52884262,1.27236355 C6.76360205,0.506895354 6.18958813,0.758855078 6.24732325,1.83480908 L6.25867004,2.05436453 C6.31640515,3.13031853 5.55850661,3.64481897 4.56633033,3.20438543 L4.30869155,3.08997852 C3.31651526,2.64921434 2.87265571,3.08898656 3.31718272,4.07169562 L3.55479776,4.59677704 C3.99965851,5.57981676 3.47870756,6.37272938 2.39141851,6.36776955 L1.74198189,6.36479364 C0.654359117,6.3598338 0.428424589,6.94013475 1.2367162,7.66063375 L1.40191205,7.80744493 C2.21020366,8.52794394 2.04167053,9.42302921 1.02579948,9.80658995 L0.762153574,9.90578669 C-0.254051187,10.2893474 -0.254051187,10.911311 0.762153574,11.2948717 L0.762153574,11.2948717 Z M10.8205171,18.41467 C15.062064,18.41467 18.5005171,14.9762168 18.5005171,10.73467 C18.5005171,6.49312308 15.062064,3.05466996 10.8205171,3.05466996 C6.57897024,3.05466996 3.14051711,6.49312308 3.14051711,10.73467 C3.14051711,14.9762168 6.57897024,18.41467 10.8205171,18.41467 L10.8205171,18.41467 Z M7.58499251,11.0597755 L7.89302438,11.0597755 L8.06422733,10.067808 L7.82460992,10.067808 C7.58499251,10.067808 7.38642368,9.8092352 7.38642368,9.57182432 C7.38642368,9.33441345 7.58499251,9.07584061 7.82460992,9.07584061 L8.21473907,9.07584061 L8.3308768,8.55836428 C8.36525082,8.34079276 8.5501367,8.30111406 8.76906291,8.30111406 C9.03604608,8.30111406 9.24829773,8.44131212 9.20691533,8.69889299 L9.11814349,9.07584061 L10.0419053,9.07584061 L10.1587104,8.55836428 C10.1927508,8.34079276 10.3776366,8.30111406 10.5965628,8.30111406 C10.8635461,8.30111406 11.0754639,8.44131212 11.0344154,8.69889299 L10.9456434,9.07584061 L11.1031635,9.07584061 C11.3427809,9.07584061 11.5410159,9.33441345 11.5410159,9.57182432 C11.5410159,9.8092352 11.3427809,10.067808 11.1031635,10.067808 L10.7951316,10.067808 L10.6239287,11.0597755 L10.8635461,11.0597755 C11.1031635,11.0597755 11.3017322,11.1530204 11.3017322,11.3904313 C11.3017322,11.6278421 11.1031635,11.7210871 10.8635461,11.7210871 L10.4734168,11.7210871 L10.3502708,12.626092 C10.3158968,12.8363891 10.1310109,13.1058735 9.91208474,13.1058735 C9.64510157,13.1058735 9.42617536,12.7031348 9.47423232,12.4452233 L9.56967872,11.7210871 L8.64591693,11.7210871 L8.52277094,12.626092 C8.48873062,12.809606 8.3308768,13.1058735 8.08458483,13.1058735 C7.81760154,13.1058735 7.59867533,12.7299179 7.64673229,12.4452233 L7.74251251,11.7210871 L7.58499251,11.7210871 C7.3453751,11.7210871 7.14680627,11.6278421 7.14680627,11.3904313 C7.14680627,11.1530204 7.3453751,11.0597755 7.58499251,11.0597755 L7.58499251,11.0597755 Z M10.1059813,9.91967424 L9.1818857,9.91967424 L9.01068275,10.9116417 L9.93477824,10.9116417 L10.1059813,9.91967424 L10.1059813,9.91967424 Z M12.2985807,8.66516611 L12.974382,8.31004177 C13.1729507,8.25548356 13.3217938,8.08387319 13.4652973,8.08387319 L13.4789801,8.08387319 C13.7663208,8.08387319 13.9321841,8.59010723 13.9321841,8.87480188 L13.9321841,12.6994976 C13.9321841,12.9841923 13.719265,13.21499 13.4315907,13.21499 C13.14425,13.21499 12.9309971,12.9841923 12.9309971,12.6994976 L12.9309971,9.41740806 L12.5755758,9.51495153 C12.5205105,9.52850842 12.4657789,9.54471055 12.4107136,9.54471055 C12.1644216,9.54471055 11.9491665,9.34664772 11.9491665,9.10262373 C11.9491665,8.89232664 12.0866628,8.72633742 12.2985807,8.66516611 L12.2985807,8.66516611 Z M8.97732992,21.2575313 L8.87687757,21.0571538 C8.8608585,21.0148298 8.84450586,21.0105313 8.829488,20.9827562 C8.80512576,21.0029262 8.77776,21.0445889 8.74739072,21.0779852 L8.59854758,21.2499261 C8.08694106,21.8133636 7.5419616,22.1030181 6.97929446,22.1030181 C6.57014272,22.1030181 6.18468577,21.945626 5.89467528,21.6569635 C5.51656033,21.2810077 5.32633481,20.726498 5.32900465,20.0063296 L5.33033956,19.6869161 L5.33134075,19.3668413 C5.33167448,19.2778949 5.32066143,19.2160622 5.30964836,19.1780369 C5.27193699,19.182666 5.21019712,19.1968842 5.12242641,19.2359016 L4.60047427,19.4673606 C4.29911698,19.6012763 4.01077514,19.6855935 3.74012092,19.7189897 L0.0834523904,28.6579388 C-0.161170957,29.254442 0.150198182,29.6072517 0.779611059,29.446553 L3.4681318,28.7591195 C4.09721094,28.5980901 4.35751955,28.7091905 4.69491956,29.2594017 L6.13529389,31.6113565 C6.47269389,32.1615677 6.94458662,32.0031836 7.18954381,31.40635 L10.7377504,22.6109055 L10.735748,22.6109055 C10.377323,22.6109055 9.48927027,22.5884209 8.97732992,21.2575313 L8.97732992,21.2575313 Z M21.6763653,28.6572776 L18.1071338,19.9309402 C18.0991242,19.9309402 18.092116,19.9322628 18.0841065,19.9322628 C17.7396982,19.9322628 17.3612495,19.8416631 16.9594397,19.6634396 L16.7024685,19.5490327 C16.6600849,19.5301853 16.6240421,19.5172897 16.5940065,19.5086926 C16.5920042,19.540105 16.591003,19.5781304 16.5936728,19.6234303 L16.6053533,19.8429857 C16.6447333,20.5800175 16.4721955,21.1546972 16.0934131,21.5501617 C15.8000653,21.8570102 15.402594,22.0259753 14.9744197,22.0259753 C14.4397859,22.0259753 13.908823,21.7703784 13.3962154,21.2657976 L13.1903046,21.0631057 L12.9760506,20.8524778 C12.8976242,20.7751044 12.8385542,20.7400549 12.8071837,20.7251754 C12.7831552,20.7526198 12.7431077,20.8078394 12.7033939,20.9093507 L12.512501,21.3931002 C12.098677,22.444255 11.4685967,22.7547407 11.0130566,22.8304609 L14.5706076,31.52737 C14.815231,32.1232118 15.2871238,32.1609065 15.6245238,31.6106952 L17.0652319,29.2584099 C17.4022981,28.7085292 17.6629405,28.5974289 18.2920196,28.7581276 L20.9805404,29.4458917 C21.6099533,29.6065903 21.9213224,29.25345 21.6763653,28.6572776 L21.6763653,28.6572776 Z" id="Fill-38"></path>
                                </g>
                            </g>
                        </g>
                    </g>
                </g>
            </g>
        </g>
    </g>
</svg>