<?xml version="1.0" encoding="UTF-8" standalone="no"?>
<svg width="64px" height="64px" viewBox="0 0 64 64" version="1.1" xmlns="http://www.w3.org/2000/svg" xmlns:xlink="http://www.w3.org/1999/xlink">
    <!-- Generator: Sketch 3.8.3 (29802) - http://www.bohemiancoding.com/sketch -->
    <title>dark gray/icon-large-hands-circle-dark-gray</title>
    <desc>Created with Sketch.</desc>
    <defs></defs>
    <g id="gray" stroke="none" stroke-width="1" fill="none" fill-rule="evenodd">
        <g id="icons,-large-detailed-(gray)" transform="translate(-454.000000, -414.000000)" fill="#242F36">
            <g id="dark-gray/icon-large-hands-circle-dark-gray" transform="translate(454.000000, 414.000000)">
                <g id="Group">
                    <g id="Page-1">
                        <g id="Stratum-2016_02_16-kg-v1.2">
                            <g id="focus">
                                <g id="relationships">
                                    <g id="Group">
                                        <path d="M32,64 C49.673112,64 64,49.673112 64,32 C64,14.326888 49.673112,0 32,0 C14.326888,0 0,14.326888 0,32 C0,49.673112 14.326888,64 32,64 L32,64 Z M32,62.4 C48.7894563,62.4 62.4,48.7894563 62.4,32 C62.4,15.2105436 48.7894563,1.6 32,1.6 C15.2105436,1.6 1.6,15.2105436 1.6,32 C1.6,48.7894563 15.2105436,62.4 32,62.4 L32,62.4 Z" id="Oval-28"></path>
                                        <path d="M3.51236073,19.503892 C3.66506786,19.5724436 3.93166025,19.6526207 4.33302047,19.7253325 C5.78037417,19.9875399 8.02227916,19.9875399 11.2367043,19.567307 C11.4753439,19.5037407 11.6486054,19.4462667 11.8904444,19.364904 C12.2926137,19.229601 12.7405235,19.0764729 13.222801,18.9085348 C14.601312,18.4285112 15.9800949,17.9256427 17.2688362,17.4237173 C17.9966308,17.1402635 18.6758356,16.8646579 19.2975822,16.5991509 C19.9553231,16.318273 20.5434326,16.0509709 21.0547024,15.7987773 C23.8775667,14.4087997 27.0527104,14.0241385 29.9007808,14.4506627 C31.0069217,14.617035 32.7763745,14.7613014 35.3505972,14.9165704 C35.8595874,14.9472711 40.0288156,15.1792174 40.7810976,15.2336829 C42.5050567,15.3588499 43.3033845,16.5423462 42.4099705,17.6160871 L43.639896,18.6394557 C45.4970521,16.4074508 43.7695243,13.8464441 40.8967977,13.6378717 C40.1286351,13.5822564 35.9436205,13.3494319 35.4469291,13.319473 C32.9214648,13.1671449 31.1813052,13.0252669 30.1382545,12.868384 C26.9839048,12.3959915 23.4816991,12.8202755 20.3473996,14.3636039 C19.8641222,14.6019896 19.3018765,14.8575363 18.6692228,15.1277011 C18.0643684,15.3859946 17.4008227,15.655246 16.6881703,15.9328024 C15.4195039,16.4269093 14.0582071,16.9234003 12.6966385,17.3975241 C12.2198881,17.5635376 11.7772721,17.714856 11.3802514,17.8484268 C11.1425766,17.9283885 10.9733281,17.9845313 10.8839484,18.0138116 C7.96801714,18.3810187 5.88813857,18.3810187 4.61823915,18.1509595 C4.34028608,18.1006046 4.19767667,18.0577151 4.16761975,18.0442223 L3.51236073,19.503892 L3.51236073,19.503892 Z" id="Shape"></path>
                                        <path d="M60.7147858,20.6558656 C60.548699,20.673658 60.2258834,20.701211 59.7673632,20.7290354 C56.1195663,20.9503946 51.970766,20.7475944 48.0600403,19.8000159 C47.4477744,19.6516624 46.8516953,19.4864262 46.27323,19.3037599 C45.2219613,18.9719042 40.9546481,17.5863623 39.9973631,17.2943119 C38.1277576,16.7239289 36.8059883,16.4072764 35.4985951,16.2412868 C34.5255304,16.1177443 33.5616315,16.0813006 32.5096102,16.1296433 C31.8392502,16.1604422 31.3912974,16.1722829 30.2179118,16.1959189 C26.3567545,16.2736958 24.9028706,16.5334435 23.0612225,17.84629 C22.3824013,18.330198 21.8092587,18.7641245 21.242392,19.2169239 C20.917405,19.4765156 19.9682228,20.2576327 19.9697482,20.2563926 C19.8486938,20.3548145 19.738649,20.4431611 19.6316938,20.5276226 C19.1805147,20.8839141 18.7585097,21.1906727 18.2559661,21.5215171 C17.8044762,21.8188704 17.2941,22.0953416 16.3321774,22.5808797 C13.4982023,24.011351 12.8960098,24.3947304 12.7199695,25.4164251 C12.7104385,25.4768935 12.7104385,25.4768935 12.7043888,25.5386889 C12.6903757,25.7107532 12.6636007,25.8443902 12.6171319,26.0035704 C12.7542011,25.5340352 12.5113622,26.3448882 12.4854203,26.4855899 C12.3770489,27.073367 12.560194,27.5774436 13.1214934,28.373102 C14.1072262,29.769766 15.2775519,29.9738378 18.0128776,29.8190072 C20.6200107,29.6714328 23.1917878,29.0199202 24.2993106,27.8054624 C25.3386108,26.6643432 27.1187969,25.6035753 27.8315036,25.664102 C29.0817329,25.7694288 31.735027,26.3498535 32.7743409,26.8006263 C32.8758735,26.8447223 36.4431489,28.0950872 37.81595,28.6818074 C39.5158465,29.4083246 40.8269467,30.1480218 41.6695766,30.9072058 C42.5116042,31.6650846 43.1266797,32.2252176 43.6186042,32.6800671 C43.9081936,32.9478309 44.6174166,33.6123441 44.5336136,33.5342248 C44.5446645,33.5445243 44.5446645,33.5445243 44.5557284,33.554828 C44.7206504,33.7083879 44.8688293,33.8442581 45.0415532,33.9998191 C45.4284093,34.3449249 45.7425495,34.6279851 46.1095265,34.9688013 C46.692245,35.5099793 47.2468624,36.0494753 47.7665833,36.5890069 C48.2275024,37.0674953 48.6431174,37.5279354 49.0042314,37.9644706 C49.8804344,39.0236747 50.3855954,39.8923494 50.4287211,40.3956171 C50.4514469,40.6608213 50.4794841,40.9139056 50.5196012,41.233357 C50.7472746,43.0463128 50.7162909,43.2179101 49.9326419,43.7363425 C49.8809832,43.770518 49.8260666,43.8049903 49.7677833,43.8397858 C48.3021938,44.7147514 48.4409962,44.6993291 48.0773025,44.3064037 C47.8591913,44.0707619 46.6994452,42.4382623 46.4128365,42.0728717 C45.9451294,41.4766031 45.4923667,40.9795711 45.0112451,40.5573058 C44.5090198,40.1164821 43.5722173,39.3178376 42.3215699,38.2613817 C42.3009607,38.243973 42.3009607,38.243973 42.2803507,38.2265654 C41.5987727,37.6509066 40.8686475,37.0363825 40.1385413,36.4232993 C39.7004853,36.0554558 39.3597341,35.769796 39.1649075,35.6066718 L38.1377591,36.8334424 C38.3320347,36.9961052 38.6722125,37.2812844 39.1096367,37.6485973 C39.8386641,38.2607746 40.5676725,38.8743588 41.2479525,39.4489213 C41.2685163,39.4662899 41.2685163,39.4662899 41.2890788,39.4836591 C42.5318187,40.5334354 43.4638076,41.3279761 43.9557968,41.7598153 C44.3536725,42.1090182 44.7425857,42.5359577 45.1539176,43.060355 C45.3843124,43.3540798 46.6014364,45.0673466 46.9030975,45.3932536 C47.9269134,46.4993581 48.5502617,46.4300979 50.5879501,45.2135858 C50.6670652,45.1663536 50.742851,45.1187812 50.8154409,45.0707585 C52.2784495,44.1028875 52.4047117,43.4036097 52.107132,41.0339927 C52.0694151,40.7336546 52.0435267,40.4999673 52.0228789,40.2590114 C51.9432911,39.3302404 51.3107813,38.2425767 50.2370795,36.9446246 C49.8482193,36.4745482 49.4061393,35.984789 48.9189122,35.4789897 C48.376611,34.9160171 47.8013391,34.3564298 47.1983372,33.7964143 C46.8210657,33.4460374 46.4965473,33.1536258 46.1122803,32.8108938 C45.9464291,32.6615225 45.8047255,32.5315898 45.6460429,32.3838394 C45.6353238,32.3738568 45.6353238,32.3738568 45.6246004,32.3638625 C45.7118127,32.44516 44.9990508,31.777331 44.7048388,31.5052929 C44.207282,31.0452357 43.5870106,30.4803708 42.7402595,29.7182407 C41.739508,28.8165939 40.292748,28.00036 38.4447509,27.2105463 C37.0049487,26.5951905 33.443556,25.3468876 33.411352,25.3329012 C32.1942192,24.8050045 29.3763743,24.1885832 27.9663588,24.0697953 C26.6365787,23.9568634 24.4580709,25.2549811 23.1167432,26.7277174 C22.3931479,27.5211781 20.1193096,28.0972134 17.9224558,28.2215643 C15.7433676,28.3449096 14.9640511,28.2090187 14.4288068,27.4506424 C14.0920092,26.9732219 14.0458867,26.8462772 14.0588993,26.7757003 C14.0664241,26.7348878 14.2248883,26.2057667 14.1530252,26.4519364 C14.227953,26.1952684 14.2755691,25.9576121 14.299027,25.6695635 C14.2980166,25.6799999 14.2980166,25.6799999 14.2967351,25.6881054 C14.3322094,25.4822211 15.0872062,25.0015605 17.0531508,24.0092344 C18.0695455,23.4962011 18.616396,23.1999718 19.1358909,22.85783 C19.6782639,22.5007644 20.1372709,22.1671087 20.6232918,21.783303 C20.7366322,21.6937993 20.8524877,21.6007877 20.9790993,21.4978475 C20.9855755,21.4925821 21.9268656,20.7179596 22.2409706,20.4670602 C22.7855919,20.0320299 23.3355348,19.6156679 23.9899776,19.1491384 C25.4835092,18.0844519 26.700064,17.867105 30.2501348,17.7955944 C31.4374371,17.7716781 31.8942456,17.7596033 32.5830496,17.727957 C33.5445172,17.6837754 34.4164818,17.7167432 35.2970732,17.8285451 C36.4990576,17.9811518 37.7400933,18.2784632 39.5304763,18.8246768 C40.47136,19.1117235 44.72809,20.4938291 45.79151,20.8295206 C46.4052924,21.0233393 47.0363519,21.1982723 47.6832591,21.3550195 C51.7740843,22.3462365 56.0710749,22.5562804 59.8642777,22.3260976 C60.3481831,22.2967328 60.6954052,22.2670966 60.8852142,22.2467629 L60.7147858,20.6558656 L60.7147858,20.6558656 Z" id="Shape"></path>
                                        <path d="M34.8059158,41.9402472 C35.0446229,42.1159795 35.4668084,42.4354873 36.01094,42.862237 C36.9181711,43.573757 37.8251715,44.3199925 38.6697412,45.0636045 C39.1668691,45.5013071 39.6276282,45.9254415 40.0446113,46.3313625 C41.4803434,47.729006 42.3166,48.862165 42.3166,49.3262858 C42.3166,50.3322095 42.0814585,50.7331071 41.6462403,50.935258 C41.5667373,50.9721857 41.4774299,51.0044111 41.3669477,51.0369428 C41.2965771,51.0576636 41.044551,51.124285 41.0326077,51.1275918 C41.0067633,51.1347939 41.0067633,51.1347939 40.9803312,51.1423954 C40.2726703,51.3469738 39.2189018,51.1594417 38.1274916,50.3464813 C37.5615459,49.9248525 36.5050139,49.1326033 35.1007959,48.0775094 C35.0957847,48.0737441 35.0957847,48.0737441 35.0907735,48.0699788 C34.3299164,47.4982858 33.5153055,46.8857344 32.7011063,46.2731797 C31.8327537,45.6197788 31.8327537,45.6197788 31.6158198,45.4564665 L30.6535136,46.7347335 C30.8706064,46.8981655 30.8706064,46.8981655 31.7391925,47.5517421 C32.5536335,48.1644787 33.368495,48.7772185 34.1296439,49.3491308 C34.1346574,49.3528978 34.1346574,49.3528978 34.1396708,49.3566649 C35.5456809,50.4131053 36.603292,51.2061636 37.171656,51.629594 C38.6660085,52.7426947 40.2381348,53.0224755 41.4255089,52.6792155 C41.4420545,52.6744545 41.4420545,52.6744545 41.4595453,52.669579 C41.4524032,52.6715564 41.7228856,52.6000561 41.8188858,52.5717887 C41.9997737,52.518526 42.1608457,52.4604052 42.3202524,52.3863637 C43.3426662,51.9114712 43.9166,50.9329597 43.9166,49.3262858 C43.9166,48.2419937 42.935665,46.9127901 41.1606725,45.1848864 C40.7233399,44.7591558 40.2432087,44.3171891 39.7270588,43.8627384 C38.857416,43.0970505 37.9277602,42.3321752 36.998335,41.6032488 C36.6731662,41.3482265 36.3710832,41.1157801 36.0996899,40.910391 C35.9360761,40.7865689 35.8184665,40.6988555 35.7544842,40.6517528 L34.8059158,41.9402472 L34.8059158,41.9402472 Z" id="Shape"></path>
                                        <path d="M42.4273565,49.7336599 C43.0202339,50.7356924 46.4318752,50.2201022 47.2674124,48.8118714 C47.7265373,48.0363935 47.793904,47.9185165 47.9463311,47.5975212 C48.286364,46.8814477 48.4420354,46.1907772 48.4717104,45.1968457 L46.872423,45.149097 C46.8491289,45.9293081 46.7423931,46.4028653 46.5010073,46.9111982 C46.3791468,47.1678236 46.3169936,47.2765781 45.8910041,47.9960898 C45.7400942,48.2504356 45.2218267,48.4881057 44.5226644,48.5937678 C44.2164306,48.640048 43.9049864,48.6561582 43.6604633,48.6433383 C43.5657179,48.638371 43.4922699,48.6293903 43.4551852,48.620866 C43.5741745,48.648217 43.6704285,48.692523 43.8043769,48.9189116 L42.4273565,49.7336599 L42.4273565,49.7336599 Z" id="Shape"></path>
                                        <path d="M37.7636343,51.3134223 C37.6807571,51.5399551 37.4882398,51.9184035 37.192026,52.2912795 C36.7145422,52.8923396 36.157863,53.2163922 35.4967255,53.1877225 C33.8647383,53.118061 31.4498582,51.9894755 30.291346,50.9840828 L30.5504876,51.7499868 C30.5714859,51.6482438 30.6006496,51.4797194 30.6292399,51.2611433 C30.699178,50.7264568 30.7269131,50.1776057 30.6868769,49.6516442 C30.6213751,48.7911376 30.3845604,48.0856887 29.8802689,47.5991364 C29.2063321,46.9499018 28.4614823,46.4135067 27.7641349,46.161553 C26.6260632,45.7503643 25.6054554,46.1335899 25.197418,47.3735995 C24.6692684,48.9753313 24.5550693,49.3523567 24.4282043,50.0124106 C24.3230605,50.5594536 24.2744,51.0970436 24.2744,51.7264571 C24.2744,52.9834244 24.7408318,53.5950881 25.7868913,54.0653881 C25.8757377,54.1053328 26.1839912,54.2381822 26.2259474,54.2566502 C26.3945863,54.3308809 26.5294842,54.394638 26.661779,54.4641453 C28.2932637,55.3256242 29.902232,55.1234004 31.4662157,53.5885149 L30.3455177,52.4465709 C29.2879638,53.4844489 28.4358352,53.591549 27.4074145,53.0485095 C27.2367345,52.9588327 27.0702375,52.8801409 26.8705444,52.7922409 C26.8181445,52.7691758 26.5180845,52.6398576 26.4429796,52.606091 C25.9332546,52.3769227 25.8744,52.2997427 25.8744,51.7264571 C25.8744,51.1960186 25.9139255,50.7593499 25.9994449,50.3144094 C26.1077888,49.7507167 26.2144979,49.3984191 26.7170957,47.8741786 C26.8201453,47.5610155 26.8734836,47.5409876 27.2204484,47.666347 C27.6634187,47.8263935 28.2439589,48.2444629 28.7697722,48.751003 C28.932573,48.9080775 29.0529421,49.2666455 29.0914922,49.7730849 C29.1220499,50.1745262 29.09958,50.6191855 29.0427541,51.0536275 C29.0195966,51.2306695 28.9970126,51.3611728 28.9835124,51.4265847 L28.8888158,51.885417 L29.242654,52.1924887 C30.6545548,53.41778 33.3972372,54.6995627 35.4279498,54.7862436 C36.669227,54.8400708 37.676454,54.2537465 38.4448293,53.2865101 C38.863941,52.7589294 39.1294875,52.2369209 39.2662322,51.8631492 L37.7636343,51.3134223 L37.7636343,51.3134223 Z" id="Shape"></path>
                                        <path d="M22.3111731,45.3472803 C22.3647388,45.0155012 22.4829098,44.4943031 22.6647179,43.9854485 C22.8463709,43.4770276 23.0542814,43.1214375 23.2078924,43.014887 C23.9236825,42.5183874 24.6218794,42.6845155 24.7874102,43.6875227 C24.8474851,44.0525138 24.9150398,44.4051971 24.9916325,44.7615546 C25.0851687,45.1967435 25.3588356,46.3180005 25.3658081,46.3487393 C25.453368,46.7347491 25.4793294,46.9479842 25.463497,47.0612936 L26.2558,47.172 L25.5319527,46.831346 C25.4910356,46.9182898 25.4227114,47.0705478 25.3360534,47.2756307 C25.1927958,47.6146612 25.0497103,47.9809518 24.9158525,48.3624448 C24.8160491,48.646883 24.7251276,48.9294389 24.6451029,49.2076669 C24.5508174,49.5348883 24.4799899,49.9098133 24.4280235,50.3255118 C24.3399866,51.0297511 24.3143059,51.7483235 24.3213551,52.3326564 C24.3219936,52.3774834 24.3219936,52.3774834 24.3222697,52.3900187 L25.0248487,51.5779291 C25.005714,51.5802717 24.9584281,51.5848955 24.8871393,51.5898654 C24.3365667,51.6282485 23.7076973,51.5974944 23.1333502,51.4497632 C22.240011,51.219982 21.7155604,50.7743157 21.581708,50.0174764 C21.3299395,48.6017959 21.4448551,47.8681637 21.9658376,46.4137794 C21.977387,46.3815412 21.977387,46.3815412 21.9889936,46.3491334 C22.1365453,45.9370315 22.2124465,45.7122448 22.2904254,45.4402253 L22.3111731,45.3472803 Z M20.7523746,44.9993174 C20.6866085,45.2287342 20.6191344,45.4285634 20.4826382,45.8097881 C20.4711351,45.8419069 20.4711351,45.8419069 20.4595628,45.8742089 C19.8529462,47.567651 19.6974564,48.5603126 20.0062921,50.2968765 C20.264427,51.7564454 21.2895784,52.627596 22.7347783,52.9993245 C23.5021381,53.1967018 24.2912406,53.2352918 24.998413,53.1859914 C25.0984835,53.179015 25.1733684,53.1716925 25.2192847,53.1660709 L25.9381765,53.0780571 L25.9218638,52.3539813 C25.9217549,52.3494309 25.9217549,52.3494309 25.9212387,52.3133561 C25.914992,51.7955448 25.938325,51.1426631 26.0156661,50.5239828 C26.0580768,50.1847245 26.114063,49.8883621 26.1826581,49.6502999 C26.2539184,49.4025441 26.335536,49.1489018 26.4256116,48.8921874 C26.6348086,48.2959788 26.8440968,47.8006819 26.9796473,47.512654 L27.048103,47.2827064 C27.0984493,46.9223885 27.0542739,46.5595524 26.9261688,45.9947978 C26.9144405,45.943093 26.643746,44.8340144 26.5559089,44.4253409 C26.4845723,44.0934388 26.4218651,43.7660624 26.3661123,43.4273309 C25.9827492,41.1044047 23.8771857,40.6034094 22.2959741,41.7001988 C21.7942287,42.0482287 21.4434648,42.6481416 21.1580004,43.4471153 C21.0285613,43.8093969 20.9219399,44.1916164 20.8354606,44.573037 C20.7835303,44.8020776 20.7493173,44.9826906 20.7316269,45.0922625 L20.7523746,44.9993174 Z" id="Shape"></path>
                                        <path d="M14.8167276,44.8831311 C14.0836871,45.8795591 14.3119273,48.6738476 16.2459254,49.6284066 C18.0321711,50.5107501 19.5995515,50.3205537 20.9196254,49.5566489 L21.2182366,49.3838476 L21.2975219,49.0480756 C21.3491205,48.8295566 21.4431665,48.4441372 21.5694994,47.9477742 C21.7800214,47.1206315 22.0026379,46.2937621 22.2269011,45.5238778 C22.3941512,44.9497164 22.5558713,44.4299439 22.7093288,43.9781719 C22.8405914,43.5917406 22.9640403,43.2603933 23.0774214,42.9921274 L23.1403329,42.662781 C23.1304756,42.2224582 23.0191675,41.6162593 22.7039423,40.993378 C22.3109225,40.2167756 21.6792385,39.635505 20.78946,39.3746529 C19.107319,38.8817162 18.2341724,39.1729518 17.457811,40.2205569 C17.3857285,40.31882 17.3857285,40.31882 17.3181176,40.4124556 C17.0755373,40.7483951 16.8472012,41.1665558 16.0088976,42.7571064 C15.997438,42.7788483 15.997438,42.7788483 15.9859813,42.8005811 C15.335951,44.0335913 15.0070361,44.6262557 14.8183308,44.8809597 L14.8167276,44.8831311 Z M16.1039359,45.8334403 C16.3658024,45.4799875 16.6923887,44.8915191 17.4013403,43.5467438 C17.4128408,43.5249281 17.4128408,43.5249281 17.4243367,43.5031172 C18.1898207,42.0507306 18.441554,41.5897215 18.6147829,41.3498234 C18.6821472,41.2565557 18.6821472,41.2565557 18.7432925,41.1732043 C19.1196557,40.6653481 19.2995712,40.6053378 20.3394277,40.9100586 C20.7742138,41.0375228 21.0715041,41.311087 21.2763452,41.7158505 C21.4644396,42.0875228 21.5357479,42.4758776 21.5407337,42.6985906 L21.6036452,42.3692441 C21.4735283,42.6771079 21.3371156,43.0432512 21.1943443,43.4635633 C21.0325889,43.9397638 20.8641115,44.4812547 20.6907476,45.0764045 C20.4607985,45.8658084 20.2336246,46.7096051 20.0189334,47.5531284 C19.8901384,48.059165 19.7939439,48.4533897 19.7403446,48.6803817 L20.5189333,48.8642286 L20.1182412,48.1718084 C19.2248232,48.6888145 18.2066288,48.812369 16.9543039,48.1937639 C16.4148629,47.9275132 16.150677,47.4448449 16.0953112,46.767015 C16.0732941,46.4974645 16.0882548,46.2173326 16.1299375,45.9599319 C16.1457203,45.8624689 16.1825338,45.7266092 16.105539,45.8312689 L16.1039359,45.8334403 Z" id="Shape"></path>
                                        <path d="M13.0517681,40.1380764 C13.1730445,39.8590322 13.3991401,39.4188578 13.6893949,38.9867535 C14.0536323,38.4445106 14.4109123,38.1072454 14.619573,38.064808 C16.0721716,37.7701365 16.5585669,37.9186357 16.8739888,39.1423139 C17.1922879,40.3771538 17.22917,40.6753121 17.1528792,40.8829063 C17.1279974,40.9506118 17.0851923,41.0359309 17.0052614,41.1749017 C16.9854568,41.2093347 16.7629856,41.5856226 16.6800192,41.7312567 C16.6516389,41.7810116 16.3782402,42.270446 16.2818198,42.4382013 C16.1016326,42.7516965 15.9351625,43.0242148 15.7637863,43.2808511 C14.7693669,44.7699972 14.0059514,45.2069504 13.2867292,44.6053825 C13.2187299,44.5478609 13.2187299,44.5478609 13.1535596,44.4903939 C12.0868466,43.5399518 11.8055482,42.6194822 11.9054077,41.8914297 C11.9090969,41.864533 11.9111866,41.8539482 11.9092953,41.8614234 L11.8283385,42.0620925 C11.8909725,41.9532921 11.8909725,41.9532921 11.9562674,41.842852 C12.0163033,41.7419096 12.0798204,41.6375648 12.1463823,41.5303844 C12.3267696,41.2399186 12.5209606,40.9421265 12.7152372,40.6541417 C12.8316577,40.4815664 12.921694,40.3513915 12.9719065,40.2801702 L13.0517681,40.1380764 L13.0517681,40.1380764 Z M11.5843652,39.5003236 L11.6642269,39.3582298 C11.6080276,39.4379428 11.5118435,39.5770062 11.3888377,39.7593433 C11.1840703,40.0628789 10.9792175,40.3770209 10.7871638,40.6862725 C10.7153768,40.8018665 10.646565,40.9149092 10.5811065,41.0249691 C10.5092357,41.1465279 10.5092357,41.1465279 10.4391281,41.2683075 L10.3581714,41.4689766 C10.3458276,41.5177647 10.3322385,41.5865963 10.3202489,41.6740097 C10.1520356,42.9004141 10.5965955,44.3551113 12.0891689,45.6849953 C12.1729723,45.758891 12.1729723,45.758891 12.2599482,45.8324606 C13.9992243,47.2872166 15.6391862,46.3485579 17.0943838,44.1693951 C17.2880132,43.8794345 17.4723382,43.5776871 17.6690087,43.2355136 C17.7715552,43.0570999 18.0466875,42.5645622 18.0700362,42.523628 C18.1451834,42.3917197 18.3653923,42.0192581 18.3922134,41.972626 C18.5135048,41.7617444 18.5921058,41.605077 18.6546765,41.4348165 C18.888596,40.7983003 18.8290384,40.3168311 18.4233446,38.7429435 C17.8372068,36.4690245 16.4803031,36.0547544 14.3010863,36.4968265 C13.557816,36.6479925 12.9432308,37.2281488 12.3612226,38.0945885 C12.154295,38.4026431 11.9662682,38.7285807 11.7990452,39.054139 C11.6982722,39.2503289 11.6255787,39.4054956 11.5843652,39.5003236 L11.5843652,39.5003236 Z" id="Shape"></path>
                                        <path d="M1.61615731,38.2060867 C1.61978738,38.2060075 1.61978738,38.2060075 1.65212049,38.2056042 C2.23913076,38.1994819 3.10059511,38.2271863 4.13900876,38.3189146 C5.76267971,38.4623415 7.37188542,38.7291981 8.86699772,39.1472761 C9.97174126,39.4561954 10.9758512,39.8383034 11.8560373,40.2980204 L12.5967627,38.8798081 C11.6107698,38.3648288 10.5039958,37.9436526 9.29787668,37.6063857 C7.69839852,37.1591238 5.99481981,36.8766172 4.27979649,36.7251207 C3.1850402,36.6284155 2.27199297,36.5990522 1.63543414,36.6056912 C1.59511868,36.6061913 1.59511868,36.6061913 1.58384269,36.6064131 L1.61615731,38.2060867 L1.61615731,38.2060867 Z" id="Shape"></path>
                                        <path d="M51.0604031,39.6506051 C51.212276,39.5967732 51.5121069,39.4988838 51.9432328,39.3715289 C52.6681407,39.1573907 53.4913112,38.9428235 54.3959941,38.7423713 C56.980924,38.1696237 59.6941173,37.8260571 62.4,37.8260571 L62.4,36.2260571 C59.5674062,36.2260571 56.7412082,36.5839333 54.0498737,37.1802572 C53.107864,37.3889799 52.2491394,37.6128146 51.4899551,37.8370781 C51.0306255,37.9727643 50.7038143,38.0794624 50.5258635,38.1425376 L51.0604031,39.6506051 L51.0604031,39.6506051 Z" id="Shape"></path>
                                    </g>
                                </g>
                            </g>
                        </g>
                    </g>
                </g>
            </g>
        </g>
    </g>
</svg>