<svg width="70" height="64" viewBox="0 0 70 64" xmlns="http://www.w3.org/2000/svg"><title>white/icon-branding-hl7-large-white</title><path d="M.748 33.458c-.413-.805-.413-2.112 0-2.916L15.662 1.458C16.075.653 17.148 0 18.044 0H51.7c.903 0 1.97.654 2.382 1.458l14.915 29.084c.413.805.412 2.112 0 2.916L54.08 62.542C53.668 63.347 52.596 64 51.7 64H18.044c-.902 0-1.969-.654-2.382-1.458L.748 33.458zm26.575 3.003h-7.5v5.52c0 1.205-.647 1.515-1.562.693L9.005 34.31c-.914-.822-.89-2.155.024-2.977l9.221-8.365c.914-.823 1.574-.512 1.574.694v5.553h7.525a.253.253 0 0 0-.106.145c-.089.307-.375.582-.664.606l-1.274.095c-.184 0-.447.167-.447.371v4.59c0 .204.263.37.447.37l1.216.096c.29.023.6.298.686.606.035.124.074.247.116.368zm16.232 0h7.312v5.52c0 1.205.619 1.515 1.5.693l8.916-8.365c.882-.822.858-2.155-.023-2.977l-8.881-8.365c-.881-.823-1.512-.512-1.512.694v5.553h-7.253c.015.049.03.098.043.147.089.307.374.581.664.603l1.14.096c.184 0 .162.167.162.371v4.59c0 .204.022.37-.162.37l-1.132.096c-.29.023-.574.297-.66.605a7.729 7.729 0 0 1-.114.37zm-8.087.445c-2.243 0-4.068-1.866-4.068-4.16 0-2.295 1.825-4.161 4.068-4.161 2.244 0 4.069 1.866 4.069 4.16 0 2.295-1.825 4.161-4.069 4.161zm7.5-5.778c-.316-.022-.627-.296-.723-.604a7.285 7.285 0 0 0-.431-1.075c-.144-.288-.112-.708.095-.951l.9-1.062c.142-.145.118-.355-.024-.5l-1.564-1.6c-.141-.144-.346-.17-.488-.024l-1.021.906c-.239.211-.647.24-.926.09a7.002 7.002 0 0 0-1.084-.473c-.3-.101-.567-.421-.59-.743l-.094-1.3c0-.205-.162-.26-.362-.26h-2.212c-.2 0-.363.055-.363.26l-.091 1.279c-.023.322-.292.627-.594.72-.401.125-.787.28-1.155.472-.28.146-.691.112-.93-.1l-.968-.86c-.141-.144-.355-.128-.497.016l-1.564 1.6c-.142.145-.157.363-.015.508l.823.971c.207.244.235.661.087.947a7.333 7.333 0 0 0-.485 1.178c-.096.307-.408.582-.722.606l-1.387.095c-.2 0-.486.166-.486.37v2.263c0 .205.286.37.486.37l1.324.096c.315.023.652.298.746.606.13.424.31.83.51 1.216.148.286.127.703-.08.947l-.811.96c-.142.145-.116.355.026.5l1.565 1.599c.141.145.347.17.489.025l.956-.848c.239-.212.649-.244.93-.097a6.99 6.99 0 0 0 1.157.477c.302.094.571.408.593.73l.093 1.379c0 .204.162.417.363.417h2.212c.2 0 .362-.213.362-.417l.096-1.4c.022-.322.29-.651.589-.753a7 7 0 0 0 1.086-.477c.28-.151.687-.125.926.086l1.01.895c.141.145.337.11.479-.035l1.564-1.6c.141-.144.174-.345.033-.49l-.892-1.05c-.207-.245-.238-.664-.095-.952.176-.355.325-.727.443-1.113.095-.308.404-.582.719-.605l1.232-.095c.2 0 .177-.166.177-.37v-2.263c0-.205.023-.37-.177-.37l-1.24-.097z" fill="#FFF" fill-rule="evenodd"/></svg>