<?xml version="1.0" encoding="UTF-8" standalone="no"?>
<svg width="32px" height="32px" viewBox="0 0 32 32" version="1.1" xmlns="http://www.w3.org/2000/svg" xmlns:xlink="http://www.w3.org/1999/xlink">
    <!-- Generator: Sketch 3.8.3 (29802) - http://www.bohemiancoding.com/sketch -->
    <title>dark gray/icon-ui-open-source-dark-gray</title>
    <desc>Created with Sketch.</desc>
    <defs></defs>
    <g id="gray" stroke="none" stroke-width="1" fill="none" fill-rule="evenodd">
        <g id="icons,-utility-(gray)" transform="translate(-543.000000, -369.000000)" fill="#242F36">
            <g id="dark-gray/icon-ui-open-source-dark-gray" transform="translate(543.000000, 369.000000)">
                <g id="Oval-5">
                    <g id="Page-1">
                        <path d="M22.1538462,31.6592254 C26.493635,29.9524043 29.9524043,26.493635 31.6592254,22.1538462 L28.0622533,22.1538462 C26.7652082,24.6911265 24.6911265,26.7652082 22.1538462,28.0622533 L22.1538462,31.6592254 L22.1538462,31.6592254 Z M9.84615385,31.6592254 C5.50636507,29.9524043 2.04759566,26.493635 0.340774557,22.1538462 L3.93774669,22.1538462 C5.23479177,24.6911265 7.30887349,26.7652082 9.84615385,28.0622533 L9.84615385,31.6592254 L9.84615385,31.6592254 Z M31.6592254,9.84615385 C29.9524043,5.50636507 26.493635,2.04759566 22.1538462,0.340774557 L22.1538462,3.93774669 C24.6911265,5.23479177 26.7652082,7.30887349 28.0622533,9.84615385 L31.6592254,9.84615385 L31.6592254,9.84615385 Z M0.340774557,9.84615385 C2.04759566,5.50636507 5.50636507,2.04759566 9.84615385,0.340774557 L9.84615385,3.93774669 C7.30887349,5.23479177 5.23479177,7.30887349 3.93774669,9.84615385 L0.340774557,9.84615385 L0.340774557,9.84615385 Z M16,24.6153846 C20.7581456,24.6153846 24.6153846,20.7581456 24.6153846,16 C24.6153846,11.2418544 20.7581456,7.38461538 16,7.38461538 C11.2418544,7.38461538 7.38461538,11.2418544 7.38461538,16 C7.38461538,20.7581456 11.2418544,24.6153846 16,24.6153846 L16,24.6153846 Z" id="Oval-5"></path>
                    </g>
                </g>
            </g>
        </g>
    </g>
</svg>