<?xml version="1.0" encoding="UTF-8" standalone="no"?>
<svg width="72px" height="64px" viewBox="0 0 72 64" version="1.1" xmlns="http://www.w3.org/2000/svg" xmlns:xlink="http://www.w3.org/1999/xlink">
    <!-- Generator: Sketch 3.8.3 (29802) - http://www.bohemiancoding.com/sketch -->
    <title>white/icon-large-cli-prompt-white</title>
    <desc>Created with Sketch.</desc>
    <defs></defs>
    <g id="white" stroke="none" stroke-width="1" fill="none" fill-rule="evenodd">
        <g id="icons,-large-detailed-white" transform="translate(-86.000000, -581.000000)" fill="#FFFFFF">
            <g id="white/icon-large-cli-prompt-white" transform="translate(86.000000, 581.000000)">
                <g id="&gt;_">
                    <g id="Page-1">
                        <g id="Stratum-2016_02_16-kg-v1.2">
                            <g id="dashboard">
                                <g id="cli">
                                    <path d="M0,3.5550352 C0,1.59164345 1.58495969,0 3.55074066,0 L67.5603705,0 C69.5213904,0 71.1111111,1.58203125 71.1111111,3.5550352 L71.1111111,60.4449648 C71.1111111,62.4083566 69.5261515,64 67.5603705,64 L3.55074066,64 C1.58972074,64 0,62.4179687 0,60.4449648 L0,3.5550352 L0,3.5550352 Z M1.77777778,8.88233796 C1.77777778,7.90411644 2.58352052,7.11111111 3.55000071,7.11111111 L67.5611104,7.11111111 C68.5398821,7.11111111 69.3333333,7.89017902 69.3333333,8.88233796 L69.3333333,60.4509954 C69.3333333,61.4292169 68.5275906,62.2222222 67.5611104,62.2222222 L3.55000071,62.2222222 C2.57122901,62.2222222 1.77777778,61.4431543 1.77777778,60.4509954 L1.77777778,8.88233796 L1.77777778,8.88233796 Z M32.4153451,32.8544603 C32.4153452,30.4277566 12.1787243,18.1354418 12.1787243,18.1354418 C11.3436379,17.62216 10.6666667,18.0092286 10.6666667,18.9824848 L10.6666667,23.8060549 C10.6666667,24.7871458 11.3476689,26.015595 12.1614521,26.5331618 L20.6058018,31.9037755 C21.431349,32.4288242 21.4364299,33.2925785 20.6058018,33.8405106 L12.1614521,39.4109111 C11.3359049,39.9554916 10.6666667,41.2001271 10.6666667,42.1733833 L10.6666667,46.9969534 C10.6666667,47.9780443 11.3414102,48.3519383 12.1615414,47.8360322 C12.1615414,47.8360322 32.4153449,35.2811641 32.4153451,32.8544603 L32.4153451,32.8544603 Z M34.0450267,51.1200087 C33.0653465,51.1200087 32.2711589,51.9221468 32.2711589,52.8822092 L32.2711589,55.1266884 C32.2711589,56.0999248 33.0554716,56.8888889 34.0450267,56.8888889 L62.2261323,56.8888889 C63.2058123,56.8888889 64,56.0867508 64,55.1266884 L64,52.8822092 C64,51.9089728 63.2156873,51.1200087 62.2261323,51.1200087 L34.0450267,51.1200087 L34.0450267,51.1200087 Z" id="&gt;_"></path>
                                </g>
                            </g>
                        </g>
                    </g>
                </g>
            </g>
        </g>
    </g>
</svg>