<?xml version="1.0" encoding="UTF-8" standalone="no"?>
<svg width="66px" height="64px" viewBox="0 0 66 64" version="1.1" xmlns="http://www.w3.org/2000/svg" xmlns:xlink="http://www.w3.org/1999/xlink">
    <!-- Generator: Sketch 3.8.3 (29802) - http://www.bohemiancoding.com/sketch -->
    <title>white/icon-large-bearings-white</title>
    <desc>Created with Sketch.</desc>
    <defs></defs>
    <g id="white" stroke="none" stroke-width="1" fill="none" fill-rule="evenodd">
        <g id="icons,-large-detailed-white" transform="translate(-89.000000, -414.000000)" fill="#FFFFFF">
            <g id="white/icon-large-bearings-white" transform="translate(89.000000, 414.000000)">
                <g id="Outter">
                    <g id="Page-1">
                        <path d="M5.17216804,28.6002423 C6.70853553,16.2703993 16.8063972,6.50453555 29.5176617,5.08239993 L32.9375588,0 L36.3944167,5.1373281 C48.889826,6.73983633 58.7644895,16.4187041 60.2823775,28.6002423 L65.4545455,32.0805436 L60.2224986,35.6011367 C58.5208445,47.5709127 48.7359233,57.0323191 36.3944167,58.6150897 L32.9375588,63.7524177 L29.5176617,58.6700179 C16.9610753,57.2651876 6.9546761,47.7184566 5.23204685,35.6011367 L0,32.0805436 L5.17216804,28.6002423 L5.17216804,28.6002423 Z M32.8847158,55.6441005 C46.5256129,55.6441005 57.5837449,44.8989345 57.5837449,31.6441005 C57.5837449,18.3892666 46.5256129,7.64410058 32.8847158,7.64410058 C19.2438186,7.64410058 8.18568665,18.3892666 8.18568665,31.6441005 C8.18568665,44.8989345 19.2438186,55.6441005 32.8847158,55.6441005 L32.8847158,55.6441005 Z M48.9881359,19.8065764 L26.9226809,40.0651695 L27.4721158,33.3837904 L20.967118,31.1539568 L48.9881359,19.8065764 L48.9881359,19.8065764 L48.9881359,19.8065764 Z M32.4102188,30.2677085 C32.6632316,30.6462874 33.1841767,30.7538839 33.5737823,30.5080319 C33.9633878,30.2621798 34.0741181,29.7559783 33.8211053,29.3773993 C33.5680925,28.9988204 33.0471473,28.8912239 32.6575418,29.1370759 C32.2679363,29.382928 32.157206,29.8891295 32.4102188,30.2677085 L32.4102188,30.2677085 L32.4102188,30.2677085 Z" id="Outter"></path>
                    </g>
                </g>
            </g>
        </g>
    </g>
</svg>