<svg width="32" height="32" viewBox="0 0 32 32" xmlns="http://www.w3.org/2000/svg"><title>white/icon-ui-faq-q-alt-white</title><path d="M16 32c8.837 0 16-7.163 16-16S24.837 0 16 0 0 7.163 0 16s7.163 16 16 16zm6.608-9.559h-2.29l-.945-.969c-1.005.646-2.125.969-3.36.969-1.598 0-3.017-.542-4.257-1.625-1.349-1.193-2.023-2.716-2.023-4.57 0-1.818.638-3.334 1.914-4.547 1.24-1.177 2.703-1.766 4.39-1.766 1.532 0 2.904.516 4.118 1.547 1.458 1.24 2.187 2.857 2.187 4.852 0 1.562-.576 2.95-1.727 4.164l1.993 1.945zM17.6 17.449l1.75 1.742c.77-.802 1.156-1.794 1.156-2.977 0-1.296-.43-2.382-1.289-3.257-.86-.875-1.927-1.313-3.203-1.313-1.292 0-2.354.438-3.188 1.313-.838.87-1.257 1.97-1.257 3.304 0 1.302.432 2.367 1.296 3.196.901.854 1.93 1.28 3.086 1.28.787 0 1.498-.179 2.133-.538l-2.836-2.75H17.6z" fill="#FFF" fill-rule="evenodd"/></svg>