<svg width="32" height="32" viewBox="0 0 32 32" xmlns="http://www.w3.org/2000/svg"><title>white/icon-ui-redpoint-bell-white</title><path d="M16 32c8.837 0 16-7.163 16-16S24.837 0 16 0 0 7.163 0 16s7.163 16 16 16zm0-.889c8.346 0 15.111-6.765 15.111-15.111S24.346.889 16 .889.889 7.654.889 16 7.654 31.111 16 31.111zm5.696-11.316c.021-.165.021-.331.021-.518v-4.31a5.638 5.638 0 0 0-3.75-5.304c.041-.165.062-.352.062-.538 0-1.078-.87-1.948-1.948-1.948-1.077 0-1.948.87-1.948 1.948 0 .186.021.373.083.538a5.61 5.61 0 0 0-3.75 5.305v4.31c0 .186 0 .352.02.517L8.312 21.91c0 .456.394.85.85.85h4.993c0 .082-.02.165-.02.248 0 1.077.87 1.948 1.947 1.948 1.078 0 1.948-.87 1.948-1.948 0-.083 0-.166-.02-.249h5.013c.456 0 .85-.393.85-.85l-2.176-2.113zm-6.692-10.67c0-.601.476-1.078 1.077-1.078s1.098.477 1.098 1.078c0 .103-.02.207-.062.31a5.665 5.665 0 0 0-1.036-.103c-.352 0-.684.041-1.036.103-.02-.103-.041-.207-.041-.31z" fill="#FFF" fill-rule="evenodd"/></svg>