<svg width="32" height="32" viewBox="0 0 32 32" xmlns="http://www.w3.org/2000/svg"><title>dark gray/icon-ui-hl7-signup-gear-dark-gray</title><path d="M16.398 22.884c-3.926 0-7.119-3.194-7.119-7.119 0-3.926 3.193-7.119 7.119-7.119 3.925 0 7.119 3.193 7.119 7.12 0 3.924-3.194 7.118-7.12 7.118zm13.121-9.886c-.551-.038-1.096-.507-1.264-1.033a12.306 12.306 0 0 0-.755-1.84c-.25-.493-.195-1.21.167-1.628l1.576-1.817c.248-.248.205-.607-.043-.854l-2.736-2.737c-.248-.248-.607-.29-.855-.043l-1.786 1.55c-.418.362-1.132.411-1.62.154-.605-.32-1.238-.59-1.896-.808-.525-.174-.993-.722-1.033-1.273L19.11.446c0-.35-.284-.446-.634-.446h-3.87c-.35 0-.635.096-.635.446l-.16 2.188c-.039.55-.51 1.073-1.038 1.233-.702.213-1.377.479-2.02.806-.492.25-1.21.192-1.628-.17L7.43 3.034c-.247-.248-.622-.221-.87.026L3.824 5.795c-.248.248-.275.622-.027.87l1.441 1.662c.362.417.411 1.131.152 1.62-.34.64-.624 1.314-.849 2.015-.169.526-.713.997-1.263 1.037l-2.427.163c-.35 0-.851.285-.851.634v3.871c0 .35.5.634.85.634l2.318.163c.55.04 1.14.51 1.306 1.038.227.724.542 1.42.892 2.08.258.489.22 1.202-.141 1.62l-1.42 1.643c-.247.247-.201.606.046.854l2.739 2.737c.248.247.607.29.855.043l1.674-1.452c.417-.362 1.135-.416 1.627-.165.644.328 1.321.602 2.024.816.53.16 1 .698 1.038 1.25l.162 2.358c0 .35.285.714.636.714h3.87c.35 0 .633-.364.633-.714l.168-2.394c.038-.552.506-1.115 1.03-1.289.66-.218 1.296-.497 1.901-.817.488-.259 1.203-.214 1.62.148l1.766 1.531c.248.248.591.189.84-.06l2.735-2.736c.249-.248.306-.592.059-.84l-1.56-1.798c-.362-.417-.417-1.135-.167-1.627.308-.608.569-1.245.775-1.905.166-.527.707-.996 1.258-1.034l2.155-.164c.35 0 .31-.284.31-.634v-3.87c0-.35.04-.635-.31-.635l-2.17-.164z" fill="#242F36" fill-rule="evenodd"/></svg>