<svg width="38" height="31" viewBox="0 0 38 31" xmlns="http://www.w3.org/2000/svg"><title>dark gray/icon-ui-twitter-press-dark-gray</title><path d="M.489 25.808c0 .473.227.882.607 1.186.397.273.962.59 1.77 1.007 3.088 1.595 6.338 2.395 9.736 2.395 4.224 0 8.075-1.092 11.535-3.271a19.984 19.984 0 0 0 4.405-3.766c1.28-1.463 2.3-2.996 3.058-4.596a23.74 23.74 0 0 0 1.684-4.761c.375-1.6.55-3.162.525-4.682v-.623h-.889l.518.722c1.515-1.087 2.71-2.34 3.575-3.757.167-.326.24-.546.24-.791 0-.4-.158-.764-.443-1.048a1.463 1.463 0 0 0-1.047-.443c-.257 0-.496.08-.816.23-.051.011-.233.073-.448.146-.216.075-.403.14-.559.196a5.59 5.59 0 0 1-.215.074l.215.863.662.593c.364-.405.727-.933 1.096-1.586.411-.727.625-1.282.625-1.759 0-.405-.163-.774-.458-1.054a1.5 1.5 0 0 0-1.05-.418c-.272 0-.53.081-.763.227-1.265.674-2.484 1.15-3.603 1.398l.806.223C29.619.96 27.645.173 25.376.173c-2.323 0-4.328.821-5.965 2.445-1.638 1.624-2.468 3.613-2.468 5.915 0 .421.03.778.092 1.076l.87-.183.073-.886a18.157 18.157 0 0 1-5.664-1.407A17.45 17.45 0 0 1 7.422 4.01C7.106 3.705 6.433 3 5.435 1.932c-.331-.332-.726-.501-1.16-.501-.463 0-.835.238-1.145.62-.423.627-.71 1.296-.917 2.072a8.716 8.716 0 0 0-.303 2.242c0 2.017.637 3.799 1.902 5.308l.682-.57.386-.801-.528-.255c-.437-.193-.76-.289-1.06-.289a1.65 1.65 0 0 0-1.104.4 1.486 1.486 0 0 0-.515 1.145c0 1.432.37 2.793 1.102 4.069a8.44 8.44 0 0 0 2.97 3.05l.462-.76.146-.876-.219-.037c-.073-.012-.032-.005-.002.004-.068-.02-.068-.02-.129-.035-.09-.022-.09-.022-.27-.036-.406 0-.774.164-1.055.46-.266.28-.417.63-.417 1.012 0 .106 0 .111.054.375.486 1.51 1.256 2.712 2.33 3.697a8.309 8.309 0 0 0 3.767 1.987l-.261-1.623c-1.973 1.214-4.144 1.819-6.532 1.819a9.04 9.04 0 0 1-.734-.051c-.59-.03-.853-.04-.924-.04-.406 0-.774.163-1.055.458-.27.284-.417.642-.417 1.032zm1.778 0a.303.303 0 0 1-.072.193.346.346 0 0 1-.234.094c.026 0 .322.013.796.036.36.035.656.055.862.055 2.714 0 5.208-.695 7.463-2.081l1.834-1.128-2.096-.495a6.532 6.532 0 0 1-2.974-1.566 6.528 6.528 0 0 1-1.815-2.837c.031.123.008-.006.008.075a.328.328 0 0 1-.072.212.346.346 0 0 1-.234.094c-.138-.01-.138-.01-.161-.017l.072.02c.115.032.222.052.344.052l.072.024 4.54.757-3.931-2.393a6.663 6.663 0 0 1-2.352-2.417 6.28 6.28 0 0 1-.866-3.183c0 .06-.039.147-.096.197a.195.195 0 0 1-.064.036c-.01 0 .117.037.316.125l.5.242L7.83 13.7l-2.655-3.168C4.18 9.345 3.688 7.968 3.688 6.365c0-.578.08-1.172.244-1.786.158-.596.369-1.087.627-1.475-.044.06-.112.104-.284.104a.202.202 0 0 1-.118-.041c.997 1.07 1.685 1.788 2.052 2.143a19.259 19.259 0 0 0 5.407 3.458 19.935 19.935 0 0 0 6.216 1.544l1.189.098-.246-1.167a3.665 3.665 0 0 1-.054-.71c0-1.828.64-3.362 1.942-4.653 1.303-1.292 2.857-1.929 4.713-1.929 1.813 0 3.35.611 4.654 1.851l.343.326.462-.103c1.287-.286 2.655-.819 4.108-1.596.013-.006-.05.014-.128.014a.28.28 0 0 1-.175-.071.346.346 0 0 1-.094-.235c0 .082-.126.408-.395.884-.311.55-.604.975-.872 1.274l-1.936 2.16 2.813-.704c.088-.022.205-.061.386-.126a67.396 67.396 0 0 1 1.064-.367c.19-.082.243-.1.157-.1a.319.319 0 0 1-.21-.078.319.319 0 0 1-.078-.21c0-.1 0-.1-.015-.069-.702 1.141-1.73 2.22-3.058 3.174l-.37.266v1.094a17.35 17.35 0 0 1-.479 4.262A21.965 21.965 0 0 1 29.993 18c-.686 1.449-1.615 2.845-2.79 4.188a18.205 18.205 0 0 1-4.014 3.432c-3.173 1.999-6.695 2.997-10.587 2.997-3.112 0-6.082-.731-8.921-2.197-.748-.386-1.264-.675-1.53-.856a.29.29 0 0 1 .116.243z" fill="#242F36" fill-rule="evenodd"/></svg>