<?xml version="1.0" encoding="UTF-8" standalone="no"?>
<svg width="56px" height="57px" viewBox="0 0 56 57" version="1.1" xmlns="http://www.w3.org/2000/svg" xmlns:xlink="http://www.w3.org/1999/xlink">
    <!-- Generator: Sketch 3.8.3 (29802) - http://www.bohemiancoding.com/sketch -->
    <title>white/icon-large-chip-white</title>
    <desc>Created with Sketch.</desc>
    <defs></defs>
    <g id="white" stroke="none" stroke-width="1" fill="none" fill-rule="evenodd">
        <g id="icons,-large-detailed-white" transform="translate(-458.000000, -251.000000)" fill="#FFFFFF">
            <g id="white/icon-large-chip-white" transform="translate(458.000000, 251.000000)">
                <g id="chip-icon">
                    <g id="PaaS">
                        <g id="eip_v.1.1_2015-06-06_Kris">
                            <g id="Features">
                                <g id="Prod-List">
                                    <g id="Compute" transform="translate(0.000000, 0.050147)">
                                        <g id="chip-icon">
                                            <path d="M9.33333333,11.3532906 C9.33333333,10.6034707 9.9359162,10 10.6866239,10 L45.3133761,10 C46.063196,10 46.6666667,10.6025829 46.6666667,11.3532906 L46.6666667,45.9800427 C46.6666667,46.7298627 46.0640838,47.3333333 45.3133761,47.3333333 L10.6866239,47.3333333 C9.93680399,47.3333333 9.33333333,46.7307505 9.33333333,45.9800427 L9.33333333,11.3532906 L9.33333333,11.3532906 Z M6.66666667,11.3532906 L6.66666667,45.9800427 C6.66666667,48.2043894 8.46492279,50 10.6866239,50 L45.3133761,50 C47.5377227,50 49.3333333,48.2017439 49.3333333,45.9800427 L49.3333333,11.3532906 C49.3333333,9.12894397 47.5350772,7.33333333 45.3133761,7.33333333 L10.6866239,7.33333333 C8.4622773,7.33333333 6.66666667,9.13158946 6.66666667,11.3532906 L6.66666667,11.3532906 Z" id="Rectangle-63"></path>
                                            <rect id="Rectangle-63-Copy" x="48" y="16.6165199" width="8" height="2.66666667"></rect>
                                            <rect id="Rectangle-63-Copy-2" x="48" y="27.2831867" width="8" height="2.66666667"></rect>
                                            <rect id="Rectangle-63-Copy-3" x="48" y="37.9498533" width="8" height="2.66666667"></rect>
                                            <rect id="Rectangle-63-Copy-6" x="0" y="16.6165199" width="8" height="2.66666667"></rect>
                                            <rect id="Rectangle-63-Copy-4" x="0" y="27.2831867" width="8" height="2.66666667"></rect>
                                            <rect id="Rectangle-63-Copy-5" x="0" y="37.9498533" width="8" height="2.66666667"></rect>
                                            <rect id="Rectangle-63-Copy-9" transform="translate(38.666667, 4.616520) rotate(90.000000) translate(-38.666667, -4.616520) " x="34.6666667" y="3.28318667" width="8" height="2.66666667"></rect>
                                            <rect id="Rectangle-63-Copy-7" transform="translate(28.000000, 4.616520) rotate(90.000000) translate(-28.000000, -4.616520) " x="24.0000001" y="3.28318667" width="8" height="2.66666667"></rect>
                                            <rect id="Rectangle-63-Copy-8" transform="translate(17.333333, 4.616520) rotate(90.000000) translate(-17.333333, -4.616520) " x="13.3333334" y="3.28318667" width="8" height="2.66666667"></rect>
                                            <rect id="Rectangle-63-Copy-12" transform="translate(38.666667, 52.666667) rotate(90.000000) translate(-38.666667, -52.666667) " x="34.6666667" y="51.3333333" width="8" height="2.66666667"></rect>
                                            <rect id="Rectangle-63-Copy-10" transform="translate(28.000000, 52.666667) rotate(90.000000) translate(-28.000000, -52.666667) " x="24" y="51.3333333" width="8" height="2.66666667"></rect>
                                            <rect id="Rectangle-63-Copy-11" transform="translate(17.333333, 52.666667) rotate(90.000000) translate(-17.333333, -52.666667) " x="13.3333333" y="51.3333333" width="8" height="2.66666667"></rect>
                                            <g id="Path-51-+-Oval-2" transform="translate(9.000000, 27.216456)">
                                                <polygon id="Path-51" points="0.333333333 2.94985329 8.33333333 2.94985329 7.51474585 2.66898958 19.5147458 12.0023229 19.8758563 12.2831866 20.3333333 12.2831866 25.6666667 12.2831866 25.6666667 9.61651995 20.3333333 9.61651995 21.1519208 9.89738366 9.15192082 0.564050329 8.79081033 0.283186619 8.33333333 0.283186619 0.333333333 0.283186619"></polygon>
                                                <ellipse id="Oval-2" cx="25.6666667" cy="10.9498533" rx="2.66666667" ry="2.66666667"></ellipse>
                                            </g>
                                            <g id="Path-51-Copy-+-Oval-2-Copy" transform="translate(32.500000, 23.283187) rotate(180.000000) translate(-32.500000, -23.283187) translate(18.000000, 16.283187)">
                                                <polygon id="Path-51-Copy" points="0.333333333 2.94985329 8.33333333 2.94985329 7.51474585 2.66898958 19.5147458 12.0023229 19.8758563 12.2831866 20.3333333 12.2831866 25.6666667 12.2831866 25.6666667 9.61651995 20.3333333 9.61651995 21.1519208 9.89738366 9.15192082 0.564050329 8.79081033 0.283186619 8.33333333 0.283186619 0.333333333 0.283186619"></polygon>
                                                <ellipse id="Oval-2-Copy" cx="25.6666667" cy="10.9498533" rx="2.66666667" ry="2.66666667"></ellipse>
                                            </g>
                                        </g>
                                    </g>
                                </g>
                            </g>
                        </g>
                    </g>
                </g>
            </g>
        </g>
    </g>
</svg>