<?xml version="1.0" encoding="UTF-8" standalone="no"?>
<svg width="32px" height="32px" viewBox="0 0 32 32" version="1.1" xmlns="http://www.w3.org/2000/svg" xmlns:xlink="http://www.w3.org/1999/xlink">
    <!-- Generator: Sketch 3.8.3 (29802) - http://www.bohemiancoding.com/sketch -->
    <title>dark gray/icon-ui-checkmark-green-dark-gray</title>
    <desc>Created with Sketch.</desc>
    <defs></defs>
    <g id="gray" stroke="none" stroke-width="1" fill="none" fill-rule="evenodd">
        <g id="icons,-utility-(gray)" transform="translate(-518.000000, -765.000000)" fill="#242F36">
            <g id="dark-gray/icon-ui-checkmark-green-dark-gray" transform="translate(518.000000, 765.000000)">
                <g id="Fill-136">
                    <g id="PaaS">
                        <g id="thankyou">
                            <g id="Thanks">
                                <path d="M24.435,12.186334 L13.736,22.885 C13.3636667,23.257334 12.7596667,23.257334 12.387,22.885 L7.456,17.954 C7.08366666,17.581666 7.08366666,16.977334 7.456,16.605 L8.26566666,15.795666 C8.638,15.423 9.24233334,15.423 9.615,15.795666 L13.0616667,19.242334 L22.2763334,10.027334 C22.6493334,9.655 23.253,9.655 23.6256666,10.027334 L24.435,10.837 C24.8073334,11.209334 24.8073334,11.813334 24.435,12.186334 M16,0 C7.16366666,0 0,7.163666 0,16 C0,24.836666 7.16366666,32 16,32 C24.8366666,32 32,24.836666 32,16 C32,7.163666 24.8366666,0 16,0" id="Fill-136"></path>
                            </g>
                        </g>
                    </g>
                </g>
            </g>
        </g>
    </g>
</svg>