<?xml version="1.0" encoding="UTF-8" standalone="no"?>
<svg width="29px" height="30px" viewBox="0 0 29 30" version="1.1" xmlns="http://www.w3.org/2000/svg" xmlns:xlink="http://www.w3.org/1999/xlink">
    <!-- Generator: Sketch 3.8.3 (29802) - http://www.bohemiancoding.com/sketch -->
    <title>blue/icon-ui-lockout-blue</title>
    <desc>Created with Sketch.</desc>
    <defs></defs>
    <g id="blue,-base" stroke="none" stroke-width="1" fill="none" fill-rule="evenodd">
        <g id="icons,-utility-(blue)" transform="translate(-412.000000, -369.000000)" fill="#1055FF">
            <g id="blue/icon-ui-lockout-blue" transform="translate(412.000000, 369.000000)">
                <g id="Fill-96">
                    <g id="PaaS">
                        <g id="paas">
                            <g id="Features">
                                <g id="PaaS-List">
                                    <g id="Lockout" transform="translate(0.000000, 0.198604)">
                                        <g id="Export" transform="translate(0.000000, 0.579173)">
                                            <path d="M15.0209483,19.6270551 L13.5293928,19.6270551 C12.8888002,19.6270551 12.3714669,19.2486846 12.3714669,18.6107588 L12.3714669,6.05668468 L9.32405945,6.05668468 C8.68346686,6.05668468 8.51842981,5.60749948 8.95546686,5.14112912 L13.4016891,0.358906896 C13.8384298,-0.107463474 14.5468743,-0.125537549 14.983615,0.341129118 L19.429541,5.14972171 C19.8668743,5.61609209 19.701541,6.05668468 19.0609483,6.05668468 L16.2233187,6.05668468 L16.2233187,18.6107588 C16.2233187,19.2486846 15.6615409,19.6270551 15.0209483,19.6270551 L15.0209483,19.6270551 Z M0.897216796,19.5555556 C0.401697643,19.5555556 -2.28910676e-19,19.9374999 2.2102266e-17,20.4403534 L3.38262396e-16,27.5596466 C3.59963274e-16,28.048307 0.402323924,28.4444444 0.882969104,28.4444444 L27.5773433,28.4444444 C28.0649936,28.4444444 28.4603124,28.0624994 28.4603124,27.559645 L28.4603124,20.4403392 C28.4603124,19.951678 28.0781076,19.5555397 27.5590914,19.5555397 L25.7901099,19.5555397 C25.2923792,19.5555397 24.8888889,19.9391012 24.8888889,20.436234 L24.8888889,24.0081948 C24.8888889,24.4945886 24.4817767,24.8888889 23.9993826,24.8888889 L4.4450619,24.8888889 C3.9538011,24.8888889 3.55555556,24.5053287 3.55555556,24.0081973 L3.55555556,20.4362471 C3.55555556,19.9498546 3.17504884,19.5555556 2.65833876,19.5555556 L0.897216796,19.5555556 L0.897216796,19.5555556 Z" id="Fill-96"></path>
                                        </g>
                                    </g>
                                </g>
                            </g>
                        </g>
                    </g>
                </g>
            </g>
        </g>
    </g>
</svg>