<?xml version="1.0" encoding="UTF-8" standalone="no"?>
<svg width="49px" height="30px" viewBox="0 0 49 30" version="1.1" xmlns="http://www.w3.org/2000/svg" xmlns:xlink="http://www.w3.org/1999/xlink">
    <!-- Generator: Sketch 3.8.3 (29802) - http://www.bohemiancoding.com/sketch -->
    <title>blue/icon-ui-cloud-blue</title>
    <desc>Created with Sketch.</desc>
    <defs></defs>
    <g id="blue,-base" stroke="none" stroke-width="1" fill="none" fill-rule="evenodd">
        <g id="icons,-utility-(blue)" transform="translate(-650.000000, -766.000000)" fill="#1055FF">
            <g id="blue/icon-ui-cloud-blue" transform="translate(650.000000, 765.000000)">
                <g id="Fill-92">
                    <g id="PaaS">
                        <g id="products">
                            <g id="Products">
                                <g id="PaaS">
                                    <g id="Features">
                                        <g id="PaaS-List">
                                            <g id="Private-Cloud" transform="translate(0.000000, 0.018805)">
                                                <path d="M7.87940464,30.981195 L9.68671928,30.981195 L39.5843018,30.981195 L41.3616722,30.981195 C45.6685725,30.4906462 49,26.9464314 49,22.6379417 C49,18.7640781 46.3090755,15.5352862 42.6345576,14.5281896 C42.6462308,14.3040088 42.6523212,14.0847335 42.6523212,13.8585905 C42.6523212,6.74465237 36.6857974,0.981194982 29.3266111,0.981194982 C23.5762952,0.981194982 18.6771073,4.50186344 16.8099041,9.43384068 C15.7430758,8.44047944 14.2940774,7.82925568 12.6958652,7.82925568 C9.42178858,7.82925568 6.76740621,10.3943351 6.76740621,13.5588652 C6.76740621,13.7016149 6.77501916,13.8424024 6.78516976,13.9831899 C2.8842935,14.945156 0,18.3407345 0,22.4108176 C0,26.8527366 3.43750129,30.4906462 7.87940464,30.981195" id="Fill-92"></path>
                                            </g>
                                        </g>
                                    </g>
                                </g>
                            </g>
                        </g>
                    </g>
                </g>
            </g>
        </g>
    </g>
</svg>