<?xml version="1.0" encoding="UTF-8" standalone="no"?>
<svg width="43px" height="32px" viewBox="0 0 43 32" version="1.1" xmlns="http://www.w3.org/2000/svg" xmlns:xlink="http://www.w3.org/1999/xlink">
    <!-- Generator: Sketch 3.8.3 (29802) - http://www.bohemiancoding.com/sketch -->
    <title>dark gray/icon-ui-pictures-dark-gray</title>
    <desc>Created with Sketch.</desc>
    <defs></defs>
    <g id="gray" stroke="none" stroke-width="1" fill="none" fill-rule="evenodd">
        <g id="icons,-utility-(gray)" transform="translate(-388.000000, -897.000000)" fill="#242F36">
            <g id="dark-gray/icon-ui-pictures-dark-gray" transform="translate(388.000000, 897.000000)">
                <g id="icon-pictures">
                    <g id="Page-1">
                        <path d="M6.66666667,5.33333333 C5.79267368,5.33333333 5.33333333,5.95847947 5.33333333,6.79956055 L5.33333333,30.4056396 C5.33333333,31.2467207 5.79267368,32 6.66666667,32 L41.3296281,32 C42.2027228,32 42.6666667,31.2467027 42.6666667,30.4056216 L42.6666667,6.79956757 C42.6666667,5.95848648 42.2772696,5.33333333 41.4041748,5.33333333 L6.66666667,5.33333333 L6.66666667,5.33333333 Z M41.3333333,30.6666667 L6.66666667,30.6666667 L6.66666667,6.66666667 L41.3333333,6.66666667 L41.3333333,30.6666667 L41.3333333,30.6666667 Z M38.2991719,22.2438924 L37.4348351,20.0103789 C37.1020351,19.4668113 36.3030456,18.8998924 35.6684351,18.7442168 L32.1513544,19.0252979 C31.9398176,18.9729735 31.6874105,18.7779465 31.5926456,18.5885411 L29.1166316,12.534487 C28.8314385,11.9667033 28.3652491,11.9658384 28.0773615,12.5327573 L22.3461052,23.8240005 C22.2504421,24.0129735 22.0236351,24.0730816 21.8408421,23.9584871 L16.3444772,20.5068113 C15.7952,20.1625952 15.0442667,20.2944871 14.6670035,20.8103789 L9.33333333,28 L38.6666667,28 L38.6666667,23.6614176 C38.6666667,23.2406609 38.5205895,22.6062708 38.2991719,22.2438924 L38.2991719,22.2438924 Z M14.4451368,15.7085405 C15.9739509,15.7085405 17.2130807,14.5154595 17.2130807,13.0434595 C17.2130807,11.5714595 15.9739509,10.3783784 14.4451368,10.3783784 C12.9167719,10.3783784 11.677193,11.5714595 11.677193,13.0434595 C11.677193,14.5154595 12.9167719,15.7085405 14.4451368,15.7085405 L14.4451368,15.7085405 Z M4.19233404,26.9455856 L3.00249543,26.9685045 L1.48586385,3.45902701 L36.5090217,1.26284683 L36.7362217,3.83437837 L38.0382288,3.69816216 L37.8958568,1.43135135 C37.8455551,0.623135135 37.1485165,0 36.3185376,0 C36.2862007,0 1.48636912,2.02421621 1.48636912,2.02421621 C0.614172633,2.07481081 -0.0496308757,2.79654055 0.00291649271,3.63632432 L1.48187789,27.1995676 C1.53262877,28.0082163 2.22921825,28.6304865 3.0591972,28.6304865 C3.09153404,28.6304865 4.33425684,28.5591352 4.33425684,28.5591352 L4.19233404,26.9455856 L4.19233404,26.9455856 Z" id="icon-pictures"></path>
                    </g>
                </g>
            </g>
        </g>
    </g>
</svg>