<?xml version="1.0" encoding="UTF-8" standalone="no"?>
<svg width="386px" height="80px" viewBox="0 0 386 80" version="1.1" xmlns="http://www.w3.org/2000/svg" xmlns:xlink="http://www.w3.org/1999/xlink">
    <!-- Generator: Sketch 3.8.3 (29802) - http://www.bohemiancoding.com/sketch -->
    <title>blue/logo-catalyze-blue</title>
    <desc>Created with Sketch.</desc>
    <defs></defs>
    <g id="blue,-base" stroke="none" stroke-width="1" fill="none" fill-rule="evenodd">
        <g id="icons,-branding-&amp;-other-(blue)" transform="translate(-87.000000, -256.000000)" fill="#1055FF">
            <path d="M215.284284,317.115526 C211.841268,319.417679 207.864887,320.568739 203.355021,320.568739 C198.845155,320.568739 194.917267,319.563076 191.571237,317.551721 C188.225208,315.540365 185.642985,312.680891 183.82449,308.973212 C182.005996,305.265532 181.096763,300.891506 181.096763,295.851001 C181.096763,290.858962 182.005996,286.497052 183.82449,282.765139 C185.642985,279.033227 188.225208,276.161636 191.571237,274.15028 C194.917267,272.138925 198.796663,271.133262 203.209542,271.133262 C207.816394,271.133262 211.683667,272.078343 214.811477,273.968532 C217.939288,275.858722 220.279048,278.645498 221.83083,282.328944 L216.084417,285.018815 C215.017567,282.207764 213.465809,280.099508 211.429095,278.693982 C209.392381,277.288457 206.798035,276.585705 203.645979,276.585705 C200.348442,276.585705 197.463141,277.349039 194.989989,278.87573 C192.516837,280.402422 190.601385,282.619726 189.243576,285.52771 C187.885767,288.435694 187.206873,291.876756 187.206873,295.851001 C187.206873,301.860834 188.649523,306.57412 191.534867,309.991001 C194.420212,313.407882 198.360223,315.116297 203.355021,315.116297 C206.604064,315.116297 209.416626,314.29238 211.792792,312.644523 C214.168958,310.996665 215.866194,308.573382 216.884551,305.3746 L222.703703,307.555577 C221.200414,311.626754 218.727299,314.813372 215.284284,317.115526 L215.284284,317.115526 Z M265.547213,315.261695 L265.183516,319.841747 C263.825707,320.326411 262.370934,320.568739 260.819152,320.568739 C258.927918,320.568739 257.436775,320.156781 256.345678,319.332852 C255.254582,318.508923 254.563564,317.127652 254.272605,315.188996 C253.157262,316.88532 251.520642,318.206009 249.362695,319.151104 C247.204749,320.096199 244.937727,320.568739 242.561561,320.568739 C238.973066,320.568739 236.015026,319.732706 233.687353,318.060616 C231.359681,316.388525 230.195862,313.977358 230.195862,310.827042 C230.195862,308.064458 231.408173,305.677523 233.832832,303.666168 C236.257491,301.654812 239.773194,300.261425 244.380046,299.485962 L254.054387,297.886579 L254.054387,295.851001 C254.054387,293.427681 253.302754,291.489054 251.799466,290.035062 C250.296177,288.58107 248.211001,287.854085 245.543877,287.854085 C243.119218,287.854085 241.021919,288.435673 239.251918,289.598867 C237.481917,290.76206 236.112005,292.482592 235.142141,294.760512 L230.850517,291.634445 C231.82038,288.920327 233.626724,286.763605 236.269602,285.164214 C238.912481,283.564823 242.003874,282.765139 245.543877,282.765139 C249.85977,282.765139 253.32698,283.807151 255.945612,285.891206 C258.564243,287.975261 259.87354,291.052831 259.87354,295.124008 L259.87354,313.008019 C259.87354,313.880414 260.091756,314.534701 260.528194,314.970898 C260.964633,315.407096 261.667773,315.625191 262.637637,315.625191 C263.607501,315.625191 264.57735,315.504027 265.547213,315.261695 L265.547213,315.261695 Z M250.744744,313.298816 C252.951184,311.844824 254.054387,309.954663 254.054387,307.628276 L254.054387,302.612029 L245.907574,304.138713 C242.658531,304.72031 240.233908,305.556342 238.633633,306.646836 C237.033358,307.73733 236.233233,309.130718 236.233233,310.827042 C236.233233,312.3295 236.815142,313.48056 237.978978,314.280256 C239.142815,315.079951 240.767312,315.479793 242.852519,315.479793 C245.907589,315.479793 248.538304,314.752808 250.744744,313.298816 L250.744744,313.298816 Z M294.788455,317.297274 C292.363796,319.478261 289.236032,320.568739 285.405071,320.568739 C282.446987,320.568739 280.034488,319.769055 278.1675,318.169664 C276.300513,316.570273 275.342787,314.122757 275.294294,310.827042 L275.294294,288.508378 L268.020353,288.508378 L268.020353,283.492131 L275.294294,283.492131 L275.294294,274.768224 L281.113446,273.168841 L281.113446,283.492131 L294.570236,283.492131 L294.570236,288.508378 L281.113446,288.508378 L281.113446,309.809253 C281.113446,311.554043 281.610494,312.874733 282.604604,313.771361 C283.598714,314.667989 284.920134,315.116297 286.568902,315.116297 C288.896574,315.116297 290.957504,314.219682 292.751751,312.426425 L294.788455,317.297274 Z M335.74074,315.261695 L335.377043,319.841747 C334.019234,320.326411 332.564461,320.568739 331.012679,320.568739 C329.121445,320.568739 327.630302,320.156781 326.539205,319.332852 C325.448109,318.508923 324.757091,317.127652 324.466132,315.188996 C323.350789,316.88532 321.714169,318.206009 319.556222,319.151104 C317.398276,320.096199 315.131254,320.568739 312.755088,320.568739 C309.166593,320.568739 306.208553,319.732706 303.88088,318.060616 C301.553208,316.388525 300.389389,313.977358 300.389389,310.827042 C300.389389,308.064458 301.6017,305.677523 304.026359,303.666168 C306.451018,301.654812 309.966721,300.261425 314.573573,299.485962 L324.247914,297.886579 L324.247914,295.851001 C324.247914,293.427681 323.496281,291.489054 321.992993,290.035062 C320.489704,288.58107 318.404529,287.854085 315.737404,287.854085 C313.312745,287.854085 311.215446,288.435673 309.445445,289.598867 C307.675444,290.76206 306.305532,292.482592 305.335669,294.760512 L301.044044,291.634445 C302.013907,288.920327 303.820251,286.763605 306.463129,285.164214 C309.106008,283.564823 312.197402,282.765139 315.737404,282.765139 C320.053297,282.765139 323.520507,283.807151 326.139139,285.891206 C328.75777,287.975261 330.067067,291.052831 330.067067,295.124008 L330.067067,313.008019 C330.067067,313.880414 330.285283,314.534701 330.721721,314.970898 C331.15816,315.407096 331.861301,315.625191 332.831164,315.625191 C333.801028,315.625191 334.770877,315.504027 335.74074,315.261695 L335.74074,315.261695 Z M320.938271,313.298816 C323.144711,311.844824 324.247914,309.954663 324.247914,307.628276 L324.247914,302.612029 L316.101101,304.138713 C312.852058,304.72031 310.427435,305.556342 308.82716,306.646836 C307.226885,307.73733 306.42676,309.130718 306.42676,310.827042 C306.42676,312.3295 307.008669,313.48056 308.172505,314.280256 C309.336342,315.079951 310.960839,315.479793 313.046046,315.479793 C316.101116,315.479793 318.731832,314.752808 320.938271,313.298816 L320.938271,313.298816 Z M349.706706,310.10005 C349.706706,311.941773 349.985538,313.213997 350.54321,313.916759 C351.100881,314.619522 352.131346,314.970898 353.634634,314.970898 C354.652991,314.970898 355.537978,314.8982 356.289623,314.752801 C357.041267,314.607401 357.926254,314.34084 358.944611,313.953109 L357.998999,319.55095 C356.398724,320.229479 354.604503,320.568739 352.616283,320.568739 C349.658199,320.568739 347.463915,319.769055 346.033366,318.169664 C344.602818,316.570273 343.887554,314.122757 343.887554,310.827042 L343.887554,266.771309 L349.706706,266.771309 L349.706706,310.10005 Z M378.438772,325.948482 C377.03247,329.438063 375.456465,331.897695 373.71071,333.327454 C371.964956,334.757213 369.710057,335.472081 366.945946,335.472081 C365.103205,335.472081 363.563569,335.229753 362.326993,334.745089 C361.090417,334.260425 359.962968,333.484974 358.944611,332.418714 L360.981314,327.475166 C362.387617,329.413822 364.351561,330.383135 366.873206,330.383135 C368.279508,330.383135 369.528189,329.95906 370.619286,329.110899 C371.710382,328.262737 372.668108,326.723952 373.492492,324.494497 L375.383717,319.769047 L360.181181,283.492131 L366.800467,283.492131 L375.892893,307.192081 L378.147814,313.662312 L380.766433,306.465088 L389.276943,283.492131 L395.532532,283.492131 L378.438772,325.948482 Z M400.915248,315.407094 L419.972973,293.08843 L424.555555,288.36298 L418.081748,288.508378 L401.133467,288.508378 L401.133467,283.492131 L431.029363,283.492131 L431.029363,287.926785 L411.971638,310.245448 L407.461795,314.970898 L414.517517,314.8255 L431.611278,314.8255 L431.611278,319.841747 L400.915248,319.841747 L400.915248,315.407094 Z M472.709042,303.847916 L445.286286,303.847916 C445.625738,307.531362 446.850173,310.390837 448.959626,312.426425 C451.06908,314.462014 453.79678,315.479793 457.142809,315.479793 C459.809934,315.479793 462.028464,315.019369 463.798465,314.098507 C465.568466,313.177646 466.768654,311.84484 467.399066,310.10005 L472.272606,312.644523 C470.817811,315.213242 468.878112,317.176101 466.453453,318.533161 C464.028794,319.89022 460.925277,320.568739 457.142809,320.568739 C451.66308,320.568739 447.359375,318.896673 444.231565,315.552492 C441.103755,312.208311 439.539873,307.579839 439.539873,301.666939 C439.539873,295.754039 441.031016,291.125567 444.013347,287.781386 C446.995677,284.437205 451.226644,282.765139 456.706373,282.765139 C460.100896,282.765139 463.034689,283.516357 465.507841,285.018815 C467.980993,286.521274 469.847953,288.556832 471.108775,291.125551 C472.369598,293.69427 473,296.577977 473,299.776759 C473,301.133818 472.903015,302.490857 472.709042,303.847916 L472.709042,303.847916 Z M448.959626,290.689355 C446.995652,292.579545 445.795464,295.245157 445.359026,298.686271 L467.399066,298.686271 C467.01112,295.293623 465.895794,292.640128 464.053053,290.725705 C462.210312,288.811282 459.761443,287.854085 456.706373,287.854085 C453.505823,287.854085 450.9236,288.799166 448.959626,290.689355 L448.959626,290.689355 Z M113.398316,295.51747 L120.313309,284.119878 L134.143296,284.119878 L141.05829,295.51747 L134.143296,306.915062 L120.313309,306.915062 L113.398316,295.51747 Z M113.398315,323.177444 L120.313309,311.779853 L134.143295,311.779853 L141.058289,323.177444 L134.143295,334.575036 L120.313309,334.575036 L113.398315,323.177444 Z M139.719927,309.347455 L146.63492,297.949863 L160.464907,297.949863 L167.3799,309.347455 L160.464907,320.745046 L146.63492,320.745046 L139.719927,309.347455 Z M139.719925,281.687483 L146.634918,270.289891 L160.464905,270.289891 L167.379898,281.687483 L160.464905,293.085075 L146.634918,293.085075 L139.719925,281.687483 Z M113.329255,267.857495 L120.244248,256.459904 L134.074235,256.459904 L140.989228,267.857495 L134.074235,279.255087 L120.244248,279.255087 L113.329255,267.857495 Z M87.0076429,281.687485 L93.9226363,270.289894 L107.752623,270.289894 L114.667616,281.687485 L107.752623,293.085077 L93.9226363,293.085077 L87.0076429,281.687485 Z M87.0767077,309.347457 L93.9917011,297.949865 L107.821688,297.949865 L114.736681,309.347457 L107.821688,320.745048 L93.9917011,320.745048 L87.0767077,309.347457 Z" id="blue/logo-catalyze-blue"></path>
        </g>
    </g>
</svg>