<?xml version="1.0" encoding="UTF-8" standalone="no"?>
<svg width="386px" height="77px" viewBox="0 0 386 77" version="1.1" xmlns="http://www.w3.org/2000/svg" xmlns:xlink="http://www.w3.org/1999/xlink">
    <!-- Generator: Sketch 3.8.3 (29802) - http://www.bohemiancoding.com/sketch -->
    <title>blue/logo-Redpoint</title>
    <desc>Created with Sketch.</desc>
    <defs></defs>
    <g id="blue,-base" stroke="none" stroke-width="1" fill="none" fill-rule="evenodd">
        <g id="icons,-branding-&amp;-other-(blue)" transform="translate(-87.000000, -395.000000)" fill="#D93939">
            <path d="M200.425781,436.01967 L187.177603,436.01967 L187.177603,455.951392 L183.160868,455.951392 L183.160868,409.467519 L200.49625,409.467519 C205.147229,409.467519 208.870306,410.65308 211.665592,413.024239 C214.460877,415.395398 215.858499,418.623413 215.858499,422.708379 C215.858499,426.089042 214.895432,428.906218 212.969269,431.159993 C211.043105,433.413768 208.388798,434.869309 205.006268,435.52666 L218.395384,455.951392 L213.673959,455.951392 L200.425781,436.01967 Z M187.177603,432.286875 L200.425781,432.286875 C204.090189,432.286875 206.873688,431.465198 208.776361,429.821821 C210.679035,428.178443 211.630357,425.80732 211.630357,422.708379 C211.630357,419.609439 210.679035,417.250054 208.776361,415.630153 C206.873688,414.010253 204.090189,413.200315 200.425781,413.200315 L187.177603,413.200315 L187.177603,432.286875 Z M255.88491,439.963757 L228.261049,439.963757 C228.495947,444.095677 229.729143,447.323692 231.960673,449.647897 C234.192204,451.972102 237.187108,453.134187 240.945475,453.134187 C243.670291,453.134187 246.007491,452.594229 247.957144,451.514295 C249.906797,450.434361 251.304418,448.908391 252.150051,446.936338 L255.462096,448.69709 C252.6903,454.002852 247.851474,456.655693 240.945475,456.655693 C235.73074,456.655693 231.643577,455.035817 228.683863,451.796015 C225.724149,448.556214 224.244314,444.072208 224.244314,438.343864 C224.244314,432.61552 225.67717,428.131514 228.542925,424.891713 C231.40868,421.651912 235.425375,420.032035 240.59313,420.032035 C243.787742,420.032035 246.547751,420.771544 248.873241,422.250584 C251.198731,423.729623 252.972184,425.772076 254.193653,428.378003 C255.415122,430.983931 256.025848,433.953704 256.025848,437.287412 C256.025848,438.132578 255.978869,439.024684 255.88491,439.963757 L255.88491,439.963757 Z M231.890204,426.898971 C229.752633,429.129269 228.542926,432.286854 228.261049,436.371821 L252.22052,436.371821 C251.938642,432.333808 250.78766,429.187961 248.767537,426.934186 C246.747415,424.680411 244.02264,423.553541 240.59313,423.553541 C236.928722,423.553541 234.027775,424.668673 231.890204,426.898971 L231.890204,426.898971 Z M296.827418,404.537411 L296.827418,455.951392 L293.233497,455.951392 L293.02209,448.55623 C291.988539,451.044773 290.332533,453.016797 288.054023,454.47236 C285.775513,455.927922 283.132951,456.655693 280.126257,456.655693 C275.14642,456.655693 271.223684,455.035817 268.357929,451.796015 C265.492174,448.556214 264.059318,444.072208 264.059318,438.343864 C264.059318,432.61552 265.492174,428.131514 268.357929,424.891713 C271.223684,421.651912 275.14642,420.032035 280.126257,420.032035 C283.085971,420.032035 285.66981,420.712853 287.877851,422.074508 C290.085891,423.436164 291.730152,425.314282 292.810683,427.708917 L292.810683,404.537411 L296.827418,404.537411 Z M289.251997,449.542252 C291.436548,447.147616 292.622765,443.86091 292.810683,439.682036 L292.810683,437.005692 C292.622765,432.826818 291.436548,429.540112 289.251997,427.145476 C287.067446,424.750841 284.189989,423.553541 280.61954,423.553541 C276.673255,423.553541 273.596138,424.868223 271.388097,427.497627 C269.180056,430.127031 268.076052,433.742407 268.076052,438.343864 C268.076052,442.945321 269.180056,446.560697 271.388097,449.190101 C273.596138,451.819505 276.673255,453.134187 280.61954,453.134187 C284.189989,453.134187 287.067446,451.936888 289.251997,449.542252 L289.251997,449.542252 Z M337.981333,424.891713 C340.847088,428.131514 342.279944,432.61552 342.279944,438.343864 C342.279944,444.072208 340.847088,448.556214 337.981333,451.796015 C335.115578,455.035817 331.192841,456.655693 326.213005,456.655693 C323.25329,456.655693 320.669452,455.974875 318.461411,454.61322 C316.25337,453.251564 314.609109,451.373447 313.528579,448.978811 L313.528579,470.741715 L309.511844,470.741715 L309.511844,420.736336 L313.105764,420.736336 L313.317172,428.201928 C314.350722,425.666431 315.994983,423.670932 318.250004,422.215369 C320.505024,420.759806 323.159331,420.032035 326.213005,420.032035 C331.192841,420.032035 335.115578,421.651912 337.981333,424.891713 L337.981333,424.891713 Z M334.951165,449.190101 C337.159205,446.560697 338.263209,442.945321 338.263209,438.343864 C338.263209,433.742407 337.159205,430.127031 334.951165,427.497627 C332.743124,424.868223 329.666007,423.553541 325.719721,423.553541 C322.149272,423.553541 319.248326,424.786055 317.016796,427.251122 C314.785265,429.716188 313.622538,433.085061 313.528579,437.357843 L313.528579,439.329886 C313.622538,443.602667 314.77352,446.97154 316.981561,449.436607 C319.189602,451.901673 322.102293,453.134187 325.719721,453.134187 C329.666007,453.134187 332.743124,451.819505 334.951165,449.190101 L334.951165,449.190101 Z M379.734235,424.891713 C382.717439,428.131514 384.209019,432.61552 384.209019,438.343864 C384.209019,444.072208 382.717439,448.556214 379.734235,451.796015 C376.751031,455.035817 372.628634,456.655693 367.36692,456.655693 C362.105206,456.655693 357.982808,455.035817 354.999604,451.796015 C352.0164,448.556214 350.524821,444.072208 350.524821,438.343864 C350.524821,432.61552 352.0164,428.131514 354.999604,424.891713 C357.982808,421.651912 362.105206,420.032035 367.36692,420.032035 C372.628634,420.032035 376.751031,421.651912 379.734235,424.891713 L379.734235,424.891713 Z M357.959304,427.462412 C355.680794,430.115293 354.541556,433.742407 354.541556,438.343864 C354.541556,442.945321 355.680794,446.572435 357.959304,449.225316 C360.237814,451.878197 363.373655,453.204618 367.36692,453.204618 C371.360185,453.204618 374.496025,451.878197 376.774536,449.225316 C379.053046,446.572435 380.192284,442.945321 380.192284,438.343864 C380.192284,433.742407 379.053046,430.115293 376.774536,427.462412 C374.496025,424.809531 371.360185,423.483111 367.36692,423.483111 C363.373655,423.483111 360.237814,424.809531 357.959304,427.462412 L357.959304,427.462412 Z M394.28609,413.024239 C393.675356,412.437319 393.369993,411.650857 393.369993,410.664831 C393.369993,409.678804 393.675356,408.892342 394.28609,408.305422 C394.896825,407.718501 395.695466,407.425045 396.682037,407.425045 C397.621629,407.425045 398.396781,407.718501 399.007515,408.305422 C399.61825,408.892342 399.923613,409.678804 399.923613,410.664831 C399.923613,411.650857 399.61825,412.437319 399.007515,413.024239 C398.396781,413.61116 397.621629,413.904616 396.682037,413.904616 C395.695466,413.904616 394.896825,413.61116 394.28609,413.024239 L394.28609,413.024239 Z M398.65517,455.951392 L394.638435,455.951392 L394.638435,420.736336 L398.65517,420.736336 L398.65517,455.951392 Z M437.765484,423.447896 C440.255402,425.725147 441.500342,428.976638 441.500342,433.202466 L441.500342,455.951392 L437.483607,455.951392 L437.483607,434.470208 C437.483607,430.807824 436.591009,428.072815 434.805784,426.2651 C433.02056,424.457385 430.601147,423.553541 427.547474,423.553541 C425.386413,423.553541 423.378065,424.046547 421.522371,425.032573 C419.666678,426.0186 418.175098,427.474141 417.047588,429.39924 C415.920078,431.324339 415.356331,433.625033 415.356331,436.301391 L415.356331,455.951392 L411.339596,455.951392 L411.339596,420.736336 L414.933517,420.736336 L415.144924,427.427197 C416.272434,425.032561 417.975419,423.201397 420.253929,421.933648 C422.532439,420.6659 425.104533,420.032035 427.970288,420.032035 C432.010533,420.032035 435.275565,421.170644 437.765484,423.447896 L437.765484,423.447896 Z M152.003977,455.973331 C155.734977,451.595981 158.412625,446.294311 159.645044,440.459981 L137.649617,418.476704 L116.362097,433.88329 L102.048075,427.280468 L91.172949,442.431361 C92.6361247,447.797401 95.3371364,452.653279 98.9503978,456.673589 L102.048075,451.857642 L114.526966,450.390348 L127.372883,439.018819 L137.282591,447.822583 L146.09122,444.154348 L152.003977,455.973331 Z M473,453.697628 C470.885918,455.669681 468.137654,456.655693 464.755123,456.655693 C461.889368,456.655693 459.622637,455.869231 457.954861,454.296284 C456.287086,452.723337 455.453211,450.340476 455.453211,447.147628 L455.453211,424.187412 L448.406308,424.187412 L448.406308,420.736336 L455.453211,420.736336 L455.453211,412.003003 L459.469946,410.946551 L459.469946,420.736336 L472.718124,420.736336 L472.718124,424.187412 L459.469946,424.187412 L459.469946,446.513757 C459.469946,448.626671 459.986713,450.223071 461.020264,451.303005 C462.053815,452.382938 463.53365,452.922897 465.459813,452.922897 C467.855773,452.922897 469.875865,452.054268 471.52015,450.316983 L473,453.697628 Z M125.170726,471.299287 C146.251836,471.299287 163.341452,454.21911 163.341452,433.149643 C163.341452,412.080177 146.251836,395 125.170726,395 C104.089616,395 87,412.080177 87,433.149643 C87,454.21911 104.089616,471.299287 125.170726,471.299287 Z M109.388599,464.696464 C117.096149,469.098346 128.473962,469.098346 136.181513,466.897405 C143.889063,464.696464 149.761482,458.460465 149.761482,458.460465 L144.990142,448.923054 L136.181513,451.857642 L127.372883,443.420701 L115.995071,453.691759 L104.250232,454.79223 L101.681049,458.827288 C101.681049,458.827288 101.681048,460.294582 109.388599,464.696464 Z" id="blue/logo-Redpoint"></path>
        </g>
    </g>
</svg>