<?xml version="1.0" encoding="UTF-8" standalone="no"?>
<svg width="372px" height="80px" viewBox="0 0 372 80" version="1.1" xmlns="http://www.w3.org/2000/svg" xmlns:xlink="http://www.w3.org/1999/xlink">
    <!-- Generator: Sketch 3.8.3 (29802) - http://www.bohemiancoding.com/sketch -->
    <title>white/logo-Stratum-white</title>
    <desc>Created with Sketch.</desc>
    <defs></defs>
    <g id="white" stroke="none" stroke-width="1" fill="none" fill-rule="evenodd">
        <g id="icons,-branding-&amp;-other-(white)" transform="translate(-67.000000, -423.000000)" fill="#FFFFFF">
            <path d="M204.052139,449.424633 L200.479243,452.266796 C199.215356,448.914485 197.428926,446.48531 195.1199,444.979199 C192.810875,443.473089 189.736271,442.720045 185.895997,442.720045 C181.764056,442.720045 178.507163,443.618839 176.125221,445.416455 C173.743279,447.214071 172.552326,449.497495 172.552326,452.266796 C172.552326,454.015827 173.001971,455.485478 173.901276,456.675791 C174.800581,457.866104 176.319654,458.874212 178.458541,459.700144 C180.597428,460.526075 183.562658,461.279119 187.354321,461.959298 C193.625149,462.979567 198.072995,464.522093 200.697992,466.586922 C203.32299,468.651751 204.635469,471.506031 204.635469,475.149847 C204.635469,477.773395 203.882009,480.093257 202.375066,482.109502 C200.868122,484.125746 198.74142,485.680418 195.994895,486.773563 C193.24837,487.866708 190.076545,488.413272 186.479326,488.413272 C181.472387,488.413272 177.231135,487.417311 173.755444,485.425358 C170.279752,483.433405 167.861388,480.664146 166.500278,477.117498 L170.073174,474.275336 C171.142617,477.579062 173.099183,480.11755 175.942931,481.890874 C178.786678,483.664198 182.32308,484.550846 186.552243,484.550846 C190.684183,484.550846 194.013991,483.737073 196.541767,482.109502 C199.069542,480.48193 200.333411,478.234944 200.333411,475.368475 C200.333411,472.89068 199.276136,470.923049 197.161555,469.465522 C195.046973,468.007996 191.36474,466.841992 186.114745,465.967476 C181.642527,465.190129 178.106125,464.242751 175.505433,463.125314 C172.904741,462.007877 171.033243,460.611101 169.890883,458.934946 C168.748523,457.25879 168.177352,455.181846 168.177352,452.704051 C168.177352,450.177672 168.894354,447.869956 170.32838,445.780835 C171.762407,443.691714 173.816194,442.015583 176.489802,440.752394 C179.163411,439.489204 182.274472,438.857619 185.82308,438.857619 C194.767516,438.857619 200.843809,442.379922 204.052139,449.424633 L204.052139,449.424633 Z M235.843617,485.352482 C233.656119,487.393019 230.812414,488.413272 227.312418,488.413272 C224.347143,488.413272 222.001694,487.599499 220.276001,485.971927 C218.550308,484.344356 217.687475,481.878744 217.687475,478.575017 L217.687475,454.817454 L210.395851,454.817454 L210.395851,451.246532 L217.687475,451.246532 L217.687475,442.209913 L221.8437,441.116774 L221.8437,451.246532 L235.551952,451.246532 L235.551952,454.817454 L221.8437,454.817454 L221.8437,477.919134 C221.8437,480.105424 222.378414,481.757262 223.447857,482.874699 C224.517301,483.992136 226.048526,484.550846 228.04158,484.550846 C230.520744,484.550846 232.610989,483.652052 234.312376,481.854436 L235.843617,485.352482 Z M263.624702,451.610912 L262.603875,455.546214 C261.388598,454.768866 259.857373,454.380198 258.010152,454.380198 C256.260154,454.380198 254.583097,454.926763 252.978932,456.019908 C251.374767,457.113052 250.07444,458.655578 249.077914,460.647531 C248.081387,462.639484 247.583131,464.898616 247.583131,467.424995 L247.583131,487.684513 L243.426905,487.684513 L243.426905,451.246532 L246.926885,451.246532 L247.437298,458.3155 C248.40952,455.837705 249.892135,453.918657 251.885189,452.558299 C253.878242,451.197941 256.308759,450.517772 259.176812,450.517772 C261.024033,450.517772 262.506648,450.882149 263.624702,451.610912 L263.624702,451.610912 Z M302.853636,484.405094 L302.634888,487.684513 C301.662666,488.170355 300.398798,488.413272 298.843244,488.413272 C297.093245,488.413272 295.683545,487.963875 294.614102,487.065067 C293.544659,486.166259 292.912724,484.623733 292.71828,482.437443 C291.600225,484.283644 289.850253,485.741148 287.468311,486.810001 C285.086369,487.878854 282.558631,488.413272 279.885023,488.413272 C276.287804,488.413272 273.383336,487.599499 271.171533,485.971927 C268.959729,484.344356 267.853844,482.048786 267.853844,479.085149 C267.853844,476.267265 269.008339,473.910965 271.317365,472.016181 C273.626391,470.121396 277.114182,468.785351 281.780845,468.008003 L292.645364,466.113228 L292.645364,463.19819 C292.645364,460.380305 291.806835,458.169756 290.129754,456.566477 C288.452672,454.963198 286.082918,454.161571 283.020421,454.161571 C277.430148,454.161571 273.638542,456.66362 271.645488,461.667794 L268.51009,459.40864 C269.530922,456.590755 271.317352,454.404498 273.869433,452.849803 C276.421514,451.295108 279.471813,450.517772 283.020421,450.517772 C287.249583,450.517772 290.603697,451.550172 293.082861,453.615001 C295.562025,455.67983 296.801589,458.704152 296.801589,462.688058 L296.801589,481.271428 C296.801589,483.652055 297.871016,484.84235 300.009903,484.84235 C301.127958,484.84235 302.075859,484.6966 302.853636,484.405094 L302.853636,484.405094 Z M286.119361,483.712773 C288.039498,483.008301 289.607181,481.988048 290.822458,480.651982 C292.037734,479.315916 292.645364,477.724807 292.645364,475.878607 L292.645364,469.538398 L283.093337,471.287421 C279.301674,471.9676 276.530885,472.93927 274.780886,474.20246 C273.030888,475.465649 272.155902,477.093196 272.155902,479.085149 C272.155902,480.882765 272.860752,482.27954 274.270473,483.275517 C275.680194,484.271493 277.648912,484.769474 280.176688,484.769474 C282.218352,484.769474 284.199224,484.417244 286.119361,483.712773 L286.119361,483.712773 Z M329.905559,485.352482 C327.718061,487.393019 324.874357,488.413272 321.37436,488.413272 C318.409085,488.413272 316.063636,487.599499 314.337943,485.971927 C312.612251,484.344356 311.749417,481.878744 311.749417,478.575017 L311.749417,454.817454 L304.457794,454.817454 L304.457794,451.246532 L311.749417,451.246532 L311.749417,442.209913 L315.905642,441.116774 L315.905642,451.246532 L329.613895,451.246532 L329.613895,454.817454 L315.905642,454.817454 L315.905642,477.919134 C315.905642,480.105424 316.440356,481.757262 317.5098,482.874699 C318.579243,483.992136 320.110469,484.550846 322.103522,484.550846 C324.582687,484.550846 326.672931,483.652052 328.374319,481.854436 L329.905559,485.352482 Z M368.04075,451.246532 L368.04075,487.684513 L364.394938,487.684513 L364.103273,480.907048 C362.936608,483.336259 361.150178,485.194577 358.74393,486.482059 C356.337682,487.769541 353.530435,488.413272 350.322105,488.413272 C346.335998,488.413272 343.139868,487.307998 340.73362,485.097416 C338.327372,482.886834 337.124267,479.595303 337.124267,475.222723 L337.124267,451.246532 L341.280492,451.246532 L341.280492,474.20246 C341.280492,477.89486 342.11902,480.579098 343.796102,482.255253 C345.473184,483.931409 347.891548,484.769474 351.051267,484.769474 C354.891542,484.769474 357.990451,483.567033 360.348087,481.162114 C362.705724,478.757195 363.884525,475.659998 363.884525,471.870429 L363.884525,451.246532 L368.04075,451.246532 Z M140.53589,450.474781 C141.277543,452.463542 141.849708,454.534806 142.234831,456.67103 L115.776519,471.337112 L89.5570715,458.549033 L140.535884,450.474782 Z M82.0787055,490.016115 C74.7696409,483.376686 70.1809096,473.798728 70.1809096,463.149606 C70.1809096,460.070361 70.5645756,457.080677 71.2867366,454.2257 L111.373907,473.777519 L82.0787055,490.016115 Z M85.5530031,492.804791 C91.4711952,496.987388 98.6965907,499.444932 106.496294,499.444932 C126.552726,499.444932 142.811678,483.194961 142.811678,463.149606 C142.811678,462.460896 142.792485,461.776666 142.754605,461.097422 L85.553003,492.804788 Z M434.394523,453.979381 C437.019521,456.335715 438.332,459.700122 438.332,464.072701 L438.332,487.611637 L434.175775,487.611637 L434.175775,464.509957 C434.175775,461.109062 433.264331,458.521991 431.441416,456.748667 C429.618501,454.975343 427.175831,454.088695 424.113334,454.088695 C421.877225,454.088695 419.823439,454.635259 417.951912,455.728404 C416.080386,456.821549 414.585619,458.339783 413.467564,460.283151 C412.34951,462.22652 411.790491,464.46136 411.790491,466.98774 L411.790491,487.684513 L407.634265,487.684513 L407.634265,464.582833 C407.634265,461.181938 406.722822,458.594867 404.899907,456.821543 C403.076992,455.048219 400.658627,454.161571 397.644741,454.161571 C395.505854,454.161571 393.500678,454.683843 391.629152,455.728404 C389.757626,456.772964 388.238553,458.291198 387.071887,460.283151 C385.905222,462.275104 385.321898,464.631403 385.321898,467.352119 L385.321898,487.684513 L381.165672,487.684513 L381.165672,451.246532 L384.8844,451.246532 L385.103149,458.096872 C386.318426,455.667662 388.08055,453.797197 390.389576,452.485423 C392.698602,451.17365 395.238492,450.517772 398.009322,450.517772 C401.023208,450.517772 403.684624,451.210087 405.99365,452.594737 C408.302676,453.979388 409.943275,456.007748 410.915496,458.67988 C411.936328,456.104917 413.722758,454.088702 416.274839,452.631175 C418.82692,451.173649 421.561252,450.444897 424.477915,450.444897 C428.464023,450.444897 431.769526,451.623046 434.394523,453.979381 Z M106.496294,502.624084 C128.309494,502.624084 145.992587,484.950758 145.992587,463.149606 C145.992587,441.348453 128.309494,423.675127 106.496294,423.675127 C84.683093,423.675127 67,441.348453 67,463.149606 C67,484.950758 84.683093,502.624084 106.496294,502.624084 Z" id="white/logo-Stratum-white"></path>
        </g>
    </g>
</svg>