<?xml version="1.0" encoding="UTF-8" standalone="no"?>
<svg width="386px" height="80px" viewBox="0 0 386 80" version="1.1" xmlns="http://www.w3.org/2000/svg" xmlns:xlink="http://www.w3.org/1999/xlink">
    <!-- Generator: Sketch 3.8.3 (29802) - http://www.bohemiancoding.com/sketch -->
    <title>dark gray/logo-catalyze-dark-gray</title>
    <desc>Created with Sketch.</desc>
    <defs></defs>
    <g id="gray" stroke="none" stroke-width="1" fill="none" fill-rule="evenodd">
        <g id="icons,-branding-&amp;-other-(gray)" transform="translate(-70.000000, -263.000000)" fill="#242F36">
            <path d="M198.284284,323.928515 C194.841268,326.230668 190.864887,327.381728 186.355021,327.381728 C181.845155,327.381728 177.917267,326.376065 174.571237,324.36471 C171.225208,322.353355 168.642985,319.49388 166.82449,315.786201 C165.005996,312.078521 164.096763,307.704495 164.096763,302.66399 C164.096763,297.671951 165.005996,293.310041 166.82449,289.578128 C168.642985,285.846216 171.225208,282.974625 174.571237,280.963269 C177.917267,278.951914 181.796663,277.946251 186.209542,277.946251 C190.816394,277.946251 194.683667,278.891332 197.811477,280.781521 C200.939288,282.671711 203.279048,285.458487 204.83083,289.141933 L199.084417,291.831804 C198.017567,289.020753 196.465809,286.912497 194.429095,285.506971 C192.392381,284.101446 189.798035,283.398694 186.645979,283.398694 C183.348442,283.398694 180.463141,284.162028 177.989989,285.688719 C175.516837,287.215411 173.601385,289.432715 172.243576,292.340699 C170.885767,295.248683 170.206873,298.689745 170.206873,302.66399 C170.206873,308.673823 171.649523,313.387109 174.534867,316.80399 C177.420212,320.220871 181.360223,321.929286 186.355021,321.929286 C189.604064,321.929286 192.416626,321.105369 194.792792,319.457512 C197.168958,317.809654 198.866194,315.386371 199.884551,312.187589 L205.703703,314.368566 C204.200414,318.439743 201.727299,321.626361 198.284284,323.928515 L198.284284,323.928515 Z M248.547213,322.074684 L248.183516,326.654736 C246.825707,327.1394 245.370934,327.381728 243.819152,327.381728 C241.927918,327.381728 240.436775,326.96977 239.345678,326.145841 C238.254582,325.321912 237.563564,323.940641 237.272605,322.001985 C236.157262,323.698309 234.520642,325.018998 232.362695,325.964093 C230.204749,326.909188 227.937727,327.381728 225.561561,327.381728 C221.973066,327.381728 219.015026,326.545695 216.687353,324.873605 C214.359681,323.201514 213.195862,320.790347 213.195862,317.640031 C213.195862,314.877447 214.408173,312.490512 216.832832,310.479157 C219.257491,308.467802 222.773194,307.074414 227.380046,306.298951 L237.054387,304.699568 L237.054387,302.66399 C237.054387,300.24067 236.302754,298.302043 234.799466,296.848051 C233.296177,295.394059 231.211001,294.667074 228.543877,294.667074 C226.119218,294.667074 224.021919,295.248662 222.251918,296.411856 C220.481917,297.575049 219.112005,299.295581 218.142141,301.573501 L213.850517,298.447434 C214.82038,295.733316 216.626724,293.576594 219.269602,291.977203 C221.912481,290.377812 225.003874,289.578128 228.543877,289.578128 C232.85977,289.578128 236.32698,290.62014 238.945612,292.704195 C241.564243,294.78825 242.87354,297.86582 242.87354,301.936997 L242.87354,319.821008 C242.87354,320.693403 243.091756,321.34769 243.528194,321.783887 C243.964633,322.220085 244.667773,322.43818 245.637637,322.43818 C246.607501,322.43818 247.57735,322.317016 248.547213,322.074684 L248.547213,322.074684 Z M233.744744,320.111805 C235.951184,318.657813 237.054387,316.767652 237.054387,314.441265 L237.054387,309.425018 L228.907574,310.951702 C225.658531,311.533299 223.233908,312.369331 221.633633,313.459825 C220.033358,314.550319 219.233233,315.943707 219.233233,317.640031 C219.233233,319.142489 219.815142,320.293549 220.978978,321.093245 C222.142815,321.89294 223.767312,322.292782 225.852519,322.292782 C228.907589,322.292782 231.538304,321.565797 233.744744,320.111805 L233.744744,320.111805 Z M277.788455,324.110263 C275.363796,326.29125 272.236032,327.381728 268.405071,327.381728 C265.446987,327.381728 263.034488,326.582044 261.1675,324.982653 C259.300513,323.383262 258.342787,320.935746 258.294294,317.640031 L258.294294,295.321367 L251.020353,295.321367 L251.020353,290.305121 L258.294294,290.305121 L258.294294,281.581213 L264.113446,279.98183 L264.113446,290.305121 L277.570236,290.305121 L277.570236,295.321367 L264.113446,295.321367 L264.113446,316.622242 C264.113446,318.367032 264.610494,319.687722 265.604604,320.58435 C266.598714,321.480978 267.920134,321.929286 269.568902,321.929286 C271.896574,321.929286 273.957504,321.032671 275.751751,319.239414 L277.788455,324.110263 Z M318.74074,322.074684 L318.377043,326.654736 C317.019234,327.1394 315.564461,327.381728 314.012679,327.381728 C312.121445,327.381728 310.630302,326.96977 309.539205,326.145841 C308.448109,325.321912 307.757091,323.940641 307.466132,322.001985 C306.350789,323.698309 304.714169,325.018998 302.556222,325.964093 C300.398276,326.909188 298.131254,327.381728 295.755088,327.381728 C292.166593,327.381728 289.208553,326.545695 286.88088,324.873605 C284.553208,323.201514 283.389389,320.790347 283.389389,317.640031 C283.389389,314.877447 284.6017,312.490512 287.026359,310.479157 C289.451018,308.467802 292.966721,307.074414 297.573573,306.298951 L307.247914,304.699568 L307.247914,302.66399 C307.247914,300.24067 306.496281,298.302043 304.992993,296.848051 C303.489704,295.394059 301.404529,294.667074 298.737404,294.667074 C296.312745,294.667074 294.215446,295.248662 292.445445,296.411856 C290.675444,297.575049 289.305532,299.295581 288.335669,301.573501 L284.044044,298.447434 C285.013907,295.733316 286.820251,293.576594 289.463129,291.977203 C292.106008,290.377812 295.197402,289.578128 298.737404,289.578128 C303.053297,289.578128 306.520507,290.62014 309.139139,292.704195 C311.75777,294.78825 313.067067,297.86582 313.067067,301.936997 L313.067067,319.821008 C313.067067,320.693403 313.285283,321.34769 313.721721,321.783887 C314.15816,322.220085 314.861301,322.43818 315.831164,322.43818 C316.801028,322.43818 317.770877,322.317016 318.74074,322.074684 L318.74074,322.074684 Z M303.938271,320.111805 C306.144711,318.657813 307.247914,316.767652 307.247914,314.441265 L307.247914,309.425018 L299.101101,310.951702 C295.852058,311.533299 293.427435,312.369331 291.82716,313.459825 C290.226885,314.550319 289.42676,315.943707 289.42676,317.640031 C289.42676,319.142489 290.008669,320.293549 291.172505,321.093245 C292.336342,321.89294 293.960839,322.292782 296.046046,322.292782 C299.101116,322.292782 301.731832,321.565797 303.938271,320.111805 L303.938271,320.111805 Z M332.706706,316.913039 C332.706706,318.754762 332.985538,320.026986 333.54321,320.729748 C334.100881,321.432511 335.131346,321.783887 336.634634,321.783887 C337.652991,321.783887 338.537978,321.711189 339.289623,321.56579 C340.041267,321.42039 340.926254,321.153829 341.944611,320.766098 L340.998999,326.363939 C339.398724,327.042468 337.604503,327.381728 335.616283,327.381728 C332.658199,327.381728 330.463915,326.582044 329.033366,324.982653 C327.602818,323.383262 326.887554,320.935746 326.887554,317.640031 L326.887554,273.584298 L332.706706,273.584298 L332.706706,316.913039 Z M361.438772,332.761471 C360.03247,336.251052 358.456465,338.710684 356.71071,340.140443 C354.964956,341.570202 352.710057,342.28507 349.945946,342.28507 C348.103205,342.28507 346.563569,342.042742 345.326993,341.558078 C344.090417,341.073414 342.962968,340.297963 341.944611,339.231703 L343.981314,334.288155 C345.387617,336.226811 347.351561,337.196124 349.873206,337.196124 C351.279508,337.196124 352.528189,336.77205 353.619286,335.923888 C354.710382,335.075726 355.668108,333.536941 356.492492,331.307486 L358.383717,326.582036 L343.181181,290.305121 L349.800467,290.305121 L358.892893,314.00507 L361.147814,320.475301 L363.766433,313.278077 L372.276943,290.305121 L378.532532,290.305121 L361.438772,332.761471 Z M383.915248,322.220083 L402.972973,299.901419 L407.555555,295.175969 L401.081748,295.321367 L384.133467,295.321367 L384.133467,290.305121 L414.029363,290.305121 L414.029363,294.739774 L394.971638,317.058437 L390.461795,321.783887 L397.517517,321.638489 L414.611278,321.638489 L414.611278,326.654736 L383.915248,326.654736 L383.915248,322.220083 Z M455.709042,310.660905 L428.286286,310.660905 C428.625738,314.344351 429.850173,317.203826 431.959626,319.239414 C434.06908,321.275003 436.79678,322.292782 440.142809,322.292782 C442.809934,322.292782 445.028464,321.832358 446.798465,320.911497 C448.568466,319.990635 449.768654,318.657829 450.399066,316.913039 L455.272606,319.457512 C453.817811,322.026231 451.878112,323.98909 449.453453,325.34615 C447.028794,326.703209 443.925277,327.381728 440.142809,327.381728 C434.66308,327.381728 430.359375,325.709662 427.231565,322.365481 C424.103755,319.0213 422.539873,314.392828 422.539873,308.479928 C422.539873,302.567028 424.031016,297.938556 427.013347,294.594375 C429.995677,291.250194 434.226644,289.578128 439.706373,289.578128 C443.100896,289.578128 446.034689,290.329346 448.507841,291.831804 C450.980993,293.334263 452.847953,295.369821 454.108775,297.93854 C455.369598,300.507259 456,303.390966 456,306.589748 C456,307.946807 455.903015,309.303846 455.709042,310.660905 L455.709042,310.660905 Z M431.959626,297.502344 C429.995652,299.392534 428.795464,302.058146 428.359026,305.49926 L450.399066,305.49926 C450.01112,302.106612 448.895794,299.453117 447.053053,297.538694 C445.210312,295.624271 442.761443,294.667074 439.706373,294.667074 C436.505823,294.667074 433.9236,295.612155 431.959626,297.502344 L431.959626,297.502344 Z M96.3983162,302.330459 L103.313309,290.932867 L117.143296,290.932867 L124.05829,302.330459 L117.143296,313.728051 L103.313309,313.728051 L96.3983162,302.330459 Z M96.3983151,329.990433 L103.313309,318.592842 L117.143295,318.592842 L124.058289,329.990433 L117.143295,341.388025 L103.313309,341.388025 L96.3983151,329.990433 Z M122.719927,316.160444 L129.63492,304.762852 L143.464907,304.762852 L150.3799,316.160444 L143.464907,327.558035 L129.63492,327.558035 L122.719927,316.160444 Z M122.719925,288.500472 L129.634918,277.10288 L143.464905,277.10288 L150.379898,288.500472 L143.464905,299.898064 L129.634918,299.898064 L122.719925,288.500472 Z M96.3292545,274.670484 L103.244248,263.272893 L117.074235,263.272893 L123.989228,274.670484 L117.074235,286.068076 L103.244248,286.068076 L96.3292545,274.670484 Z M70.0076429,288.500474 L76.9226363,277.102883 L90.7526229,277.102883 L97.6676163,288.500474 L90.7526229,299.898066 L76.9226363,299.898066 L70.0076429,288.500474 Z M70.0767077,316.160446 L76.9917011,304.762854 L90.8216877,304.762854 L97.7366812,316.160446 L90.8216877,327.558037 L76.9917011,327.558037 L70.0767077,316.160446 Z" id="dark-gray/logo-catalyze-dark-gray"></path>
        </g>
    </g>
</svg>