<?xml version="1.0" encoding="UTF-8" standalone="no"?>
<svg width="386px" height="80px" viewBox="0 0 386 80" version="1.1" xmlns="http://www.w3.org/2000/svg" xmlns:xlink="http://www.w3.org/1999/xlink">
    <!-- Generator: Sketch 3.8.3 (29802) - http://www.bohemiancoding.com/sketch -->
    <title>white/logo-catalyze-white</title>
    <desc>Created with Sketch.</desc>
    <defs></defs>
    <g id="white" stroke="none" stroke-width="1" fill="none" fill-rule="evenodd">
        <g id="icons,-branding-&amp;-other-(white)" transform="translate(-67.000000, -293.000000)" fill="#FFFFFF">
            <path d="M195.284284,353.928515 C191.841268,356.230668 187.864887,357.381728 183.355021,357.381728 C178.845155,357.381728 174.917267,356.376065 171.571237,354.36471 C168.225208,352.353355 165.642985,349.49388 163.82449,345.786201 C162.005996,342.078521 161.096763,337.704495 161.096763,332.66399 C161.096763,327.671951 162.005996,323.310041 163.82449,319.578128 C165.642985,315.846216 168.225208,312.974625 171.571237,310.963269 C174.917267,308.951914 178.796663,307.946251 183.209542,307.946251 C187.816394,307.946251 191.683667,308.891332 194.811477,310.781521 C197.939288,312.671711 200.279048,315.458487 201.83083,319.141933 L196.084417,321.831804 C195.017567,319.020753 193.465809,316.912497 191.429095,315.506971 C189.392381,314.101446 186.798035,313.398694 183.645979,313.398694 C180.348442,313.398694 177.463141,314.162028 174.989989,315.688719 C172.516837,317.215411 170.601385,319.432715 169.243576,322.340699 C167.885767,325.248683 167.206873,328.689745 167.206873,332.66399 C167.206873,338.673823 168.649523,343.387109 171.534867,346.80399 C174.420212,350.220871 178.360223,351.929286 183.355021,351.929286 C186.604064,351.929286 189.416626,351.105369 191.792792,349.457512 C194.168958,347.809654 195.866194,345.386371 196.884551,342.187589 L202.703703,344.368566 C201.200414,348.439743 198.727299,351.626361 195.284284,353.928515 L195.284284,353.928515 Z M245.547213,352.074684 L245.183516,356.654736 C243.825707,357.1394 242.370934,357.381728 240.819152,357.381728 C238.927918,357.381728 237.436775,356.96977 236.345678,356.145841 C235.254582,355.321912 234.563564,353.940641 234.272605,352.001985 C233.157262,353.698309 231.520642,355.018998 229.362695,355.964093 C227.204749,356.909188 224.937727,357.381728 222.561561,357.381728 C218.973066,357.381728 216.015026,356.545695 213.687353,354.873605 C211.359681,353.201514 210.195862,350.790347 210.195862,347.640031 C210.195862,344.877447 211.408173,342.490512 213.832832,340.479157 C216.257491,338.467802 219.773194,337.074414 224.380046,336.298951 L234.054387,334.699568 L234.054387,332.66399 C234.054387,330.24067 233.302754,328.302043 231.799466,326.848051 C230.296177,325.394059 228.211001,324.667074 225.543877,324.667074 C223.119218,324.667074 221.021919,325.248662 219.251918,326.411856 C217.481917,327.575049 216.112005,329.295581 215.142141,331.573501 L210.850517,328.447434 C211.82038,325.733316 213.626724,323.576594 216.269602,321.977203 C218.912481,320.377812 222.003874,319.578128 225.543877,319.578128 C229.85977,319.578128 233.32698,320.62014 235.945612,322.704195 C238.564243,324.78825 239.87354,327.86582 239.87354,331.936997 L239.87354,349.821008 C239.87354,350.693403 240.091756,351.34769 240.528194,351.783887 C240.964633,352.220085 241.667773,352.43818 242.637637,352.43818 C243.607501,352.43818 244.57735,352.317016 245.547213,352.074684 L245.547213,352.074684 Z M230.744744,350.111805 C232.951184,348.657813 234.054387,346.767652 234.054387,344.441265 L234.054387,339.425018 L225.907574,340.951702 C222.658531,341.533299 220.233908,342.369331 218.633633,343.459825 C217.033358,344.550319 216.233233,345.943707 216.233233,347.640031 C216.233233,349.142489 216.815142,350.293549 217.978978,351.093245 C219.142815,351.89294 220.767312,352.292782 222.852519,352.292782 C225.907589,352.292782 228.538304,351.565797 230.744744,350.111805 L230.744744,350.111805 Z M274.788455,354.110263 C272.363796,356.29125 269.236032,357.381728 265.405071,357.381728 C262.446987,357.381728 260.034488,356.582044 258.1675,354.982653 C256.300513,353.383262 255.342787,350.935746 255.294294,347.640031 L255.294294,325.321367 L248.020353,325.321367 L248.020353,320.305121 L255.294294,320.305121 L255.294294,311.581213 L261.113446,309.98183 L261.113446,320.305121 L274.570236,320.305121 L274.570236,325.321367 L261.113446,325.321367 L261.113446,346.622242 C261.113446,348.367032 261.610494,349.687722 262.604604,350.58435 C263.598714,351.480978 264.920134,351.929286 266.568902,351.929286 C268.896574,351.929286 270.957504,351.032671 272.751751,349.239414 L274.788455,354.110263 Z M315.74074,352.074684 L315.377043,356.654736 C314.019234,357.1394 312.564461,357.381728 311.012679,357.381728 C309.121445,357.381728 307.630302,356.96977 306.539205,356.145841 C305.448109,355.321912 304.757091,353.940641 304.466132,352.001985 C303.350789,353.698309 301.714169,355.018998 299.556222,355.964093 C297.398276,356.909188 295.131254,357.381728 292.755088,357.381728 C289.166593,357.381728 286.208553,356.545695 283.88088,354.873605 C281.553208,353.201514 280.389389,350.790347 280.389389,347.640031 C280.389389,344.877447 281.6017,342.490512 284.026359,340.479157 C286.451018,338.467802 289.966721,337.074414 294.573573,336.298951 L304.247914,334.699568 L304.247914,332.66399 C304.247914,330.24067 303.496281,328.302043 301.992993,326.848051 C300.489704,325.394059 298.404529,324.667074 295.737404,324.667074 C293.312745,324.667074 291.215446,325.248662 289.445445,326.411856 C287.675444,327.575049 286.305532,329.295581 285.335669,331.573501 L281.044044,328.447434 C282.013907,325.733316 283.820251,323.576594 286.463129,321.977203 C289.106008,320.377812 292.197402,319.578128 295.737404,319.578128 C300.053297,319.578128 303.520507,320.62014 306.139139,322.704195 C308.75777,324.78825 310.067067,327.86582 310.067067,331.936997 L310.067067,349.821008 C310.067067,350.693403 310.285283,351.34769 310.721721,351.783887 C311.15816,352.220085 311.861301,352.43818 312.831164,352.43818 C313.801028,352.43818 314.770877,352.317016 315.74074,352.074684 L315.74074,352.074684 Z M300.938271,350.111805 C303.144711,348.657813 304.247914,346.767652 304.247914,344.441265 L304.247914,339.425018 L296.101101,340.951702 C292.852058,341.533299 290.427435,342.369331 288.82716,343.459825 C287.226885,344.550319 286.42676,345.943707 286.42676,347.640031 C286.42676,349.142489 287.008669,350.293549 288.172505,351.093245 C289.336342,351.89294 290.960839,352.292782 293.046046,352.292782 C296.101116,352.292782 298.731832,351.565797 300.938271,350.111805 L300.938271,350.111805 Z M329.706706,346.913039 C329.706706,348.754762 329.985538,350.026986 330.54321,350.729748 C331.100881,351.432511 332.131346,351.783887 333.634634,351.783887 C334.652991,351.783887 335.537978,351.711189 336.289623,351.56579 C337.041267,351.42039 337.926254,351.153829 338.944611,350.766098 L337.998999,356.363939 C336.398724,357.042468 334.604503,357.381728 332.616283,357.381728 C329.658199,357.381728 327.463915,356.582044 326.033366,354.982653 C324.602818,353.383262 323.887554,350.935746 323.887554,347.640031 L323.887554,303.584298 L329.706706,303.584298 L329.706706,346.913039 Z M358.438772,362.761471 C357.03247,366.251052 355.456465,368.710684 353.71071,370.140443 C351.964956,371.570202 349.710057,372.28507 346.945946,372.28507 C345.103205,372.28507 343.563569,372.042742 342.326993,371.558078 C341.090417,371.073414 339.962968,370.297963 338.944611,369.231703 L340.981314,364.288155 C342.387617,366.226811 344.351561,367.196124 346.873206,367.196124 C348.279508,367.196124 349.528189,366.77205 350.619286,365.923888 C351.710382,365.075726 352.668108,363.536941 353.492492,361.307486 L355.383717,356.582036 L340.181181,320.305121 L346.800467,320.305121 L355.892893,344.00507 L358.147814,350.475301 L360.766433,343.278077 L369.276943,320.305121 L375.532532,320.305121 L358.438772,362.761471 Z M380.915248,352.220083 L399.972973,329.901419 L404.555555,325.175969 L398.081748,325.321367 L381.133467,325.321367 L381.133467,320.305121 L411.029363,320.305121 L411.029363,324.739774 L391.971638,347.058437 L387.461795,351.783887 L394.517517,351.638489 L411.611278,351.638489 L411.611278,356.654736 L380.915248,356.654736 L380.915248,352.220083 Z M452.709042,340.660905 L425.286286,340.660905 C425.625738,344.344351 426.850173,347.203826 428.959626,349.239414 C431.06908,351.275003 433.79678,352.292782 437.142809,352.292782 C439.809934,352.292782 442.028464,351.832358 443.798465,350.911497 C445.568466,349.990635 446.768654,348.657829 447.399066,346.913039 L452.272606,349.457512 C450.817811,352.026231 448.878112,353.98909 446.453453,355.34615 C444.028794,356.703209 440.925277,357.381728 437.142809,357.381728 C431.66308,357.381728 427.359375,355.709662 424.231565,352.365481 C421.103755,349.0213 419.539873,344.392828 419.539873,338.479928 C419.539873,332.567028 421.031016,327.938556 424.013347,324.594375 C426.995677,321.250194 431.226644,319.578128 436.706373,319.578128 C440.100896,319.578128 443.034689,320.329346 445.507841,321.831804 C447.980993,323.334263 449.847953,325.369821 451.108775,327.93854 C452.369598,330.507259 453,333.390966 453,336.589748 C453,337.946807 452.903015,339.303846 452.709042,340.660905 L452.709042,340.660905 Z M428.959626,327.502344 C426.995652,329.392534 425.795464,332.058146 425.359026,335.49926 L447.399066,335.49926 C447.01112,332.106612 445.895794,329.453117 444.053053,327.538694 C442.210312,325.624271 439.761443,324.667074 436.706373,324.667074 C433.505823,324.667074 430.9236,325.612155 428.959626,327.502344 L428.959626,327.502344 Z M93.3983162,332.330459 L100.313309,320.932867 L114.143296,320.932867 L121.05829,332.330459 L114.143296,343.728051 L100.313309,343.728051 L93.3983162,332.330459 Z M93.3983151,359.990433 L100.313309,348.592842 L114.143295,348.592842 L121.058289,359.990433 L114.143295,371.388025 L100.313309,371.388025 L93.3983151,359.990433 Z M119.719927,346.160444 L126.63492,334.762852 L140.464907,334.762852 L147.3799,346.160444 L140.464907,357.558035 L126.63492,357.558035 L119.719927,346.160444 Z M119.719925,318.500472 L126.634918,307.10288 L140.464905,307.10288 L147.379898,318.500472 L140.464905,329.898064 L126.634918,329.898064 L119.719925,318.500472 Z M93.3292545,304.670484 L100.244248,293.272893 L114.074235,293.272893 L120.989228,304.670484 L114.074235,316.068076 L100.244248,316.068076 L93.3292545,304.670484 Z M67.0076429,318.500474 L73.9226363,307.102883 L87.7526229,307.102883 L94.6676163,318.500474 L87.7526229,329.898066 L73.9226363,329.898066 L67.0076429,318.500474 Z M67.0767077,346.160446 L73.9917011,334.762854 L87.8216877,334.762854 L94.7366812,346.160446 L87.8216877,357.558037 L73.9917011,357.558037 L67.0767077,346.160446 Z" id="white/logo-catalyze-white"></path>
        </g>
    </g>
</svg>