<?xml version="1.0" encoding="UTF-8" standalone="no"?>
<svg width="386px" height="77px" viewBox="0 0 386 77" version="1.1" xmlns="http://www.w3.org/2000/svg" xmlns:xlink="http://www.w3.org/1999/xlink">
    <!-- Generator: Sketch 3.8.3 (29802) - http://www.bohemiancoding.com/sketch -->
    <title>white/logo-Redpoint-white</title>
    <desc>Created with Sketch.</desc>
    <defs></defs>
    <g id="white" stroke="none" stroke-width="1" fill="none" fill-rule="evenodd">
        <g id="icons,-branding-&amp;-other-(white)" transform="translate(-67.000000, -555.000000)" fill="#FFFFFF">
            <path d="M180.425781,596.633884 L167.177603,596.633884 L167.177603,616.565605 L163.160868,616.565605 L163.160868,570.081732 L180.49625,570.081732 C185.147229,570.081732 188.870306,571.267294 191.665592,573.638452 C194.460877,576.009611 195.858499,579.237626 195.858499,583.322593 C195.858499,586.703255 194.895432,589.520431 192.969269,591.774206 C191.043105,594.027981 188.388798,595.483522 185.006268,596.140873 L198.395384,616.565605 L193.673959,616.565605 L180.425781,596.633884 Z M167.177603,592.901088 L180.425781,592.901088 C184.090189,592.901088 186.873688,592.079411 188.776361,590.436034 C190.679035,588.792656 191.630357,586.421533 191.630357,583.322593 C191.630357,580.223652 190.679035,577.864267 188.776361,576.244367 C186.873688,574.624466 184.090189,573.814528 180.425781,573.814528 L167.177603,573.814528 L167.177603,592.901088 Z M235.88491,600.57797 L208.261049,600.57797 C208.495947,604.70989 209.729143,607.937905 211.960673,610.26211 C214.192204,612.586315 217.187108,613.748401 220.945475,613.748401 C223.670291,613.748401 226.007491,613.208442 227.957144,612.128508 C229.906797,611.048574 231.304418,609.522604 232.150051,607.550551 L235.462096,609.311304 C232.6903,614.617065 227.851474,617.269906 220.945475,617.269906 C215.73074,617.269906 211.643577,615.65003 208.683863,612.410229 C205.724149,609.170427 204.244314,604.686422 204.244314,598.958077 C204.244314,593.229733 205.67717,588.745727 208.542925,585.505926 C211.40868,582.266125 215.425375,580.646248 220.59313,580.646248 C223.787742,580.646248 226.547751,581.385757 228.873241,582.864797 C231.198731,584.343837 232.972184,586.386289 234.193653,588.992217 C235.415122,591.598144 236.025848,594.567917 236.025848,597.901626 C236.025848,598.746791 235.978869,599.638897 235.88491,600.57797 L235.88491,600.57797 Z M211.890204,587.513184 C209.752633,589.743482 208.542926,592.901067 208.261049,596.986034 L232.22052,596.986034 C231.938642,592.948021 230.78766,589.802174 228.767537,587.548399 C226.747415,585.294625 224.02264,584.167754 220.59313,584.167754 C216.928722,584.167754 214.027775,585.282886 211.890204,587.513184 L211.890204,587.513184 Z M276.827418,565.151624 L276.827418,616.565605 L273.233497,616.565605 L273.02209,609.170443 C271.988539,611.658986 270.332533,613.63101 268.054023,615.086573 C265.775513,616.542136 263.132951,617.269906 260.126257,617.269906 C255.14642,617.269906 251.223684,615.65003 248.357929,612.410229 C245.492174,609.170427 244.059318,604.686422 244.059318,598.958077 C244.059318,593.229733 245.492174,588.745727 248.357929,585.505926 C251.223684,582.266125 255.14642,580.646248 260.126257,580.646248 C263.085971,580.646248 265.66981,581.327066 267.877851,582.688722 C270.085891,584.050377 271.730152,585.928495 272.810683,588.323131 L272.810683,565.151624 L276.827418,565.151624 Z M269.251997,610.156465 C271.436548,607.761829 272.622765,604.475124 272.810683,600.296249 L272.810683,597.619905 C272.622765,593.441031 271.436548,590.154325 269.251997,587.75969 C267.067446,585.365054 264.189989,584.167754 260.61954,584.167754 C256.673255,584.167754 253.596138,585.482436 251.388097,588.11184 C249.180056,590.741244 248.076052,594.35662 248.076052,598.958077 C248.076052,603.559534 249.180056,607.17491 251.388097,609.804314 C253.596138,612.433718 256.673255,613.748401 260.61954,613.748401 C264.189989,613.748401 267.067446,612.551101 269.251997,610.156465 L269.251997,610.156465 Z M317.981333,585.505926 C320.847088,588.745727 322.279944,593.229733 322.279944,598.958077 C322.279944,604.686422 320.847088,609.170427 317.981333,612.410229 C315.115578,615.65003 311.192841,617.269906 306.213005,617.269906 C303.25329,617.269906 300.669452,616.589089 298.461411,615.227433 C296.25337,613.865777 294.609109,611.98766 293.528579,609.593024 L293.528579,631.355928 L289.511844,631.355928 L289.511844,581.35055 L293.105764,581.35055 L293.317172,588.816141 C294.350722,586.280645 295.994983,584.285145 298.250004,582.829582 C300.505024,581.374019 303.159331,580.646248 306.213005,580.646248 C311.192841,580.646248 315.115578,582.266125 317.981333,585.505926 L317.981333,585.505926 Z M314.951165,609.804314 C317.159205,607.17491 318.263209,603.559534 318.263209,598.958077 C318.263209,594.35662 317.159205,590.741244 314.951165,588.11184 C312.743124,585.482436 309.666007,584.167754 305.719721,584.167754 C302.149272,584.167754 299.248326,585.400269 297.016796,587.865335 C294.785265,590.330401 293.622538,593.699274 293.528579,597.972056 L293.528579,599.944099 C293.622538,604.21688 294.77352,607.585754 296.981561,610.05082 C299.189602,612.515886 302.102293,613.748401 305.719721,613.748401 C309.666007,613.748401 312.743124,612.433718 314.951165,609.804314 L314.951165,609.804314 Z M359.734235,585.505926 C362.717439,588.745727 364.209019,593.229733 364.209019,598.958077 C364.209019,604.686422 362.717439,609.170427 359.734235,612.410229 C356.751031,615.65003 352.628634,617.269906 347.36692,617.269906 C342.105206,617.269906 337.982808,615.65003 334.999604,612.410229 C332.0164,609.170427 330.524821,604.686422 330.524821,598.958077 C330.524821,593.229733 332.0164,588.745727 334.999604,585.505926 C337.982808,582.266125 342.105206,580.646248 347.36692,580.646248 C352.628634,580.646248 356.751031,582.266125 359.734235,585.505926 L359.734235,585.505926 Z M337.959304,588.076625 C335.680794,590.729506 334.541556,594.35662 334.541556,598.958077 C334.541556,603.559534 335.680794,607.186649 337.959304,609.839529 C340.237814,612.49241 343.373655,613.818831 347.36692,613.818831 C351.360185,613.818831 354.496025,612.49241 356.774536,609.839529 C359.053046,607.186649 360.192284,603.559534 360.192284,598.958077 C360.192284,594.35662 359.053046,590.729506 356.774536,588.076625 C354.496025,585.423744 351.360185,584.097324 347.36692,584.097324 C343.373655,584.097324 340.237814,585.423744 337.959304,588.076625 L337.959304,588.076625 Z M374.28609,573.638452 C373.675356,573.051532 373.369993,572.26507 373.369993,571.279044 C373.369993,570.293017 373.675356,569.506556 374.28609,568.919635 C374.896825,568.332714 375.695466,568.039259 376.682037,568.039259 C377.621629,568.039259 378.396781,568.332714 379.007515,568.919635 C379.61825,569.506556 379.923613,570.293017 379.923613,571.279044 C379.923613,572.26507 379.61825,573.051532 379.007515,573.638452 C378.396781,574.225373 377.621629,574.518829 376.682037,574.518829 C375.695466,574.518829 374.896825,574.225373 374.28609,573.638452 L374.28609,573.638452 Z M378.65517,616.565605 L374.638435,616.565605 L374.638435,581.35055 L378.65517,581.35055 L378.65517,616.565605 Z M417.765484,584.062109 C420.255402,586.33936 421.500342,589.590851 421.500342,593.816679 L421.500342,616.565605 L417.483607,616.565605 L417.483607,595.084421 C417.483607,591.422037 416.591009,588.687029 414.805784,586.879313 C413.02056,585.071598 410.601147,584.167754 407.547474,584.167754 C405.386413,584.167754 403.378065,584.66076 401.522371,585.646786 C399.666678,586.632813 398.175098,588.088354 397.047588,590.013453 C395.920078,591.938553 395.356331,594.239247 395.356331,596.915604 L395.356331,616.565605 L391.339596,616.565605 L391.339596,581.35055 L394.933517,581.35055 L395.144924,588.04141 C396.272434,585.646774 397.975419,583.81561 400.253929,582.547861 C402.532439,581.280113 405.104533,580.646248 407.970288,580.646248 C412.010533,580.646248 415.275565,581.784857 417.765484,584.062109 L417.765484,584.062109 Z M132.003977,616.587544 C135.734977,612.210195 138.412625,606.908525 139.645044,601.074195 L117.649617,579.090917 L96.362097,594.497504 L82.0480747,587.894681 L71.172949,603.045574 C72.6361247,608.411614 75.3371364,613.267492 78.9503978,617.287802 L82.0480747,612.471855 L94.526966,611.004561 L107.372883,599.633033 L117.282591,608.436796 L126.09122,604.768561 L132.003977,616.587544 Z M453,614.311842 C450.885918,616.283894 448.137654,617.269906 444.755123,617.269906 C441.889368,617.269906 439.622637,616.483444 437.954861,614.910497 C436.287086,613.33755 435.453211,610.954689 435.453211,607.761841 L435.453211,584.801625 L428.406308,584.801625 L428.406308,581.35055 L435.453211,581.35055 L435.453211,572.617216 L439.469946,571.560764 L439.469946,581.35055 L452.718124,581.35055 L452.718124,584.801625 L439.469946,584.801625 L439.469946,607.12797 C439.469946,609.240884 439.986713,610.837284 441.020264,611.917218 C442.053815,612.997152 443.53365,613.53711 445.459813,613.53711 C447.855773,613.53711 449.875865,612.668481 451.52015,610.931196 L453,614.311842 Z M105.170726,631.9135 C126.251836,631.9135 143.341452,614.833323 143.341452,593.763857 C143.341452,572.69439 126.251836,555.614213 105.170726,555.614213 C84.0896162,555.614213 67,572.69439 67,593.763857 C67,614.833323 84.0896162,631.9135 105.170726,631.9135 Z M89.388599,625.310677 C97.0961495,629.712559 108.473962,629.712559 116.181513,627.511618 C123.889063,625.310677 129.761482,619.074678 129.761482,619.074678 L124.990142,609.537267 L116.181513,612.471855 L107.372883,604.034914 L95.9950708,614.305972 L84.250232,615.406443 L81.6810485,619.441501 C81.6810485,619.441501 81.6810485,620.908795 89.388599,625.310677 Z" id="white/logo-Redpoint-white"></path>
        </g>
    </g>
</svg>