<?xml version="1.0" encoding="UTF-8" standalone="no"?>
<svg width="80px" height="64px" viewBox="0 0 80 64" version="1.1" xmlns="http://www.w3.org/2000/svg" xmlns:xlink="http://www.w3.org/1999/xlink">
    <!-- Generator: Sketch 3.8.3 (29802) - http://www.bohemiancoding.com/sketch -->
    <title>blue/icon-large-redpoint-lightswitch-blue</title>
    <desc>Created with Sketch.</desc>
    <defs></defs>
    <g id="blue,-base" stroke="none" stroke-width="1" fill="none" fill-rule="evenodd">
        <g id="icons,-large-detailed-(blue)" transform="translate(-266.000000, -581.000000)" fill="#1055FF">
            <g id="blue/icon-large-redpoint-lightswitch-blue" transform="translate(266.000000, 581.000000)">
                <g id="u">
                    <g id="PaaS">
                        <g id="connectors_v1.3_2015-11-15_Kris">
                            <g id="Steps">
                                <path d="M2.01755,0 C0.903288,0 0,0.9047242 0,1.9855728 L0,62.0144272 C0,63.1110288 0.898438,64 2.01755,64 L77.98245,64 C79.096712,64 80,63.0952758 80,62.0144272 L80,1.9855728 C80,0.8889712 79.101562,0 77.98245,0 L2.01755,0 L2.01755,0 Z M78,60.0036926 C78,61.1062228 77.09354,62 76.00625,62 L3.99375,62 C2.892632,62 2,61.1052696 2,60.0036926 L2,3.9963074 C2,2.8937772 2.90646,2 3.99375,2 L76.00625,2 C77.107368,2 78,2.8947304 78,3.9963074 L78,60.0036926 L78,60.0036926 Z M11.034482,14 C12.689656,14 14,12.6206896 14,10.9655172 C14,9.3103448 12.689656,8 11.034482,8 C9.37931,8 8,9.3103448 8,10.9655172 C8,12.6206896 9.37931,14 11.034482,14 L11.034482,14 L11.034482,14 Z M69.034482,14 C70.689656,14 72,12.6206896 72,10.9655172 C72,9.3103448 70.689656,8 69.034482,8 C67.37931,8 66,9.3103448 66,10.9655172 C66,12.6206896 67.37931,14 69.034482,14 L69.034482,14 L69.034482,14 Z M11.034482,50 C9.37931,50 8,51.3793104 8,53.0344828 C8,54.6896552 9.37931,56 11.034482,56 C12.689656,56 14,54.6896552 14,53.0344828 C14,51.3793104 12.689656,50 11.034482,50 L11.034482,50 L11.034482,50 Z M69.034482,50 C67.37931,50 66,51.3793104 66,53.0344828 C66,54.6896552 67.37931,56 69.034482,56 C70.689656,56 72,54.6896552 72,53.0344828 C72,51.3793104 70.689656,50 69.034482,50 L69.034482,50 L69.034482,50 Z M50,18.0017434 C50,16.896211 49.088672,16 48.009204,16 L31.990796,16 C30.89131,16 30,16.8892618 30,18.0017434 L30,45.9982566 C30,47.103789 30.911328,48 31.990796,48 L48.009204,48 C49.10869,48 50,47.1107382 50,45.9982566 L50,18.0017434 L50,18.0017434 Z M48,44.0059398 C48,45.1072288 47.093928,46 46.00594,46 L33.99406,46 C32.892772,46 32,45.0939274 32,44.0059398 L32,31.9940602 C32,30.8927712 32.906072,30 33.99406,30 L46.00594,30 C47.107228,30 48,30.9060726 48,31.9940602 L48,44.0059398 L48,44.0059398 Z" id="u"></path>
                            </g>
                        </g>
                    </g>
                </g>
            </g>
        </g>
    </g>
</svg>