<?xml version="1.0" encoding="UTF-8" standalone="no"?>
<svg width="103px" height="64px" viewBox="0 0 103 64" version="1.1" xmlns="http://www.w3.org/2000/svg" xmlns:xlink="http://www.w3.org/1999/xlink">
    <!-- Generator: Sketch 3.8.3 (29802) - http://www.bohemiancoding.com/sketch -->
    <title>dark gray/icon-large-redpoint-ehr-dark-gray</title>
    <desc>Created with Sketch.</desc>
    <defs></defs>
    <g id="gray" stroke="none" stroke-width="1" fill="none" fill-rule="evenodd">
        <g id="icons,-large-detailed-(gray)" transform="translate(-85.000000, -1097.000000)" fill="#242F36">
            <g id="dark-gray/icon-large-redpoint-ehr-dark-gray" transform="translate(85.000000, 1097.000000)">
                <g id="Rectangle-39">
                    <g id="PaaS">
                        <g id="redpoint_v2.3_2015-11-13_Kris">
                            <g id="Features">
                                <g id="3">
                                    <path d="M0,7.65632571 C0,3.42785377 3.43631209,0 7.69664307,0 L94.7033569,0 C98.9540956,0 102.4,3.44091796 102.4,7.65632571 L102.4,56.3436744 C102.4,60.5721462 98.9636879,64 94.7033569,64 L7.69664307,64 C3.44590449,64 0,60.559082 0,56.3436744 L0,7.65632571 L0,7.65632571 Z M2.56,7.6822124 C2.56,4.85329262 4.86873802,2.56 7.6873196,2.56 L94.7126804,2.56 C97.5444209,2.56 99.84,4.86816579 99.84,7.6822124 L99.84,56.3177876 C99.84,59.1467075 97.531262,61.44 94.7126804,61.44 L7.6873196,61.44 C4.85557919,61.44 2.56,59.1318341 2.56,56.3177876 L2.56,7.6822124 L2.56,7.6822124 Z M30.1703276,26.9344 C27.3902817,26.9344 24.6889162,30.2914368 24.6889162,30.2914368 C24.6889162,30.2914368 21.9875507,26.9344 19.1812778,26.9344 C16.4012318,26.9344 13.75232,28.3244229 13.75232,32.4420383 C13.75232,35.3532186 16.4799123,37.8972229 16.4799123,37.8972229 L24.6889162,46.08 L32.89792,37.8972229 C32.89792,37.8972229 35.6255124,35.3532186 35.6255124,32.4420383 C35.6255124,28.3244229 32.9503736,26.9344 30.1703276,26.9344 L30.1703276,26.9344 Z M5.12,12.8 L97.28,12.8 L97.28,15.36 L5.12,15.36 L5.12,12.8 L5.12,12.8 Z M48.64,28.16 L64,28.16 L64,30.72 L48.64,30.72 L48.64,28.16 L48.64,28.16 Z M71.68,28.16 L81.92,28.16 L81.92,30.72 L71.68,30.72 L71.68,28.16 L71.68,28.16 Z M48.64,35.84 L61.44,35.84 L61.44,38.4 L48.64,38.4 L48.64,35.84 L48.64,35.84 Z M66.56,35.84 L84.48,35.84 L84.48,38.4 L66.56,38.4 L66.56,35.84 L66.56,35.84 Z M48.64,43.52 L66.56,43.52 L66.56,46.08 L48.64,46.08 L48.64,43.52 L48.64,43.52 Z M71.68,43.52 L76.8,43.52 L76.8,46.08 L71.68,46.08 L71.68,43.52 L71.68,43.52 Z M81.92,43.52 L87.04,43.52 L87.04,46.08 L81.92,46.08 L81.92,43.52 L81.92,43.52 Z M10.24,5.12 L12.8,5.12 L12.8,12.8 L10.24,12.8 L10.24,5.12 L10.24,5.12 Z M64,5.12 L66.56,5.12 L66.56,12.8 L64,12.8 L64,5.12 L64,5.12 Z M81.92,5.12 L84.48,5.12 L84.48,12.8 L81.92,12.8 L81.92,5.12 L81.92,5.12 Z" id="Rectangle-39"></path>
                                </g>
                            </g>
                        </g>
                    </g>
                </g>
            </g>
        </g>
    </g>
</svg>