<?xml version="1.0" encoding="UTF-8" standalone="no"?>
<svg width="27px" height="32px" viewBox="0 0 27 32" version="1.1" xmlns="http://www.w3.org/2000/svg" xmlns:xlink="http://www.w3.org/1999/xlink">
    <!-- Generator: Sketch 3.8.3 (29802) - http://www.bohemiancoding.com/sketch -->
    <title>blue/icon-ui-open-blue</title>
    <desc>Created with Sketch.</desc>
    <defs></defs>
    <g id="blue,-base" stroke="none" stroke-width="1" fill="none" fill-rule="evenodd">
        <g id="icons,-utility-(blue)" transform="translate(-800.000000, -367.000000)" fill="#1055FF">
            <g id="blue/icon-ui-open-blue" transform="translate(800.000000, 367.000000)">
                <g id="icon-open">
                    <g id="Page-1">
                        <g id="_row">
                            <g id="icon-open">
                                <path d="M7.59198409,12.1842424 L7.59198409,7.86474 C7.59557837,7.80104556 7.63206166,7.54244687 7.72906361,7.18948378 C7.89633551,6.58082783 8.17839006,5.9703984 8.6006934,5.40195771 C9.12247901,4.6996091 9.82644871,4.10602503 10.7512778,3.6521062 C12.1698007,2.95587569 13.7287026,2.78033454 15.2625879,3.02833283 C16.3704651,3.20745421 17.3827488,3.62539916 17.6105569,3.84902188 L19.2918068,2.13630508 C17.6627035,0.537132497 13.1404466,-0.194025173 9.69382775,1.49762267 C8.42093675,2.12237504 7.42082194,2.96566732 6.6741619,3.97070778 C6.06340187,4.79282027 5.65704436,5.67226924 5.41486524,6.55349169 C5.26619657,7.09445564 5.20458973,7.53113353 5.1929804,7.81585068 L5.19198409,12.1842424 L7.59198409,12.1842424 L7.59198409,12.1842424 Z" id="Path-4"></path>
                                <path d="M3.05205082,13.7794851 C3.05205082,13.5586222 3.22644689,13.3842424 3.45264592,13.3842424 L23.9442325,13.3842424 C24.1661249,13.3842424 24.3448276,13.562389 24.3448276,13.7794851 L24.3448276,29.111424 C24.3448276,29.3322869 24.1704315,29.5066666 23.9442325,29.5066666 L3.45264592,29.5066666 C3.23075355,29.5066666 3.05205082,29.3285201 3.05205082,29.111424 L3.05205082,13.7794851 L3.05205082,13.7794851 Z M0.652050817,13.7794851 L0.652050817,29.111424 C0.652050817,30.655681 1.90694193,31.9066666 3.45264592,31.9066666 L23.9442325,31.9066666 C25.4958648,31.9066666 26.7448276,30.6578204 26.7448276,29.111424 L26.7448276,13.7794851 C26.7448276,12.235228 25.4899365,10.9842424 23.9442325,10.9842424 L3.45264592,10.9842424 C1.90101367,10.9842424 0.652050817,12.2330886 0.652050817,13.7794851 L0.652050817,13.7794851 Z" id="Rectangle-1"></path>
                                <ellipse id="Oval-1" cx="13.9230534" cy="21.6948189" rx="3.42068966" ry="3.38285714"></ellipse>
                            </g>
                        </g>
                    </g>
                </g>
            </g>
        </g>
    </g>
</svg>