<?xml version="1.0" encoding="UTF-8" standalone="no"?>
<svg width="41px" height="30px" viewBox="0 0 41 30" version="1.1" xmlns="http://www.w3.org/2000/svg" xmlns:xlink="http://www.w3.org/1999/xlink">
    <!-- Generator: Sketch 3.8.3 (29802) - http://www.bohemiancoding.com/sketch -->
    <title>white/icon-ui-mail-white</title>
    <desc>Created with Sketch.</desc>
    <defs></defs>
    <g id="white" stroke="none" stroke-width="1" fill="none" fill-rule="evenodd">
        <g id="icons,-utility-white" transform="translate(-835.000000, -1183.000000)" fill="#FFFFFF">
            <g id="white/icon-ui-mail-white" transform="translate(835.000000, 1183.000000)">
                <g id="mail">
                    <g id="Page-1">
                        <g id="mail">
                            <path d="M2.28571429,2.42857143 L38.8571429,2.42857143 L37.7142857,1.28571429 L37.7142857,28.7142857 L38.8571429,27.5714286 L2.28571429,27.5714286 L3.42857143,28.7142857 L3.42857143,1.28571429 L2.28571429,2.42857143 L2.28571429,2.42857143 Z M2.28571429,0.142857143 L1.14285714,0.142857143 L1.14285714,1.28571429 L1.14285714,28.7142857 L1.14285714,29.8571429 L2.28571429,29.8571429 L38.8571429,29.8571429 L40,29.8571429 L40,28.7142857 L40,1.28571429 L40,0.142857143 L38.8571429,0.142857143 L2.28571429,0.142857143 L2.28571429,0.142857143 Z" id="Path-1"></path>
                            <path d="M1.89489078,1.70259269 L20.1806051,18.8454498 L20.5714286,19.2118469 L20.9622521,18.8454498 L39.2479664,1.70259269 L40.3021605,0.714285714 L38.8571429,0.714285714 L2.28571429,0.714285714 L0.840696678,0.714285714 L1.89489078,1.70259269 L1.89489078,1.70259269 Z M2.67653779,0.868835883 L2.28571429,1.85714286 L38.8571429,1.85714286 L38.4663194,0.868835883 L20.1806051,18.011693 L20.9622521,18.011693 L2.67653779,0.868835883 L2.67653779,0.868835883 Z" id="Path-2"></path>
                        </g>
                    </g>
                </g>
            </g>
        </g>
    </g>
</svg>