<?xml version="1.0" encoding="UTF-8" standalone="no"?>
<svg width="64px" height="64px" viewBox="0 0 64 64" version="1.1" xmlns="http://www.w3.org/2000/svg" xmlns:xlink="http://www.w3.org/1999/xlink">
    <!-- Generator: Sketch 3.8.3 (29802) - http://www.bohemiancoding.com/sketch -->
    <title>white/icon-branding-stratum-white</title>
    <desc>Created with Sketch.</desc>
    <defs></defs>
    <g id="white" stroke="none" stroke-width="1" fill="none" fill-rule="evenodd">
        <g id="icons,-branding-&amp;-other-(white)" transform="translate(-229.000000, -692.000000)" fill="#FFFFFF">
            <g id="white/icon-branding-stratum-white" transform="translate(229.000000, 692.000000)">
                <g id="Stratum">
                    <g id="Page-1">
                        <path d="M59.2251121,21.5969751 C59.8231094,23.2015849 60.2842635,24.8728404 60.5943847,26.5965512 L39.2891834,38.406217 L18.160347,28.1009949 L59.2251121,21.5969751 L59.2251121,21.5969751 L59.2251121,21.5969751 Z M12.1396232,53.4554645 C6.2556529,48.1053683 2.56185854,40.3889218 2.56185854,31.8097435 C2.56185854,29.3296007 2.87055715,26.9215584 3.45162727,24.6219436 L35.743384,40.3716857 L12.1396235,53.4554638 L12.1396232,53.4554645 L12.1396232,53.4554645 Z M14.9360589,55.7023706 C19.7036499,59.0755293 25.5252247,61.0576287 31.8097435,61.0576287 C47.9629043,61.0576287 61.0576287,47.9629043 61.0576287,31.8097435 C61.0576287,31.2567982 61.0422843,30.7074369 61.0119985,30.1620618 L14.9360589,55.7023706 L14.9360589,55.7023706 L14.9360589,55.7023706 Z M31.8097435,63.6194871 C49.3777797,63.6194871 63.6194871,49.3777797 63.6194871,31.8097435 C63.6194871,14.2417072 49.3777797,0 31.8097435,0 C14.2417072,0 0,14.2417072 0,31.8097435 C0,49.3777797 14.2417072,63.6194871 31.8097435,63.6194871 L31.8097435,63.6194871 L31.8097435,63.6194871 Z" id="Stratum"></path>
                    </g>
                </g>
            </g>
        </g>
    </g>
</svg>