<?xml version="1.0" encoding="UTF-8" standalone="no"?>
<svg width="70px" height="64px" viewBox="0 0 70 64" version="1.1" xmlns="http://www.w3.org/2000/svg" xmlns:xlink="http://www.w3.org/1999/xlink">
    <!-- Generator: Sketch 3.8.3 (29802) - http://www.bohemiancoding.com/sketch -->
    <title>white/icon-branding-baas-large-white</title>
    <desc>Created with Sketch.</desc>
    <defs></defs>
    <g id="white" stroke="none" stroke-width="1" fill="none" fill-rule="evenodd">
        <g id="icons,-branding-&amp;-other-(white)" transform="translate(-391.000000, -825.000000)" fill="#FFFFFF">
            <g id="white/icon-branding-baas-large-white" transform="translate(391.000000, 825.000000)">
                <path d="M0.747756956,33.458126 C0.334782195,32.6528253 0.335237342,31.3462872 0.747756956,30.541874 L15.6624994,1.45812603 C16.0754742,0.652825272 17.1478089,4.26325641e-14 18.0444369,4.26325641e-14 L51.6991528,4.26325641e-14 C52.6016857,4.26325641e-14 53.6685707,0.653712821 54.0810903,1.45812603 L68.9958328,30.541874 C69.4088075,31.3471747 69.4083524,32.6537128 68.9958328,33.458126 L54.0810903,62.5418739 C53.6681155,63.3471747 52.5957808,64 51.6991528,64 L18.0444369,64 C17.141904,64 16.0750191,63.3462872 15.6624994,62.5418739 L0.747756956,33.458126 Z M34.8468069,43.2363658 C29.7096164,43.2363658 24.5510544,41.9717602 22.1120243,39.2100373 C22.0398952,39.5148861 21.9918092,39.8300687 21.9918092,40.1633355 L21.9918092,45.1713802 C21.9918092,49.6123545 28.6543953,51.6274563 34.8481426,51.6274563 C41.04189,51.6274563 47.7044761,49.6097711 47.7044761,45.1713802 L47.7044761,40.1633355 C47.7044761,39.8287769 47.65639,39.5148861 47.584261,39.2100373 C45.1452309,41.9614264 39.9880045,43.2363658 34.8468069,43.2363658 Z M34.8468069,33.554835 C29.7096164,33.554835 24.5510544,32.2798956 22.11336,29.5285067 C22.0412309,29.8333553 21.9918092,30.1472462 21.9918092,30.4792213 L21.9918092,35.487266 C21.9918092,39.9243651 28.6543953,41.9433421 34.8481426,41.9433421 C41.04189,41.9433421 47.7044761,39.9243651 47.7044761,35.487266 L47.7044761,30.4792213 C47.7044761,30.1472462 47.65639,29.8320636 47.584261,29.5272149 C45.1452309,32.2798956 39.9880045,33.554835 34.8468069,33.554835 Z M34.8481426,14.3377392 C28.6543953,14.3377392 21.9918092,16.358008 21.9918092,20.7976906 L21.9918092,25.8044435 C21.9918092,30.2415426 28.6543953,32.2605196 34.8481426,32.2605196 C41.04189,32.2605196 47.7044761,30.2415426 47.7044761,25.8044435 L47.7044761,20.7976906 C47.7044761,16.3605914 41.04189,14.3377392 34.8481426,14.3377392 Z M34.8481426,24.6715946 C29.2234133,24.6715946 24.6632551,22.9367986 24.6632551,20.7963989 C24.6632551,18.6572908 29.2234133,16.9212031 34.8481426,16.9212031 C40.472872,16.9212031 45.0330302,18.6572908 45.0330302,20.7963989 C45.0330302,22.9393821 40.472872,24.6715946 34.8481426,24.6715946 Z" id="icon-baas"></path>
            </g>
        </g>
    </g>
</svg>