<?xml version="1.0" encoding="UTF-8" standalone="no"?>
<svg width="66px" height="64px" viewBox="0 0 66 64" version="1.1" xmlns="http://www.w3.org/2000/svg" xmlns:xlink="http://www.w3.org/1999/xlink">
    <!-- Generator: Sketch 3.8.3 (29802) - http://www.bohemiancoding.com/sketch -->
    <title>blue/icon-large-data-blue</title>
    <desc>Created with Sketch.</desc>
    <defs></defs>
    <g id="blue,-base" stroke="none" stroke-width="1" fill="none" fill-rule="evenodd">
        <g id="icons,-large-detailed-(blue)" transform="translate(-802.000000, -248.000000)" fill="#1055FF">
            <g id="blue/icon-large-data-blue" transform="translate(802.000000, 248.000000)">
                <polygon id="Path-1" points="12.0695652 1.57591107 12.0695652 17.9737153 12.0695652 18.7257442 12.6987232 19.1377002 19.7439403 23.7507213 19.1147823 22.5867364 19.1147823 63.6837363 21.897391 63.6837363 21.897391 22.5867364 21.897391 21.8347075 21.268233 21.4227516 14.2230159 16.8097305 14.8521739 17.9737153 14.8521739 1.57591107"></polygon>
                <polygon id="Path-1" points="19.5826087 1.57591107 19.5826087 17.9737153 19.5826087 18.7257442 20.2117667 19.1377002 27.2569838 23.7507213 26.6278258 22.5867364 26.6278258 63.6837363 29.4104345 63.6837363 29.4104345 22.5867364 29.4104345 21.8347075 28.7812765 21.4227516 21.7360594 16.8097305 22.3652174 17.9737153 22.3652174 1.57591107"></polygon>
                <polygon id="Path-1" points="40.4017391 1.57591107 40.4017391 17.9737153 41.0308971 16.8097305 33.98568 21.4227516 33.356522 21.8347075 33.356522 22.5867364 33.356522 63.6837363 36.1391307 63.6837363 36.1391307 22.5867364 35.5099727 23.7507213 42.5551898 19.1377002 43.1843478 18.7257442 43.1843478 17.9737153 43.1843478 1.57591107"></polygon>
                <polygon id="Path-1" points="47.9147826 1.57591107 47.9147826 17.9737153 48.5439406 16.8097305 41.4987235 21.4227516 40.8695655 21.8347075 40.8695655 22.5867364 40.8695655 63.6837363 43.6521742 63.6837363 43.6521742 22.5867364 43.0230162 23.7507213 50.0682333 19.1377002 50.6973913 18.7257442 50.6973913 17.9737153 50.6973913 1.57591107"></polygon>
                <ellipse id="Oval-1" cx="13.3043478" cy="2.36386662" rx="2.34782609" ry="2.36386662"></ellipse>
                <ellipse id="Oval-1" cx="20.8173913" cy="2.36386662" rx="2.34782609" ry="2.36386662"></ellipse>
                <ellipse id="Oval-1" cx="41.7913043" cy="2.36386662" rx="2.34782609" ry="2.36386662"></ellipse>
                <ellipse id="Oval-1" cx="49.3043478" cy="2.36386662" rx="2.34782609" ry="2.36386662"></ellipse>
                <ellipse id="Oval-5" cx="59.9826087" cy="18.3165892" rx="2.66086957" ry="2.67904882"></ellipse>
                <ellipse id="Oval-5" cx="48.0869565" cy="30.6086957" rx="1.40869565" ry="1.41831997"></ellipse>
                <ellipse id="Oval-5" cx="62.4869565" cy="41.324891" rx="2.66086957" ry="2.67904882"></ellipse>
                <ellipse id="Oval-5" cx="59.9826087" cy="35.0212466" rx="1.40869565" ry="1.41831997"></ellipse>
                <ellipse id="Oval-5" cx="54.6608696" cy="27.7720557" rx="1.40869565" ry="1.41831997"></ellipse>
                <ellipse id="Oval-5" cx="48.0869565" cy="52.9866329" rx="1.40869565" ry="1.41831997"></ellipse>
                <ellipse id="Oval-5" cx="60.1391304" cy="57.2415928" rx="2.8173913" ry="2.83663993"></ellipse>
                <ellipse id="Oval-5" cx="5.16521739" cy="18.3165892" rx="2.66086957" ry="2.67904882"></ellipse>
                <ellipse id="Oval-5" cx="14.5565217" cy="30.6086957" rx="1.40869565" ry="1.41831997"></ellipse>
                <ellipse id="Oval-5" cx="2.66086957" cy="41.324891" rx="2.66086957" ry="2.67904882"></ellipse>
                <ellipse id="Oval-5" cx="2.66086957" cy="35.0212466" rx="1.40869565" ry="1.41831997"></ellipse>
                <ellipse id="Oval-5" cx="7.9826087" cy="27.7720557" rx="1.40869565" ry="1.41831997"></ellipse>
                <ellipse id="Oval-5" cx="14.5565217" cy="52.9866329" rx="1.40869565" ry="1.41831997"></ellipse>
                <ellipse id="Oval-5" cx="5.32173913" cy="57.2415928" rx="2.8173913" ry="2.83663993"></ellipse>
            </g>
        </g>
    </g>
</svg>