<?xml version="1.0" encoding="UTF-8" standalone="no"?>
<svg width="44px" height="32px" viewBox="0 0 44 32" version="1.1" xmlns="http://www.w3.org/2000/svg" xmlns:xlink="http://www.w3.org/1999/xlink">
    <!-- Generator: Sketch 3.8.3 (29802) - http://www.bohemiancoding.com/sketch -->
    <title>dark gray/icon-ui-redpoint-folder-dark-gray</title>
    <desc>Created with Sketch.</desc>
    <defs></defs>
    <g id="gray" stroke="none" stroke-width="1" fill="none" fill-rule="evenodd">
        <g id="icons,-utility-(gray)" transform="translate(-531.000000, -897.000000)" fill="#242F36">
            <g id="dark-gray/icon-ui-redpoint-folder-dark-gray" transform="translate(531.000000, 897.000000)">
                <g id="Fill-98">
                    <g id="PaaS">
                        <g id="redpoint_v2.3_2015-11-13_Kris">
                            <g id="Features">
                                <g id="2-copy">
                                    <path d="M2.14039058,7.68 C0.0128723828,7.68 -0.0549896961,9.18490141 0.0166722757,10.4279437 L1.10917932,29.7464788 C1.18084129,30.9895212 2.24765819,32 3.49250326,32 L39.5488413,32 C40.7936864,32 41.8605033,30.9859155 42.24,29.7428732 L43.52,10.4310986 C43.0963342,9.18850705 42.8928723,7.68 40.900954,7.68 L2.14039058,7.68 L2.14039058,7.68 Z M3.42039058,8.96 C1.29287238,8.96 1.29287238,9.6 1.29667228,10.4279437 L2.38917932,28.4664788 C2.57287238,30.72 2.57287238,30.72 4.77250326,30.72 L38.2688413,30.72 C40.3328723,30.72 40.3328723,30.08 40.96,28.4628732 L42.24,10.4310986 C41.6128723,9.6 41.6128723,8.96 39.620954,8.96 L3.42039058,8.96 L3.42039058,8.96 Z M40.9728723,6.4 C40.6483653,4.82614085 40.3328723,3.84 39.8839709,3.84 L18.5476329,3.84 C17.8012667,3.6056338 17.9328723,2.24 17.9328723,2.24 C17.2928723,0 17.2928723,0 14.9419991,0 L4.88228083,0 C2.57287238,0 2.57287238,0 2.57287238,2.24 L2.57287238,6.4 C3.09568928,6.40630986 40.9728723,6.4 40.9728723,6.4 L40.9728723,6.4 Z" id="Fill-98"></path>
                                </g>
                            </g>
                        </g>
                    </g>
                </g>
            </g>
        </g>
    </g>
</svg>