<?xml version="1.0" encoding="UTF-8" standalone="no"?>
<svg width="38px" height="31px" viewBox="0 0 38 31" version="1.1" xmlns="http://www.w3.org/2000/svg" xmlns:xlink="http://www.w3.org/1999/xlink">
    <!-- Generator: Sketch 3.8.3 (29802) - http://www.bohemiancoding.com/sketch -->
    <title>blue/icon-ui-twitter-press-blue</title>
    <desc>Created with Sketch.</desc>
    <defs></defs>
    <g id="blue,-base" stroke="none" stroke-width="1" fill="none" fill-rule="evenodd">
        <g id="icons,-utility-(blue)" transform="translate(-692.000000, -1183.000000)" fill="#1055FF">
            <g id="blue/icon-ui-twitter-press-blue" transform="translate(691.600000, 1183.000000)">
                <g id="Shape">
                    <g id="Page-1">
                        <path d="M0.888888889,25.8076133 C0.888888889,26.2813421 1.11571132,26.6896225 1.49582244,26.9937114 C1.89250114,27.2666847 2.45814072,27.5844597 3.26549112,28.0007498 C6.35441219,29.5958485 9.60401547,30.3955556 13.0024913,30.3955556 C17.2260878,30.3955556 21.0774477,29.3042311 24.5370383,27.1245622 C26.1893211,26.0823534 27.6580712,24.8266039 28.9416113,23.3587931 C30.221147,21.8955617 31.2414938,20.3634522 32.000288,18.7629701 C32.7496555,17.1823713 33.3113204,15.5951948 33.6843327,14.0019898 C34.0590503,12.4015016 34.2342683,10.8404682 34.208715,9.32004471 L34.2088405,8.69721404 L33.3199516,8.69721404 L33.8383577,9.41927958 C35.3531766,8.33171725 36.5471472,7.07902674 37.4130389,5.6621132 C37.5795012,5.33634768 37.6527867,5.11649124 37.6527867,4.87060716 C37.6527867,4.47113616 37.4946297,4.10737504 37.2102176,3.8229631 C36.9258056,3.53855128 36.5620447,3.38039433 36.1625739,3.38039433 C35.9059873,3.38039433 35.6671314,3.46001297 35.3467612,3.61077536 C35.2957149,3.62126503 35.1142211,3.68278839 34.8994118,3.75643731 C34.682828,3.83069459 34.4964594,3.89592361 34.3399581,3.95226412 C34.2169719,3.99653909 34.1342156,4.02412453 34.1247927,4.02648025 L34.3403801,4.8888291 L35.0022196,5.48220247 C35.3655279,5.07697397 35.7286434,4.54911167 36.0980528,3.89604883 C36.5092092,3.16918281 36.7234679,2.61440585 36.7234679,2.13731653 C36.7234679,1.73153692 36.5598405,1.36337547 36.2645817,1.08287932 C35.9772112,0.809877482 35.6120276,0.665325653 35.2150331,0.665325653 C34.9434355,0.665325653 34.6852196,0.746018119 34.4523718,0.891548054 C33.1868145,1.56645156 31.9676844,2.04151162 30.8493823,2.2900232 L31.6545711,2.51343406 C30.0191593,0.959117086 28.0444506,0.173333333 25.7760695,0.173333333 C23.4527569,0.173333333 21.4479354,0.994420635 19.8111158,2.61771275 C18.173031,4.24225971 17.3432985,6.23087492 17.3432985,8.5332166 C17.3432985,8.95435826 17.3723744,9.31053837 17.435253,9.60921192 L18.305075,9.42609154 L18.3784594,8.54023704 C16.420516,8.37804055 14.5334075,7.90915775 12.7136166,7.13255907 C10.8966833,6.35717987 9.26741304,5.31722016 7.82222818,4.01077305 C7.50618272,3.70495969 6.83301373,3.0017385 5.83534983,1.93195434 C5.50401765,1.599858 5.10919204,1.43064702 4.67506585,1.43064702 C4.21197077,1.43064702 3.83977682,1.66885114 3.52963826,2.05056017 C3.1066196,2.67796638 2.81931076,3.34718574 2.61329061,4.12319505 C2.41169411,4.88254184 2.31020002,5.630215 2.31020002,6.36480604 C2.31020002,8.3819979 2.9474891,10.1636663 4.21237754,11.6733719 L4.89372908,11.1025098 L5.28017271,10.3020195 L4.75173653,10.0469123 C4.31501929,9.85415338 3.99183804,9.75807246 3.69108121,9.75807246 C3.27627303,9.75807246 2.8950653,9.89182956 2.58848599,10.1584203 C2.25186199,10.4511368 2.07331483,10.8548086 2.07331483,11.3029511 C2.07331483,12.7351927 2.44267903,14.0963682 3.17542786,15.371894 C3.90585955,16.6433862 4.89871231,17.6634403 6.14441614,18.4216949 L6.60659122,17.6624073 L6.75272379,16.7856127 L6.53406054,16.7491688 C6.46115119,16.7370745 6.50192192,16.7444873 6.53190302,16.7530533 C6.46370024,16.7337876 6.46370024,16.7337876 6.40307298,16.7180594 C6.31299119,16.6956295 6.31299119,16.6956295 6.13282084,16.6824087 C5.72704104,16.6824087 5.35887934,16.8460361 5.07838315,17.1412954 C4.81166458,17.4220519 4.66082996,17.7713532 4.66082996,18.1543996 C4.66082996,18.2601846 4.66173851,18.2651816 4.71453545,18.5291663 C5.20148713,20.0387518 5.9714774,21.2414357 7.04422226,22.2259167 C8.11651449,23.2099825 9.37702913,23.8743078 10.8122547,24.2128043 L10.5506785,22.5904728 C8.57801477,23.8035477 6.40693429,24.4085102 4.01907609,24.4085102 C3.88452973,24.4085102 3.63493818,24.3918708 3.2847105,24.3579778 C2.69522096,24.3288434 2.43203488,24.3174005 2.36087979,24.3174005 C1.95509998,24.3174005 1.58693827,24.4810279 1.30644208,24.7762872 C1.03660782,25.0603234 0.888888889,25.4179587 0.888888889,25.8076133 L0.888888889,25.8076133 Z M2.66666667,25.8076133 C2.66666667,25.8814212 2.63435334,25.9596535 2.59533029,26.0007304 C2.54564523,26.0530305 2.45081256,26.0951783 2.36087979,26.0951783 C2.38690936,26.0951783 2.68253907,26.1080318 3.15680863,26.1306161 C3.51641155,26.1664835 3.81347895,26.186288 4.01907609,26.186288 C6.73336056,26.186288 9.22709605,25.491419 11.4819217,24.1048307 L13.3162594,22.9768183 L11.2203454,22.4824992 C10.0802039,22.213598 9.09334623,21.6934973 8.24626111,20.9161089 C7.39962841,20.1391359 6.79689944,19.1977053 6.43104746,18.0786286 C6.46199508,18.2015409 6.43860773,18.0729105 6.43860773,18.1543996 C6.43860773,18.2458951 6.4031787,18.3279413 6.36727131,18.3657386 C6.31758629,18.4180386 6.22275362,18.4601865 6.13282084,18.4601865 C5.99516834,18.4500027 5.99516834,18.4500027 5.97190017,18.4427576 C5.99327179,18.4482885 5.99327179,18.4482885 6.0435116,18.4624297 C6.15852837,18.4952915 6.26611291,18.5148523 6.38792796,18.5148523 L6.46045865,18.5392019 L10.9994303,19.2956979 L7.06876629,16.9031197 C6.07924577,16.3008028 5.29849662,15.4986633 4.71694882,14.4863394 C4.13771816,13.4780489 3.8510926,12.4217807 3.8510926,11.3029511 C3.8510926,11.3623589 3.81224696,11.4501838 3.75502592,11.4999412 C3.72784971,11.5235727 3.69285879,11.5358502 3.69108121,11.5358502 C3.68187536,11.5358502 3.80816855,11.5733969 4.00730305,11.661016 L4.50728546,11.9030001 L8.22964868,13.7000031 L5.57508062,10.5316477 C4.58044883,9.34450652 4.0879778,7.96770576 4.0879778,6.36480604 C4.0879778,5.78741757 4.16870308,5.19274132 4.33154533,4.57936885 C4.48996389,3.98265889 4.70072136,3.49174821 4.95911766,3.10415376 C4.91510487,3.16458802 4.84660991,3.2084248 4.67506585,3.2084248 C4.6296743,3.2084248 4.57499153,3.18498932 4.55674073,3.16673853 C5.55410821,4.2369971 6.2415101,4.95508658 6.60871974,5.30963382 C8.2218507,6.76855011 10.0183047,7.91522289 12.0158303,8.76767013 C14.0104983,9.61889786 16.0836242,10.1339997 18.2316906,10.311946 L19.4206804,10.4104422 L19.1748971,9.24297116 C19.1405921,9.08002261 19.1210763,8.84095297 19.1210763,8.5332166 C19.1210763,6.70525244 19.7612467,5.17095974 21.0629677,3.87999669 C22.3659541,2.5877788 23.9204844,1.95111111 25.7760695,1.95111111 C27.5894023,1.95111111 29.1254537,2.56234263 30.4298477,3.80205601 L30.7729567,4.12815127 L31.2350365,4.02546686 C32.5220303,3.73946824 33.8904156,3.20624769 35.3428529,2.42906629 C35.3561119,2.42315075 35.2922634,2.44310343 35.2150331,2.44310343 C35.1581814,2.44310343 35.0845488,2.41395716 35.0401381,2.37176704 C34.9878379,2.32208178 34.9456901,2.22724945 34.9456901,2.13731653 C34.9456901,2.21903318 34.819806,2.54498305 34.5506767,3.02076537 C34.2398001,3.57035061 33.9469259,3.99610289 33.6785406,4.29545574 L31.7428931,6.45444706 L34.5559675,5.75117795 C34.6437281,5.72923778 34.7614128,5.69000956 34.9421259,5.62495289 C35.0893237,5.57196165 35.2673938,5.50963711 35.4759885,5.43811896 C35.6863528,5.36599403 35.8632253,5.30603724 36.0063387,5.25833273 C36.1963941,5.17573708 36.249089,5.15817211 36.1625739,5.15817211 C36.0789498,5.15817211 35.9945919,5.12149475 35.9531392,5.08004214 C35.9116863,5.03858926 35.8750089,4.95423114 35.8750089,4.87060716 C35.8750089,4.77049846 35.8754067,4.76930514 35.8595196,4.80107931 C35.1584545,5.94213644 34.1293488,7.02185391 32.8015456,7.97514851 L32.4310628,8.2411362 L32.4310628,8.69721404 L32.4310628,9.33498185 C32.4542267,10.7207103 32.2953759,12.1359268 31.953364,13.5967233 C31.6096467,15.0648036 31.0901433,16.5328385 30.3939037,18.0013776 C29.7070913,19.4500325 28.7776907,20.845581 27.6033384,22.1885285 C26.4329909,23.5268962 25.0955623,24.6703686 23.5889822,25.6206729 C20.4161818,27.6196533 16.8937309,28.6177778 13.0024913,28.6177778 C9.88966162,28.6177778 6.91951022,27.8868421 4.08070674,26.4209027 C3.33264012,26.0351806 2.81711083,25.7455574 2.55093783,25.5645598 C2.62206366,25.6180379 2.66666667,25.6983234 2.66666667,25.8076133 L2.66666667,25.8076133 Z" id="Shape"></path>
                    </g>
                </g>
            </g>
        </g>
    </g>
</svg>