<?xml version="1.0" encoding="UTF-8" standalone="no"?>
<svg width="40px" height="32px" viewBox="0 0 40 32" version="1.1" xmlns="http://www.w3.org/2000/svg" xmlns:xlink="http://www.w3.org/1999/xlink">
    <!-- Generator: Sketch 3.8.3 (29802) - http://www.bohemiancoding.com/sketch -->
    <title>dark gray/icon-ui-twitter-dark-gray</title>
    <desc>Created with Sketch.</desc>
    <defs></defs>
    <g id="gray" stroke="none" stroke-width="1" fill="none" fill-rule="evenodd">
        <g id="icons,-utility-(gray)" transform="translate(-546.000000, -1183.000000)" fill="#242F36">
            <g id="dark-gray/icon-ui-twitter-dark-gray" transform="translate(546.200000, 1183.000000)">
                <g id="icon-twitter">
                    <g id="Page-1">
                        <g id="Press-2016_04_29-kg-v1">
                            <g id="body">
                                <g id="Column">
                                    <path d="M0,27.838566 C0,28.043562 0.1024984,28.228058 0.3074952,28.392056 C0.64915652,28.624386 1.25731368,28.966048 2.13196668,29.41704 C5.46658126,31.139014 8.96519326,32 12.6278027,32 C17.192398,32 21.3401666,30.824686 25.0711082,28.474056 C26.8477472,27.353406 28.4262226,26.003844 29.8065342,24.425368 C31.186846,22.846894 32.283579,21.200086 33.0967328,19.484946 C33.9098868,17.769806 34.518044,16.05125 34.9212044,14.329276 C35.3243648,12.607304 35.5122784,10.933162 35.4849456,9.306854 L35.4849456,8.589366 C37.0839206,7.441384 38.334401,6.129404 39.236387,4.653428 C39.3183856,4.48943 39.359385,4.366432 39.359385,4.284434 C39.359385,4.10677 39.2910528,3.949604 39.1543882,3.81294 C39.0177236,3.676276 38.8605594,3.607944 38.6828956,3.607944 C38.5872304,3.607944 38.423233,3.66261 38.1909032,3.771942 C38.0269058,3.826606 37.8253256,3.89494 37.5861628,3.976938 C37.3469998,4.058936 37.142003,4.130686 36.9711724,4.192184 C36.8003416,4.253684 36.6875934,4.291266 36.6329276,4.304932 C36.9882554,3.908606 37.3572496,3.372198 37.7399104,2.695708 C38.122571,2.019218 38.3139014,1.52381 38.3139014,1.209482 C38.3139014,1.031818 38.245569,0.87807 38.1089046,0.748238 C37.97224,0.618408 37.8082426,0.553492 37.6169122,0.553492 C37.5075806,0.553492 37.398249,0.587658 37.2889174,0.65599 C35.7309418,1.489644 34.2754644,2.056802 32.9224856,2.357464 C31.2688448,0.785822 29.2940422,0 26.9980782,0 C24.6474482,0 22.6453128,0.819988 20.991672,2.459962 C19.3380312,4.099936 18.5112108,6.081572 18.5112108,8.404868 C18.5112108,8.814862 18.5385436,9.14969 18.5932094,9.409352 C16.2835789,9.218022 14.055947,8.664532 11.9103139,7.748878 C9.76468076,6.833226 7.83771086,5.603246 6.12940422,4.058936 C5.73307708,3.676276 4.96775572,2.876788 3.8334401,1.660474 C3.66944266,1.496476 3.47811232,1.414478 3.25944908,1.414478 C3.09545164,1.414478 2.92462096,1.52381 2.74695708,1.742472 C2.3916293,2.275464 2.111467,2.928038 1.90647022,3.700192 C1.70147342,4.472346 1.59897502,5.227418 1.59897502,5.965406 C1.59897502,8.001708 2.23446508,9.778348 3.50544522,11.295324 L2.91095452,11.008328 C2.56929318,10.857998 2.3164638,10.782832 2.15246636,10.782832 C1.92013666,10.782832 1.7253897,10.851164 1.5682255,10.987828 C1.41106128,11.124492 1.33247918,11.302156 1.33247918,11.52082 C1.33247918,12.955798 1.70147342,14.31561 2.43946188,15.600256 C3.17745036,16.884902 4.17510144,17.909886 5.43241512,18.675208 L5.18641896,18.634208 C5.15908606,18.634208 5.1215033,18.627376 5.07367072,18.61371 C5.02583814,18.600042 4.9882554,18.589792 4.96092248,18.58296 C4.93358958,18.576126 4.9130899,18.57271 4.89942344,18.57271 C4.72175956,18.57271 4.56801196,18.641042 4.43818066,18.777706 C4.30834934,18.914372 4.2434337,19.064702 4.2434337,19.2287 C4.2434337,19.242366 4.25710014,19.317532 4.28443306,19.454196 C4.74909246,20.875508 5.52124706,22.081572 6.60089686,23.07239 C7.68054666,24.063208 8.94469358,24.729446 10.3933376,25.071108 C8.01537476,26.533418 5.39141576,27.264574 2.5214606,27.264574 C2.33013026,27.264574 2.02263506,27.244074 1.59897502,27.203074 C1.02498398,27.175742 0.71065556,27.162076 0.65598976,27.162076 C0.47832586,27.162076 0.32457826,27.230408 0.19474696,27.367072 C0.06491566,27.503736 0,27.660902 0,27.838566 L0,27.838566 L0,27.838566 Z" id="icon-twitter"></path>
                                </g>
                            </g>
                        </g>
                    </g>
                </g>
            </g>
        </g>
    </g>
</svg>