<?xml version="1.0" encoding="UTF-8" standalone="no"?>
<svg width="58px" height="64px" viewBox="0 0 58 64" version="1.1" xmlns="http://www.w3.org/2000/svg" xmlns:xlink="http://www.w3.org/1999/xlink">
    <!-- Generator: Sketch 3.8.3 (29802) - http://www.bohemiancoding.com/sketch -->
    <title>dark gray/icon-large-resource-database-dark-gray</title>
    <desc>Created with Sketch.</desc>
    <defs>
        <rect id="path-1" x="0" y="0" width="57.5189873" height="19.2263762" rx="3"></rect>
        <rect id="path-3" x="0" y="0" width="57.5189873" height="19.2263762" rx="3"></rect>
        <rect id="path-5" x="0" y="0" width="57.5189873" height="19.2263762" rx="3"></rect>
    </defs>
    <g id="gray" stroke="none" stroke-width="1" fill="none" fill-rule="evenodd">
        <g id="icons,-large-detailed-(gray)" transform="translate(-456.000000, -918.000000)">
            <g id="dark-gray/icon-large-resource-database-dark-gray" transform="translate(456.000000, 918.000000)">
                <g id="Rectangle-2-Clipped" transform="translate(0.126104, 0.000000)">
                    <mask id="mask-2" fill="white">
                        <use xlink:href="#path-1"></use>
                    </mask>
                    <g id="path-1"></g>
                    <g id="Rectangle-2" mask="url(#mask-2)" fill="#242F36">
                        <g transform="translate(-2.025316, -2.025316)" id="path-1">
                            <path d="M4.05063291,5.26506801 C4.05063291,4.59459203 4.59422359,4.05063291 5.26178419,4.05063291 L56.3078361,4.05063291 C56.9751732,4.05063291 57.5189873,4.59528873 57.5189873,5.26506801 L57.5189873,18.0119411 C57.5189873,18.6824171 56.9753967,19.2263762 56.3078361,19.2263762 L5.26178419,19.2263762 C4.59444703,19.2263762 4.05063291,18.6817204 4.05063291,18.0119411 L4.05063291,5.26506801 L4.05063291,5.26506801 Z M0,5.26506801 L0,18.0119411 C0,20.917422 2.35594066,23.2770091 5.26178419,23.2770091 L56.3078361,23.2770091 C59.2131141,23.2770091 61.5696203,20.9189057 61.5696203,18.0119411 L61.5696203,5.26506801 C61.5696203,2.35958714 59.2136796,0 56.3078361,0 L5.26178419,0 C2.35650618,0 0,2.3581034 0,5.26506801 L0,5.26506801 Z"></path>
                        </g>
                    </g>
                </g>
                <ellipse id="Oval-6" fill="#242F36" cx="8.97517886" cy="9.61318809" rx="2.5809802" ry="2.58816603"></ellipse>
                <g id="Rectangle-2-Clipped" transform="translate(0.126104, 22.184280)">
                    <mask id="mask-4" fill="white">
                        <use xlink:href="#path-3"></use>
                    </mask>
                    <g id="path-3"></g>
                    <g id="Rectangle-2" mask="url(#mask-4)">
                        <g transform="translate(-2.025316, -2.025316)"></g>
                    </g>
                    <path d="M2.02531646,3.23975155 C2.02531646,2.56927557 2.56890713,2.02531646 3.23646774,2.02531646 L54.2825196,2.02531646 C54.9498568,2.02531646 55.4936709,2.56997228 55.4936709,3.23975155 L55.4936709,15.9866247 C55.4936709,16.6571007 54.9500802,17.2010598 54.2825196,17.2010598 L3.23646774,17.2010598 C2.56913057,17.2010598 2.02531646,16.6564039 2.02531646,15.9866247 L2.02531646,3.23975155 L2.02531646,3.23975155 Z M-2.02531646,3.23975155 L-2.02531646,15.9866247 C-2.02531646,18.8921055 0.330624204,21.2516927 3.23646774,21.2516927 L54.2825196,21.2516927 C57.1877976,21.2516927 59.5443038,18.8935893 59.5443038,15.9866247 L59.5443038,3.23975155 C59.5443038,0.33427068 57.1883631,-2.02531646 54.2825196,-2.02531646 L3.23646774,-2.02531646 C0.331189726,-2.02531646 -2.02531646,0.332786948 -2.02531646,3.23975155 L-2.02531646,3.23975155 Z" id="path-3" fill="#242F36" mask="url(#mask-4)"></path>
                </g>
                <ellipse id="Oval-6" fill="#242F36" cx="8.97517886" cy="31.3924051" rx="2.5809802" ry="2.58816603"></ellipse>
                <g id="Rectangle-2-Clipped" transform="translate(0.126104, 44.368561)">
                    <mask id="mask-6" fill="white">
                        <use xlink:href="#path-5"></use>
                    </mask>
                    <g id="path-5"></g>
                    <g id="Rectangle-2" mask="url(#mask-6)" fill="#242F36">
                        <g transform="translate(-2.025316, -2.025316)" id="path-5">
                            <path d="M4.05063291,5.26506801 C4.05063291,4.59459203 4.59422359,4.05063291 5.26178419,4.05063291 L56.3078361,4.05063291 C56.9751732,4.05063291 57.5189873,4.59528873 57.5189873,5.26506801 L57.5189873,18.0119411 C57.5189873,18.6824171 56.9753967,19.2263762 56.3078361,19.2263762 L5.26178419,19.2263762 C4.59444703,19.2263762 4.05063291,18.6817204 4.05063291,18.0119411 L4.05063291,5.26506801 L4.05063291,5.26506801 Z M0,18.0119411 C0,20.917422 2.35594066,23.2770091 5.26178419,23.2770091 L56.3078361,23.2770091 C59.2131141,23.2770091 61.5696203,20.9189057 61.5696203,18.0119411 L61.5696203,5.26506801 C61.5696203,2.35958714 59.2136796,0 56.3078361,0 L5.26178419,0 C2.35650618,0 0,2.3581034 0,5.26506801 L0,18.0119411 Z"></path>
                        </g>
                    </g>
                </g>
                <ellipse id="Oval-6" fill="#242F36" cx="8.97517886" cy="53.9817487" rx="2.5809802" ry="2.58816603"></ellipse>
                <polygon id="Line" fill="#242F36" points="6.67203063 19.0415074 6.67203063 23.1086254 8.69734709 23.1086254 8.69734709 19.0415074"></polygon>
                <polygon id="Line" fill="#242F36" points="48.3364253 19.0415074 48.3364253 23.1086254 50.3617418 23.1086254 50.3617418 19.0415074"></polygon>
                <polygon id="Line" fill="#242F36" points="48.3364253 41.2257876 48.3364253 45.2929057 50.3617418 45.2929057 50.3617418 41.2257876"></polygon>
                <polygon id="Line" fill="#242F36" points="6.67203063 41.2257876 6.67203063 45.2929057 8.69734709 45.2929057 8.69734709 41.2257876"></polygon>
                <polygon id="Line" fill="#242F36" points="15.5949367 13.3670886 32.612416 13.3670886 32.612416 12.556962 15.5949367 12.556962"></polygon>
                <polygon id="Line" fill="#242F36" points="15.5949367 35.6455696 32.612416 35.6455696 32.612416 34.835443 15.5949367 34.835443"></polygon>
                <polygon id="Line" fill="#242F36" points="15.5949367 57.5189873 32.612416 57.5189873 32.612416 56.7088608 15.5949367 56.7088608"></polygon>
                <polygon id="Line" fill="#242F36" points="35.8481013 57.5189873 43.1392405 57.5189873 43.1392405 56.7088608 35.8481013 56.7088608"></polygon>
                <polygon id="Line" fill="#242F36" points="35.8481013 35.6455696 43.1392405 35.6455696 43.1392405 34.835443 35.8481013 34.835443"></polygon>
                <polygon id="Line" fill="#242F36" points="35.8481013 13.3670886 43.1392405 13.3670886 43.1392405 12.556962 35.8481013 12.556962"></polygon>
            </g>
        </g>
    </g>
</svg>