<?xml version="1.0" encoding="UTF-8" standalone="no"?>
<svg width="372px" height="80px" viewBox="0 0 372 80" version="1.1" xmlns="http://www.w3.org/2000/svg" xmlns:xlink="http://www.w3.org/1999/xlink">
    <!-- Generator: Sketch 3.8.3 (29802) - http://www.bohemiancoding.com/sketch -->
    <title>dark gray/logo-Stratum-dark-gray</title>
    <desc>Created with Sketch.</desc>
    <defs></defs>
    <g id="gray" stroke="none" stroke-width="1" fill="none" fill-rule="evenodd">
        <g id="icons,-branding-&amp;-other-(gray)" transform="translate(-70.000000, -393.000000)" fill="#242F36">
            <path d="M207.052139,419.424633 L203.479243,422.266796 C202.215356,418.914485 200.428926,416.48531 198.1199,414.979199 C195.810875,413.473089 192.736271,412.720045 188.895997,412.720045 C184.764056,412.720045 181.507163,413.618839 179.125221,415.416455 C176.743279,417.214071 175.552326,419.497495 175.552326,422.266796 C175.552326,424.015827 176.001971,425.485478 176.901276,426.675791 C177.800581,427.866104 179.319654,428.874212 181.458541,429.700144 C183.597428,430.526075 186.562658,431.279119 190.354321,431.959298 C196.625149,432.979567 201.072995,434.522093 203.697992,436.586922 C206.32299,438.651751 207.635469,441.506031 207.635469,445.149847 C207.635469,447.773395 206.882009,450.093257 205.375066,452.109502 C203.868122,454.125746 201.74142,455.680418 198.994895,456.773563 C196.24837,457.866708 193.076545,458.413272 189.479326,458.413272 C184.472387,458.413272 180.231135,457.417311 176.755444,455.425358 C173.279752,453.433405 170.861388,450.664146 169.500278,447.117498 L173.073174,444.275336 C174.142617,447.579062 176.099183,450.11755 178.942931,451.890874 C181.786678,453.664198 185.32308,454.550846 189.552243,454.550846 C193.684183,454.550846 197.013991,453.737073 199.541767,452.109502 C202.069542,450.48193 203.333411,448.234944 203.333411,445.368475 C203.333411,442.89068 202.276136,440.923049 200.161555,439.465522 C198.046973,438.007996 194.36474,436.841992 189.114745,435.967476 C184.642527,435.190129 181.106125,434.242751 178.505433,433.125314 C175.904741,432.007877 174.033243,430.611101 172.890883,428.934946 C171.748523,427.25879 171.177352,425.181846 171.177352,422.704051 C171.177352,420.177672 171.894354,417.869956 173.32838,415.780835 C174.762407,413.691714 176.816194,412.015583 179.489802,410.752394 C182.163411,409.489204 185.274472,408.857619 188.82308,408.857619 C197.767516,408.857619 203.843809,412.379922 207.052139,419.424633 L207.052139,419.424633 Z M238.843617,455.352482 C236.656119,457.393019 233.812414,458.413272 230.312418,458.413272 C227.347143,458.413272 225.001694,457.599499 223.276001,455.971927 C221.550308,454.344356 220.687475,451.878744 220.687475,448.575017 L220.687475,424.817454 L213.395851,424.817454 L213.395851,421.246532 L220.687475,421.246532 L220.687475,412.209913 L224.8437,411.116774 L224.8437,421.246532 L238.551952,421.246532 L238.551952,424.817454 L224.8437,424.817454 L224.8437,447.919134 C224.8437,450.105424 225.378414,451.757262 226.447857,452.874699 C227.517301,453.992136 229.048526,454.550846 231.04158,454.550846 C233.520744,454.550846 235.610989,453.652052 237.312376,451.854436 L238.843617,455.352482 Z M266.624702,421.610912 L265.603875,425.546214 C264.388598,424.768866 262.857373,424.380198 261.010152,424.380198 C259.260154,424.380198 257.583097,424.926763 255.978932,426.019908 C254.374767,427.113052 253.07444,428.655578 252.077914,430.647531 C251.081387,432.639484 250.583131,434.898616 250.583131,437.424995 L250.583131,457.684513 L246.426905,457.684513 L246.426905,421.246532 L249.926885,421.246532 L250.437298,428.3155 C251.40952,425.837705 252.892135,423.918657 254.885189,422.558299 C256.878242,421.197941 259.308759,420.517772 262.176812,420.517772 C264.024033,420.517772 265.506648,420.882149 266.624702,421.610912 L266.624702,421.610912 Z M305.853636,454.405094 L305.634888,457.684513 C304.662666,458.170355 303.398798,458.413272 301.843244,458.413272 C300.093245,458.413272 298.683545,457.963875 297.614102,457.065067 C296.544659,456.166259 295.912724,454.623733 295.71828,452.437443 C294.600225,454.283644 292.850253,455.741148 290.468311,456.810001 C288.086369,457.878854 285.558631,458.413272 282.885023,458.413272 C279.287804,458.413272 276.383336,457.599499 274.171533,455.971927 C271.959729,454.344356 270.853844,452.048786 270.853844,449.085149 C270.853844,446.267265 272.008339,443.910965 274.317365,442.016181 C276.626391,440.121396 280.114182,438.785351 284.780845,438.008003 L295.645364,436.113228 L295.645364,433.19819 C295.645364,430.380305 294.806835,428.169756 293.129754,426.566477 C291.452672,424.963198 289.082918,424.161571 286.020421,424.161571 C280.430148,424.161571 276.638542,426.66362 274.645488,431.667794 L271.51009,429.40864 C272.530922,426.590755 274.317352,424.404498 276.869433,422.849803 C279.421514,421.295108 282.471813,420.517772 286.020421,420.517772 C290.249583,420.517772 293.603697,421.550172 296.082861,423.615001 C298.562025,425.67983 299.801589,428.704152 299.801589,432.688058 L299.801589,451.271428 C299.801589,453.652055 300.871016,454.84235 303.009903,454.84235 C304.127958,454.84235 305.075859,454.6966 305.853636,454.405094 L305.853636,454.405094 Z M289.119361,453.712773 C291.039498,453.008301 292.607181,451.988048 293.822458,450.651982 C295.037734,449.315916 295.645364,447.724807 295.645364,445.878607 L295.645364,439.538398 L286.093337,441.287421 C282.301674,441.9676 279.530885,442.93927 277.780886,444.20246 C276.030888,445.465649 275.155902,447.093196 275.155902,449.085149 C275.155902,450.882765 275.860752,452.27954 277.270473,453.275517 C278.680194,454.271493 280.648912,454.769474 283.176688,454.769474 C285.218352,454.769474 287.199224,454.417244 289.119361,453.712773 L289.119361,453.712773 Z M332.905559,455.352482 C330.718061,457.393019 327.874357,458.413272 324.37436,458.413272 C321.409085,458.413272 319.063636,457.599499 317.337943,455.971927 C315.612251,454.344356 314.749417,451.878744 314.749417,448.575017 L314.749417,424.817454 L307.457794,424.817454 L307.457794,421.246532 L314.749417,421.246532 L314.749417,412.209913 L318.905642,411.116774 L318.905642,421.246532 L332.613895,421.246532 L332.613895,424.817454 L318.905642,424.817454 L318.905642,447.919134 C318.905642,450.105424 319.440356,451.757262 320.5098,452.874699 C321.579243,453.992136 323.110469,454.550846 325.103522,454.550846 C327.582687,454.550846 329.672931,453.652052 331.374319,451.854436 L332.905559,455.352482 Z M371.04075,421.246532 L371.04075,457.684513 L367.394938,457.684513 L367.103273,450.907048 C365.936608,453.336259 364.150178,455.194577 361.74393,456.482059 C359.337682,457.769541 356.530435,458.413272 353.322105,458.413272 C349.335998,458.413272 346.139868,457.307998 343.73362,455.097416 C341.327372,452.886834 340.124267,449.595303 340.124267,445.222723 L340.124267,421.246532 L344.280492,421.246532 L344.280492,444.20246 C344.280492,447.89486 345.11902,450.579098 346.796102,452.255253 C348.473184,453.931409 350.891548,454.769474 354.051267,454.769474 C357.891542,454.769474 360.990451,453.567033 363.348087,451.162114 C365.705724,448.757195 366.884525,445.659998 366.884525,441.870429 L366.884525,421.246532 L371.04075,421.246532 Z M143.53589,420.474781 C144.277543,422.463542 144.849708,424.534806 145.234831,426.67103 L118.776519,441.337112 L92.5570715,428.549033 L143.535884,420.474782 Z M85.0787055,460.016115 C77.7696409,453.376686 73.1809096,443.798728 73.1809096,433.149606 C73.1809096,430.070361 73.5645756,427.080677 74.2867366,424.2257 L114.373907,443.777519 L85.0787055,460.016115 Z M88.5530031,462.804791 C94.4711952,466.987388 101.696591,469.444932 109.496294,469.444932 C129.552726,469.444932 145.811678,453.194961 145.811678,433.149606 C145.811678,432.460896 145.792485,431.776666 145.754605,431.097422 L88.553003,462.804788 Z M437.394523,423.979381 C440.019521,426.335715 441.332,429.700122 441.332,434.072701 L441.332,457.611637 L437.175775,457.611637 L437.175775,434.509957 C437.175775,431.109062 436.264331,428.521991 434.441416,426.748667 C432.618501,424.975343 430.175831,424.088695 427.113334,424.088695 C424.877225,424.088695 422.823439,424.635259 420.951912,425.728404 C419.080386,426.821549 417.585619,428.339783 416.467564,430.283151 C415.34951,432.22652 414.790491,434.46136 414.790491,436.98774 L414.790491,457.684513 L410.634265,457.684513 L410.634265,434.582833 C410.634265,431.181938 409.722822,428.594867 407.899907,426.821543 C406.076992,425.048219 403.658627,424.161571 400.644741,424.161571 C398.505854,424.161571 396.500678,424.683843 394.629152,425.728404 C392.757626,426.772964 391.238553,428.291198 390.071887,430.283151 C388.905222,432.275104 388.321898,434.631403 388.321898,437.352119 L388.321898,457.684513 L384.165672,457.684513 L384.165672,421.246532 L387.8844,421.246532 L388.103149,428.096872 C389.318426,425.667662 391.08055,423.797197 393.389576,422.485423 C395.698602,421.17365 398.238492,420.517772 401.009322,420.517772 C404.023208,420.517772 406.684624,421.210087 408.99365,422.594737 C411.302676,423.979388 412.943275,426.007748 413.915496,428.67988 C414.936328,426.104917 416.722758,424.088702 419.274839,422.631175 C421.82692,421.173649 424.561252,420.444897 427.477915,420.444897 C431.464023,420.444897 434.769526,421.623046 437.394523,423.979381 Z M109.496294,472.624084 C131.309494,472.624084 148.992587,454.950758 148.992587,433.149606 C148.992587,411.348453 131.309494,393.675127 109.496294,393.675127 C87.683093,393.675127 70,411.348453 70,433.149606 C70,454.950758 87.683093,472.624084 109.496294,472.624084 Z" id="dark-gray/logo-Stratum-dark-gray"></path>
        </g>
    </g>
</svg>