<svg width="32" height="32" viewBox="0 0 32 32" xmlns="http://www.w3.org/2000/svg"><title>blue/icon-ui-open-source-blue</title><path d="M22.154 31.66a16.875 16.875 0 0 0 9.505-9.506h-3.597a13.598 13.598 0 0 1-5.908 5.908v3.597zm-12.308 0a16.875 16.875 0 0 1-9.505-9.506h3.597a13.598 13.598 0 0 0 5.908 5.908v3.597zM31.66 9.845A16.875 16.875 0 0 0 22.154.341v3.597a13.598 13.598 0 0 1 5.908 5.908h3.597zm-31.318 0A16.875 16.875 0 0 1 9.846.341v3.597a13.598 13.598 0 0 0-5.908 5.908H.34zM16 24.616a8.615 8.615 0 1 0 0-17.231 8.615 8.615 0 0 0 0 17.23z" fill="#1055FF" fill-rule="evenodd"/></svg>