<svg width="50" height="64" viewBox="0 0 50 64" xmlns="http://www.w3.org/2000/svg"><title>white/icon-large-apple-alt-white</title><g fill="#FFF" fill-rule="evenodd"><path d="M26.127 23.62c-.005-.158-.02-.437-.05-.82a30.97 30.97 0 0 0-.241-2.073c-.32-2.144-.847-4.29-1.633-6.307-.83-2.127-1.903-3.99-3.26-5.507l-1.988 1.778c1.126 1.258 2.042 2.848 2.763 4.697.707 1.814 1.187 3.772 1.48 5.733.103.687.175 1.324.22 1.894.028.335.04.569.043.684l2.666-.078z"/><path d="M24.812 22.692a15.014 15.014 0 0 0-.766-.298 26.14 26.14 0 0 0-1.964-.623c-2.827-.78-5.719-1.123-8.462-.774-2.76.35-5.172 1.391-7.092 3.243-2.742 2.644-4.509 5.453-5.478 8.26a15.068 15.068 0 0 0-.698 2.867 9.052 9.052 0 0 0-.096 1.44c.024.228.055.446.103.746.079.493.178 1.041.3 1.63.35 1.686.81 3.373 1.401 4.959.495 1.329 1.062 2.53 1.71 3.574 2.613 4.206 5.155 9.003 5.155 9.562 0 2.164 3.845 5.923 7.25 6.45.907.14 1.91.1 2.995-.089 1.104-.192 2.261-.53 3.436-.974.647-.245 1.26-.506 1.821-.769.34-.159.592-.284.736-.36l-1.386-.085c.48.334 1.293.81 2.359 1.28 1.79.791 3.662 1.269 5.543 1.269 2.07 0 4.084-1.055 6.019-2.775a19.233 19.233 0 0 0 2.452-2.647l.166-.226.06-.274c.058-.26.186-.745.389-1.376a19.84 19.84 0 0 1 1.269-3.084c.483-.928 1.019-1.732 1.6-2.376 1.046-1.157 2.082-3.069 3.136-5.57a66.015 66.015 0 0 0 1.617-4.279 72.024 72.024 0 0 0 .635-1.951l.047-.225c.014-.116.033-.314.051-.587.16-2.361-.02-5.053-.815-7.646-.707-2.304-1.844-4.264-3.493-5.749a17.677 17.677 0 0 0-3.507-2.443c-1.924-1.03-3.974-1.719-6.022-2.137-1.233-.252-2.204-.358-2.787-.38l-.211-.009-.204.058-8.16 2.31.891.058zm-1.056 2.449l.435.187.456-.129 8.16-2.31-.414.05a9.9 9.9 0 0 1 .614.052c.523.058 1.11.148 1.743.277 1.81.37 3.62.978 5.297 1.875a15.02 15.02 0 0 1 2.98 2.074c1.258 1.132 2.154 2.677 2.728 4.549.684 2.231.844 4.62.704 6.684-.015.225-.03.377-.038.448l.047-.225c-.026.089-.08.26-.157.504-.13.408-.28.864-.448 1.355a63.42 63.42 0 0 1-1.55 4.105c-.945 2.242-1.867 3.943-2.658 4.818-.746.826-1.405 1.815-1.986 2.93a22.456 22.456 0 0 0-1.443 3.502c-.23.716-.379 1.279-.453 1.616l.226-.5a16.597 16.597 0 0 1-2.073 2.23c-1.493 1.326-2.97 2.1-4.247 2.1-1.465 0-2.988-.388-4.465-1.04a14.253 14.253 0 0 1-1.424-.726 8.156 8.156 0 0 1-.489-.304l-.667-.465-.719.38c-.106.057-.318.163-.616.302a23.58 23.58 0 0 1-1.636.69c-1.028.389-2.03.682-2.95.842-.82.142-1.542.172-2.13.08-2.192-.339-4.991-3.075-4.991-3.814 0-1.335-2.488-6.03-5.556-10.969-.547-.88-1.04-1.925-1.477-3.098-.539-1.446-.965-3.006-1.288-4.568a33.737 33.737 0 0 1-.279-1.51c-.042-.269-.069-.456-.08-.55l.009.11c-.016-.695.142-1.851.65-3.322.833-2.415 2.373-4.863 4.808-7.212 1.477-1.424 3.356-2.235 5.577-2.517 2.343-.298 4.902.006 7.418.7.646.178 1.239.369 1.762.559.307.112.519.196.62.24z"/><path d="M26.32 24.064c.077-.242.234-.686.465-1.264.387-.964.837-1.928 1.343-2.82.448-.792.919-1.487 1.403-2.055.508-.598 1.017-1.039 1.509-1.305a8.12 8.12 0 0 1 .474-.235c.014-.006 3.472-1.405 4.656-2.014 4.907-2.526 7.498-6.42 7.04-12.875L43.125.303 41.93.258l-.092-.003a19.517 19.517 0 0 0-2.642.152c-1.646.198-3.28.572-4.82 1.17-4.648 1.807-7.608 5.298-7.854 10.731l.003.16a38.29 38.29 0 0 0 .301 2.684c.154 1.028.329 1.834.554 2.401l2.478-.985c-.128-.324-.27-.974-.395-1.81a35.705 35.705 0 0 1-.28-2.49l.003.16c.194-4.283 2.425-6.915 6.156-8.365 1.314-.51 2.734-.836 4.172-1.008a16.921 16.921 0 0 1 2.27-.134l.045.001-1.28-1.238c.377 5.304-1.58 8.247-5.6 10.316-1.053.542-4.433 1.91-4.55 1.963-.23.106-.438.209-.63.312-.81.44-1.562 1.09-2.27 1.922-.602.708-1.165 1.54-1.691 2.468a26.135 26.135 0 0 0-1.498 3.143 22.402 22.402 0 0 0-.531 1.448l2.54.808zM31.23 27.778c.084-.02.275-.058.552-.097 1.475-.21 3.093-.149 4.575.363 1.656.573 2.954 1.654 3.819 3.394l2.388-1.186c-1.188-2.391-3.04-3.935-5.336-4.728-1.942-.671-3.963-.748-5.822-.483-.366.052-.64.106-.806.146l.63 2.591zM11.381 52.248c.088.219.249.595.473 1.076.374.8.79 1.601 1.241 2.352 1.368 2.28 2.745 3.657 4.238 3.657 1.323 0 2.687-.545 4.037-1.445.461-.308.888-.636 1.272-.965.233-.2.401-.357.496-.452l-.943-.942a11.983 11.983 0 0 1-1.565 1.25C19.48 57.546 18.344 58 17.333 58c-.84 0-1.963-1.123-3.095-3.01a24.56 24.56 0 0 1-1.176-2.23c-.213-.457-.364-.81-.443-1.008l-1.238.496z"/></g></svg>