<svg width="64" height="64" viewBox="0 0 64 64" xmlns="http://www.w3.org/2000/svg" xmlns:xlink="http://www.w3.org/1999/xlink"><title>dark gray/icon-large-gears-circle-dark-gray</title><defs><ellipse id="a" cx="32" cy="32" rx="32" ry="32"/><ellipse id="c" cx="32" cy="32" rx="32" ry="32"/></defs><g fill="none" fill-rule="evenodd"><ellipse fill="#FFF" cx="32" cy="32" rx="32" ry="32"/><ellipse cx="32" cy="32" rx="32" ry="32"/><mask id="b" fill="#fff"><use xlink:href="#a"/></mask><path d="M33.357-2.639a25.947 25.947 0 0 1 5.177 5.15l3.68-1.252 2.306 3.995-2.904 2.54a25.62 25.62 0 0 1 1.924 7.093l3.915.745v4.611l-3.89.74a25.62 25.62 0 0 1-1.885 7.152l2.84 2.486-2.308 3.994-3.556-1.212a25.943 25.943 0 0 1-5.244 5.272l1.204 3.537-3.995 2.307-2.448-2.8a25.62 25.62 0 0 1-7.206 1.935l-.723 3.801h-4.612l-.723-3.801a25.618 25.618 0 0 1-7.205-1.935l-2.45 2.799L1.26 42.21l1.205-3.536a25.943 25.943 0 0 1-5.242-5.271l-3.558 1.212-2.306-3.995 2.84-2.487a25.622 25.622 0 0 1-1.893-7.223l-3.505-.666v-4.613l3.53-.671A25.62 25.62 0 0 1-5.74 7.795l-2.903-2.54 2.306-3.997 3.68 1.253a25.942 25.942 0 0 1 5.175-5.15L1.26-6.337l3.997-2.306L7.834-5.7a25.62 25.62 0 0 1 7.11-1.882l.688-3.619h4.612l.688 3.618c2.497.29 4.885.934 7.112 1.884l2.58-2.946 3.993 2.306-1.26 3.7zM18.384 39.328c-11.548 0-20.944-9.396-20.944-20.944C-2.56 6.836 6.836-2.56 18.384-2.56c11.548 0 20.944 9.396 20.944 20.944-.001 11.548-9.397 20.944-20.944 20.944zm38.323-4.234l-1.476-3.67c-5.856.289-3.852.273-5.856.289l-.994 3.86a18.675 18.675 0 0 0-4.327 1.865l-3.489-1.864c-4.301 3.987-2.776 2.686-4.301 3.987l1.722 3.601a18.784 18.784 0 0 0-2.119 4.205l-3.87.815c-.73 5.817-.398 3.842-.73 5.817l3.634 1.653c.17 1.598.538 3.133 1.078 4.58l-2.441 3.114c3.18 4.928 2.164 3.2 3.18 4.928l3.847-1.072a18.902 18.902 0 0 0 3.769 2.811l.132 3.96c5.603 1.732 3.714 1.06 5.603 1.732l2.26-3.294a18.996 18.996 0 0 0 4.693-.271l2.646 2.95c5.403-2.277 3.527-1.58 5.403-2.277l-.386-3.973a18.906 18.906 0 0 0 3.422-3.227l3.925.56c2.676-5.217 1.687-3.473 2.676-5.217l-2.846-2.794c.37-1.5.56-3.066.545-4.674l3.365-2.092c-1.303-5.717-.94-3.747-1.303-5.717l-3.977-.31a18.792 18.792 0 0 0-2.588-3.933l1.233-3.767c-4.674-3.54-3.13-2.264-4.674-3.54l-3.246 2.318a18.674 18.674 0 0 0-4.51-1.353zM37.482 54.557c-.503-8.9 6.302-16.52 15.21-17.027 8.9-.504 16.526 6.304 17.029 15.205.502 8.901-6.304 16.528-15.21 17.03-8.898.508-16.523-6.303-17.029-15.208z" fill="#242F36" mask="url(#b)"/><mask id="d" fill="#fff"><use xlink:href="#c"/></mask><path d="M32 64c17.673 0 32-14.327 32-32C64 14.327 49.673 0 32 0 14.327 0 0 14.327 0 32c0 17.673 14.327 32 32 32zm0-2.4c16.348 0 29.6-13.252 29.6-29.6S48.348 2.4 32 2.4 2.4 15.652 2.4 32 15.652 61.6 32 61.6z" fill="#242F36" mask="url(#d)"/></g></svg>