<svg width="37" height="32" viewBox="0 0 37 32" xmlns="http://www.w3.org/2000/svg"><title>white/icon-ui-ticket-press-white</title><g fill="#FFF" fill-rule="evenodd"><path d="M28.979 2.576a2.024 2.024 0 0 1-2.765-.74 1.788 1.788 0 0 0-2.442-.655L3.231 13.04a1.788 1.788 0 0 0-.655 2.442 2.023 2.023 0 0 1-.74 2.765 1.788 1.788 0 0 0-.655 2.442l4.659 8.07a1.788 1.788 0 0 0 2.442.655 2.024 2.024 0 0 1 2.765.74 1.788 1.788 0 0 0 2.443.655l20.541-11.86a1.788 1.788 0 0 0 .655-2.442 2.023 2.023 0 0 1 .74-2.764 1.788 1.788 0 0 0 .655-2.443l-4.66-8.07a1.788 1.788 0 0 0-2.442-.654zm.941 1.63a.095.095 0 0 1-.129-.035l4.66 8.07a.094.094 0 0 1 .034-.129 3.906 3.906 0 0 0-1.43 5.336.094.094 0 0 1 .035-.129L12.55 29.18a.094.094 0 0 1 .128.034 3.906 3.906 0 0 0-5.335-1.43.094.094 0 0 1 .128.035l-4.659-8.07a.094.094 0 0 1-.035.129 3.906 3.906 0 0 0 1.43-5.336.094.094 0 0 1-.035.13L24.713 2.81a.094.094 0 0 1-.129-.035 3.906 3.906 0 0 0 5.336 1.43z"/><path d="M10.072 18.885l14.305-8.282-.943-1.63-14.306 8.283zM13.083 23.591l14.306-8.282-.943-1.63-14.306 8.283z"/></g></svg>