<svg width="29" height="32" viewBox="0 0 29 32" xmlns="http://www.w3.org/2000/svg"><title>dark gray/icon-ui-redpoint-wand-dark-gray</title><path d="M27.692 28.308s-.078.693-1.23 1.846c-.616.615-1.231.615-1.92.676-1.157-1.292-7.9-12.247-12.543-19.503.34-.093 1.418-.609 1.741-.815.323-.207 1.337-.947 1.564-1.217 4.555 7.119 12.388 19.013 12.388 19.013zm.425-.927L12.622 3.166l-.027.018c-.81-.887-2.36-.977-3.643-.155-1.284.821-1.851 2.266-1.385 3.373l.022.017s.788 1.464 2.398 3.67v.002H9.94c4.33 6.768 13.108 20.525 13.12 20.543.415.65 1.15.988 1.975.988.611 0 1.26-.186 1.857-.567 1.404-.898 1.949-2.543 1.226-3.674zM5.867 8.027L4.233 7.79 3.5 6.307c-.2-.404-.522-.404-.72 0l-.732 1.482-1.637.238c-.444.065-.544.371-.223.685l1.185 1.154-.28 1.63c-.075.443.185.632.583.423l1.464-.77 1.463.77c.398.21.659.02.583-.423l-.28-1.63L6.09 8.712c.322-.314.222-.62-.222-.685zM1.578 3.48l-.19 1.109c-.051.3.126.43.397.287l.995-.523.996.523c.27.142.447.014.396-.287l-.19-1.109.805-.785c.219-.213.151-.422-.151-.466l-1.113-.161-.498-1.009c-.135-.274-.354-.274-.49 0l-.497 1.009-1.114.161c-.302.044-.37.253-.15.466 0 0-.22-.213 0 0l.805.785z" fill="#242F36" fill-rule="evenodd"/></svg>